a1000-p0300.ufo
<glyph name="exclam" format="1">
  <advance width="267"/>
  <unicode hex="0021"/>
  <outline>
    <contour>
      <point x="136" y="1" type="curve" smooth="yes"/>
      <point x="169" y="1"/>
      <point x="189" y="20"/>
      <point x="189" y="52" type="curve" smooth="yes"/>
      <point x="189" y="83"/>
      <point x="169" y="103"/>
      <point x="136" y="103" type="curve" smooth="yes"/>
      <point x="103" y="103"/>
      <point x="84" y="84"/>
      <point x="84" y="52" type="curve" smooth="yes"/>
      <point x="84" y="20"/>
      <point x="103" y="1"/>
    </contour>
    <contour>
      <point x="104" y="186" type="line"/>
      <point x="162" y="186" type="line"/>
      <point x="162" y="199" type="line"/>
      <point x="179" y="730" type="line"/>
      <point x="179" y="740" type="line"/>
      <point x="88" y="740" type="line"/>
      <point x="88" y="730" type="line"/>
      <point x="104" y="199" type="line"/>
    </contour>
  </outline>
</glyph>
<glyph name="numbersign" format="1">
  <advance width="606"/>
  <unicode hex="0023"/>
  <outline>
    <contour>
      <point x="130" y="0" type="line"/>
      <point x="199" y="0" type="line"/>
      <point x="259" y="740" type="line"/>
      <point x="190" y="740" type="line"/>
    </contour>
    <contour>
      <point x="53" y="221" type="line"/>
      <point x="552" y="221" type="line"/>
      <point x="552" y="286" type="line"/>
      <point x="53" y="286" type="line"/>
    </contour>
    <contour>
      <point x="53" y="452" type="line"/>
      <point x="552" y="452" type="line"/>
      <point x="552" y="518" type="line"/>
      <point x="53" y="518" type="line"/>
    </contour>
    <contour>
      <point x="340" y="0" type="line"/>
      <point x="410" y="0" type="line"/>
      <point x="470" y="740" type="line"/>
      <point x="401" y="740" type="line"/>
    </contour>
  </outline>
</glyph>
<glyph name="dollar" format="1">
  <advance width="618"/>
  <unicode hex="0024"/>
  <outline>
    <contour>
      <point x="275" y="-150" type="line"/>
      <point x="366" y="-150" type="line"/>
      <point x="366" y="38" type="line"/>
      <point x="275" y="36" type="line"/>
    </contour>
    <contour>
      <point x="264" y="709" type="line"/>
      <point x="356" y="712" type="line"/>
      <point x="356" y="890" type="line"/>
      <point x="264" y="890" type="line"/>
    </contour>
    <component base="S" xOffset="2"/>
  </outline>
</glyph>
<glyph name="percent" format="1">
  <advance width="1022"/>
  <unicode hex="0025"/>
  <outline>
    <contour>
      <point x="234" y="277" type="curve" smooth="yes"/>
      <point x="358" y="277"/>
      <point x="425" y="357"/>
      <point x="425" y="514" type="curve" smooth="yes"/>
      <point x="425" y="670"/>
      <point x="358" y="750"/>
      <point x="234" y="750" type="curve" smooth="yes"/>
      <point x="110" y="750"/>
      <point x="43" y="670"/>
      <point x="43" y="514" type="curve" smooth="yes"/>
      <point x="43" y="357"/>
      <point x="110" y="277"/>
    </contour>
    <contour>
      <point x="234" y="342" type="curve" smooth="yes"/>
      <point x="154" y="342"/>
      <point x="115" y="397"/>
      <point x="115" y="514" type="curve" smooth="yes"/>
      <point x="115" y="631"/>
      <point x="154" y="686"/>
      <point x="234" y="686" type="curve" smooth="yes"/>
      <point x="313" y="686"/>
      <point x="353" y="631"/>
      <point x="353" y="514" type="curve" smooth="yes"/>
      <point x="353" y="397"/>
      <point x="313" y="342"/>
    </contour>
    <contour>
      <point x="789" y="-10" type="curve" smooth="yes"/>
      <point x="912" y="-10"/>
      <point x="980" y="70"/>
      <point x="980" y="227" type="curve" smooth="yes"/>
      <point x="980" y="383"/>
      <point x="912" y="463"/>
      <point x="789" y="463" type="curve" smooth="yes"/>
      <point x="665" y="463"/>
      <point x="598" y="383"/>
      <point x="598" y="227" type="curve" smooth="yes"/>
      <point x="598" y="70"/>
      <point x="665" y="-10"/>
    </contour>
    <contour>
      <point x="789" y="54" type="curve" smooth="yes"/>
      <point x="709" y="54"/>
      <point x="670" y="109"/>
      <point x="670" y="227" type="curve" smooth="yes"/>
      <point x="670" y="344"/>
      <point x="709" y="399"/>
      <point x="789" y="399" type="curve" smooth="yes"/>
      <point x="868" y="399"/>
      <point x="908" y="344"/>
      <point x="908" y="227" type="curve" smooth="yes"/>
      <point x="908" y="109"/>
      <point x="868" y="54"/>
    </contour>
    <contour>
      <point x="282" y="0" type="line"/>
      <point x="368" y="0" type="line"/>
      <point x="741" y="740" type="line"/>
      <point x="655" y="740" type="line"/>
    </contour>
  </outline>
</glyph>
<glyph name="ampersand" format="1">
  <advance width="775"/>
  <unicode hex="0026"/>
  <outline>
    <contour>
      <point x="710" y="84" type="line"/>
      <point x="719" y="84" type="line"/>
      <point x="757" y="145" type="line"/>
      <point x="757" y="154" type="line"/>
      <point x="464" y="307" type="line" smooth="yes"/>
      <point x="297" y="394"/>
      <point x="233" y="461"/>
      <point x="233" y="552" type="curve" smooth="yes"/>
      <point x="233" y="640"/>
      <point x="287" y="685"/>
      <point x="394" y="685" type="curve" smooth="yes"/>
      <point x="442" y="685"/>
      <point x="495" y="674"/>
      <point x="558" y="652" type="curve"/>
      <point x="566" y="652" type="line"/>
      <point x="582" y="712" type="line"/>
      <point x="581" y="718" type="line"/>
      <point x="506" y="742"/>
      <point x="444" y="753"/>
      <point x="386" y="753" type="curve" smooth="yes"/>
      <point x="227" y="753"/>
      <point x="138" y="683"/>
      <point x="138" y="557" type="curve" smooth="yes"/>
      <point x="138" y="435"/>
      <point x="206" y="359"/>
      <point x="419" y="243" type="curve" smooth="yes"/>
    </contour>
    <contour>
      <point x="346" y="-11" type="curve" smooth="yes"/>
      <point x="567" y="-11"/>
      <point x="685" y="111"/>
      <point x="685" y="343" type="curve" smooth="yes"/>
      <point x="685" y="420" type="line"/>
      <point x="598" y="420" type="line"/>
      <point x="598" y="342" type="line" smooth="yes"/>
      <point x="598" y="149"/>
      <point x="517" y="57"/>
      <point x="351" y="57" type="curve" smooth="yes"/>
      <point x="227" y="57"/>
      <point x="150" y="116"/>
      <point x="150" y="210" type="curve" smooth="yes"/>
      <point x="150" y="280"/>
      <point x="188" y="327"/>
      <point x="268" y="356" type="curve"/>
      <point x="230" y="420" type="line"/>
      <point x="220" y="409" type="line"/>
      <point x="112" y="377"/>
      <point x="54" y="306"/>
      <point x="54" y="206" type="curve" smooth="yes"/>
      <point x="54" y="72"/>
      <point x="165" y="-11"/>
    </contour>
  </outline>
</glyph>
<glyph name="parenleft" format="1">
  <advance width="309"/>
  <unicode hex="0028"/>
  <outline>
    <contour>
      <point x="205" y="-160" type="curve"/>
      <point x="289" y="-160" type="line"/>
      <point x="289" y="-156" type="line"/>
      <point x="186" y="-11"/>
      <point x="126" y="167"/>
      <point x="126" y="354" type="curve" smooth="yes"/>
      <point x="126" y="540"/>
      <point x="186" y="719"/>
      <point x="289" y="864" type="curve"/>
      <point x="289" y="868" type="line"/>
      <point x="205" y="868" type="line"/>
      <point x="103" y="721"/>
      <point x="48" y="540"/>
      <point x="48" y="354" type="curve" smooth="yes"/>
      <point x="48" y="169"/>
      <point x="103" y="-13"/>
    </contour>
  </outline>
</glyph>
<glyph name="comma" format="1">
  <advance width="246"/>
  <unicode hex="002C"/>
  <outline>
    <contour>
      <point x="108" y="-155" type="line"/>
      <point x="178" y="107" type="line"/>
      <point x="82" y="107" type="line"/>
      <point x="37" y="-145" type="line"/>
    </contour>
  </outline>
</glyph>
<glyph name="hyphen" format="1">
  <advance width="502"/>
  <unicode hex="002D"/>
  <outline>
    <contour>
      <point x="71" y="242" type="line"/>
      <point x="431" y="242" type="line"/>
      <point x="431" y="318" type="line"/>
      <point x="71" y="318" type="line"/>
    </contour>
  </outline>
</glyph>
<glyph name="slash" format="1">
  <advance width="421"/>
  <unicode hex="002F"/>
  <outline>
    <contour>
      <point x="32" y="-120" type="line"/>
      <point x="115" y="-120" type="line"/>
      <point x="389" y="740" type="line"/>
      <point x="306" y="740" type="line"/>
    </contour>
  </outline>
</glyph>
<glyph name="two" format="1">
  <advance width="590"/>
  <unicode hex="0032"/>
  <outline>
    <contour>
      <point x="49" y="2" type="line"/>
      <point x="532" y="2" type="line"/>
      <point x="532" y="79" type="line"/>
      <point x="148" y="79" type="line"/>
      <point x="148" y="123" type="line" smooth="yes"/>
      <point x="148" y="194"/>
      <point x="214" y="247"/>
      <point x="339" y="313" type="curve" smooth="yes"/>
      <point x="467" y="380"/>
      <point x="529" y="439"/>
      <point x="529" y="547" type="curve" smooth="yes"/>
      <point x="529" y="681"/>
      <point x="452" y="748"/>
      <point x="290" y="748" type="curve" smooth="yes"/>
      <point x="226" y="748"/>
      <point x="159" y="740"/>
      <point x="72" y="722" type="curve"/>
      <point x="82" y="640" type="line"/>
      <point x="146" y="656"/>
      <point x="216" y="667"/>
      <point x="276" y="667" type="curve" smooth="yes"/>
      <point x="384" y="667"/>
      <point x="435" y="627"/>
      <point x="435" y="541" type="curve" smooth="yes"/>
      <point x="435" y="473"/>
      <point x="387" y="429"/>
      <point x="277" y="373" type="curve" smooth="yes"/>
      <point x="132" y="299"/>
      <point x="49" y="233"/>
      <point x="49" y="99" type="curve" smooth="yes"/>
    </contour>
  </outline>
</glyph>
<glyph name="five" format="1">
  <advance width="573"/>
  <unicode hex="0035"/>
  <outline>
    <contour>
      <point x="226" y="-11" type="curve" smooth="yes"/>
      <point x="402" y="-11"/>
      <point x="525" y="47"/>
      <point x="525" y="218" type="curve" smooth="yes"/>
      <point x="525" y="384"/>
      <point x="405" y="434"/>
      <point x="144" y="434" type="curve"/>
      <point x="157" y="398" type="line"/>
      <point x="177" y="704" type="line"/>
      <point x="137" y="663" type="line"/>
      <point x="491" y="663" type="line"/>
      <point x="491" y="740" type="line"/>
      <point x="102" y="740" type="line"/>
      <point x="74" y="367" type="line"/>
      <point x="84" y="357" type="line"/>
      <point x="166" y="355" type="line" smooth="yes"/>
      <point x="348" y="352"/>
      <point x="427" y="322"/>
      <point x="427" y="221" type="curve" smooth="yes"/>
      <point x="427" y="104"/>
      <point x="357" y="65"/>
      <point x="215" y="65" type="curve" smooth="yes"/>
      <point x="170" y="65"/>
      <point x="123" y="70"/>
      <point x="73" y="79" type="curve"/>
      <point x="55" y="79" type="line"/>
      <point x="55" y="4" type="line"/>
      <point x="112" y="-5"/>
      <point x="172" y="-11"/>
    </contour>
  </outline>
</glyph>
<glyph name="six" format="1">
  <advance width="657"/>
  <unicode hex="0036"/>
  <outline>
    <contour>
      <point x="343" y="-11" type="curve" smooth="yes"/>
      <point x="508" y="-11"/>
      <point x="615" y="87"/>
      <point x="615" y="238" type="curve" smooth="yes"/>
      <point x="615" y="372"/>
      <point x="517" y="455"/>
      <point x="361" y="455" type="curve" smooth="yes"/>
      <point x="273" y="455"/>
      <point x="179" y="415"/>
      <point x="121" y="351" type="curve"/>
      <point x="148" y="311" type="line"/>
      <point x="198" y="358"/>
      <point x="276" y="390"/>
      <point x="343" y="390" type="curve" smooth="yes"/>
      <point x="454" y="390"/>
      <point x="517" y="335"/>
      <point x="517" y="237" type="curve" smooth="yes"/>
      <point x="517" y="128"/>
      <point x="451" y="60"/>
      <point x="343" y="60" type="curve" smooth="yes"/>
      <point x="214" y="60"/>
      <point x="152" y="145"/>
      <point x="152" y="327" type="curve" smooth="yes"/>
      <point x="152" y="555"/>
      <point x="246" y="678"/>
      <point x="424" y="678" type="curve" smooth="yes"/>
      <point x="466" y="678"/>
      <point x="504" y="673"/>
      <point x="556" y="661" type="curve"/>
      <point x="564" y="734" type="line"/>
      <point x="511" y="746"/>
      <point x="466" y="751"/>
      <point x="422" y="751" type="curve" smooth="yes"/>
      <point x="187" y="751"/>
      <point x="57" y="598"/>
      <point x="57" y="328" type="curve" smooth="yes"/>
      <point x="57" y="103"/>
      <point x="156" y="-11"/>
    </contour>
  </outline>
</glyph>
<glyph name="eight" format="1">
  <advance width="657"/>
  <unicode hex="0038"/>
  <outline>
    <contour>
      <point x="329" y="-6" type="curve" smooth="yes"/>
      <point x="506" y="-6"/>
      <point x="603" y="66"/>
      <point x="603" y="195" type="curve" smooth="yes"/>
      <point x="603" y="338"/>
      <point x="478" y="375"/>
      <point x="363" y="405" type="curve" smooth="yes"/>
      <point x="263" y="432"/>
      <point x="166" y="458"/>
      <point x="166" y="557" type="curve" smooth="yes"/>
      <point x="166" y="641"/>
      <point x="236" y="680"/>
      <point x="329" y="680" type="curve" smooth="yes"/>
      <point x="422" y="680"/>
      <point x="491" y="640"/>
      <point x="491" y="554" type="curve" smooth="yes"/>
      <point x="491" y="444"/>
      <point x="383" y="401"/>
      <point x="363" y="391" type="curve"/>
      <point x="398" y="351" type="line"/>
      <point x="446" y="369"/>
      <point x="576" y="413"/>
      <point x="576" y="560" type="curve" smooth="yes"/>
      <point x="576" y="687"/>
      <point x="479" y="750"/>
      <point x="334" y="750" type="curve" smooth="yes"/>
      <point x="186" y="750"/>
      <point x="80" y="686"/>
      <point x="80" y="561" type="curve" smooth="yes"/>
      <point x="80" y="409"/>
      <point x="205" y="376"/>
      <point x="322" y="343" type="curve" smooth="yes"/>
      <point x="420" y="316"/>
      <point x="513" y="290"/>
      <point x="513" y="192" type="curve" smooth="yes"/>
      <point x="513" y="108"/>
      <point x="439" y="64"/>
      <point x="329" y="64" type="curve" smooth="yes"/>
      <point x="218" y="64"/>
      <point x="145" y="106"/>
      <point x="145" y="200" type="curve" smooth="yes"/>
      <point x="145" y="325"/>
      <point x="265" y="358"/>
      <point x="281" y="367" type="curve"/>
      <point x="241" y="406" type="line"/>
      <point x="201" y="394"/>
      <point x="55" y="351"/>
      <point x="55" y="192" type="curve" smooth="yes"/>
      <point x="55" y="59"/>
      <point x="149" y="-6"/>
    </contour>
  </outline>
</glyph>
<glyph name="less" format="1">
  <advance width="522"/>
  <unicode hex="003C"/>
  <outline>
    <contour>
      <point x="47" y="349" type="line"/>
      <point x="98" y="349" type="line"/>
      <point x="448" y="502" type="line"/>
      <point x="448" y="573" type="line"/>
      <point x="47" y="396" type="line"/>
    </contour>
    <contour>
      <point x="446" y="159" type="line"/>
      <point x="446" y="229" type="line"/>
      <point x="98" y="382" type="line"/>
      <point x="47" y="382" type="line"/>
      <point x="47" y="336" type="line"/>
    </contour>
  </outline>
</glyph>
<glyph name="equal" format="1">
  <advance width="535"/>
  <unicode hex="003D"/>
  <outline>
    <contour>
      <point x="74" y="215" type="line"/>
      <point x="462" y="215" type="line"/>
      <point x="462" y="281" type="line"/>
      <point x="74" y="281" type="line"/>
    </contour>
    <contour>
      <point x="74" y="430" type="line"/>
      <point x="462" y="430" type="line"/>
      <point x="462" y="495" type="line"/>
      <point x="74" y="495" type="line"/>
    </contour>
  </outline>
</glyph>
<glyph name="greater" format="1">
  <advance width="523"/>
  <unicode hex="003E"/>
  <outline>
    <contour>
      <point x="425" y="349" type="line"/>
      <point x="476" y="349" type="line"/>
      <point x="476" y="396" type="line"/>
      <point x="75" y="573" type="line"/>
      <point x="75" y="502" type="line"/>
    </contour>
    <contour>
      <point x="77" y="159" type="line"/>
      <point x="476" y="336" type="line"/>
      <point x="476" y="382" type="line"/>
      <point x="425" y="382" type="line"/>
      <point x="77" y="229" type="line"/>
    </contour>
  </outline>
</glyph>
<glyph name="question" format="1">
  <advance width="468"/>
  <unicode hex="003F"/>
  <outline>
    <contour>
      <point x="158" y="181" type="line"/>
      <point x="226" y="181" type="line"/>
      <point x="226" y="199" type="line"/>
      <point x="228" y="342" type="line"/>
      <point x="323" y="366"/>
      <point x="430" y="418"/>
      <point x="430" y="554" type="curve" smooth="yes"/>
      <point x="430" y="698"/>
      <point x="327" y="750"/>
      <point x="211" y="750" type="curve" smooth="yes"/>
      <point x="148" y="750"/>
      <point x="88" y="739"/>
      <point x="34" y="724" type="curve"/>
      <point x="44" y="652" type="line"/>
      <point x="92" y="664"/>
      <point x="144" y="675"/>
      <point x="197" y="675" type="curve" smooth="yes"/>
      <point x="272" y="675"/>
      <point x="345" y="645"/>
      <point x="345" y="546" type="curve" smooth="yes"/>
      <point x="345" y="442"/>
      <point x="238" y="408"/>
      <point x="152" y="388" type="curve"/>
      <point x="158" y="199" type="line"/>
    </contour>
    <contour>
      <point x="194" y="-2" type="curve" smooth="yes"/>
      <point x="227" y="-2"/>
      <point x="247" y="17"/>
      <point x="247" y="49" type="curve" smooth="yes"/>
      <point x="247" y="81"/>
      <point x="227" y="100"/>
      <point x="194" y="100" type="curve" smooth="yes"/>
      <point x="161" y="100"/>
      <point x="142" y="81"/>
      <point x="142" y="49" type="curve" smooth="yes"/>
      <point x="142" y="17"/>
      <point x="161" y="-2"/>
    </contour>
  </outline>
</glyph>
<glyph name="at" format="1">
  <advance width="920"/>
  <unicode hex="0040"/>
  <outline>
    <contour>
      <point x="446" y="-134" type="curve" smooth="yes"/>
      <point x="509" y="-134"/>
      <point x="586" y="-121"/>
      <point x="671" y="-98" type="curve"/>
      <point x="651" y="-39" type="line"/>
      <point x="574" y="-61"/>
      <point x="504" y="-72"/>
      <point x="446" y="-72" type="curve" smooth="yes"/>
      <point x="240" y="-72"/>
      <point x="116" y="52"/>
      <point x="116" y="260" type="curve" smooth="yes"/>
      <point x="116" y="479"/>
      <point x="253" y="612"/>
      <point x="475" y="612" type="curve" smooth="yes"/>
      <point x="681" y="612"/>
      <point x="795" y="503"/>
      <point x="795" y="305" type="curve" smooth="yes"/>
      <point x="795" y="179"/>
      <point x="751" y="110"/>
      <point x="673" y="110" type="curve" smooth="yes"/>
      <point x="622" y="110"/>
      <point x="600" y="133"/>
      <point x="600" y="182" type="curve" smooth="yes"/>
      <point x="600" y="201"/>
      <point x="605" y="223"/>
      <point x="609" y="250" type="curve" smooth="yes"/>
      <point x="649" y="460" type="line"/>
      <point x="595" y="480"/>
      <point x="542" y="492"/>
      <point x="497" y="492" type="curve" smooth="yes"/>
      <point x="343" y="492"/>
      <point x="239" y="384"/>
      <point x="239" y="232" type="curve" smooth="yes"/>
      <point x="239" y="120"/>
      <point x="294" y="58"/>
      <point x="380" y="58" type="curve" smooth="yes"/>
      <point x="444" y="58"/>
      <point x="515" y="93"/>
      <point x="551" y="142" type="curve"/>
      <point x="556" y="142" type="line"/>
      <point x="561" y="98"/>
      <point x="593" y="53"/>
      <point x="671" y="53" type="curve" smooth="yes"/>
      <point x="792" y="53"/>
      <point x="859" y="143"/>
      <point x="859" y="305" type="curve" smooth="yes"/>
      <point x="859" y="538"/>
      <point x="718" y="673"/>
      <point x="475" y="673" type="curve" smooth="yes"/>
      <point x="213" y="673"/>
      <point x="53" y="516"/>
      <point x="53" y="260" type="curve" smooth="yes"/>
      <point x="53" y="15"/>
      <point x="203" y="-134"/>
    </contour>
    <contour>
      <point x="391" y="114" type="curve" smooth="yes"/>
      <point x="334" y="114"/>
      <point x="302" y="156"/>
      <point x="302" y="232" type="curve" smooth="yes"/>
      <point x="302" y="351"/>
      <point x="384" y="438"/>
      <point x="498" y="438" type="curve" smooth="yes"/>
      <point x="521" y="438"/>
      <point x="549" y="433"/>
      <point x="582" y="424" type="curve"/>
      <point x="552" y="260" type="line" smooth="yes"/>
      <point x="536" y="176"/>
      <point x="468" y="114"/>
    </contour>
  </outline>
</glyph>
<glyph name="A" format="1">
  <advance width="724"/>
  <unicode hex="0041"/>
  <outline>
    <contour>
      <point x="691" y="20" type="move" name="ogonek"/>
    </contour>
    <contour>
      <point x="363" y="798" type="move" name="topUC"/>
    </contour>
    <contour>
      <point x="7" y="0" type="line"/>
      <point x="101" y="0" type="line"/>
      <point x="184" y="217" type="line"/>
      <point x="539" y="217" type="line"/>
      <point x="623" y="0" type="line"/>
      <point x="717" y="0" type="line"/>
      <point x="717" y="7" type="line"/>
      <point x="434" y="740" type="line"/>
      <point x="290" y="740" type="line"/>
      <point x="7" y="7" type="line"/>
    </contour>
    <contour>
      <point x="212" y="297" type="line"/>
      <point x="306" y="539" type="line"/>
      <point x="357" y="675" type="line"/>
      <point x="366" y="675" type="line"/>
      <point x="418" y="539" type="line"/>
      <point x="512" y="297" type="line"/>
    </contour>
  </outline>
</glyph>
<glyph name="C" format="1">
  <advance width="622"/>
  <unicode hex="0043"/>
  <outline>
    <contour>
      <point x="367" y="798" type="move" name="topUC"/>
    </contour>
    <contour>
      <point x="384" y="-33" type="move" name="bottom"/>
    </contour>
    <contour>
      <point x="400" y="-9" type="curve" smooth="yes"/>
      <point x="450" y="-9"/>
      <point x="530" y="1"/>
      <point x="581" y="14" type="curve"/>
      <point x="581" y="93" type="line"/>
      <point x="539" y="82"/>
      <point x="448" y="71"/>
      <point x="400" y="71" type="curve" smooth="yes"/>
      <point x="230" y="71"/>
      <point x="150" y="168"/>
      <point x="150" y="369" type="curve" smooth="yes"/>
      <point x="150" y="572"/>
      <point x="233" y="670"/>
      <point x="408" y="670" type="curve" smooth="yes"/>
      <point x="450" y="670"/>
      <point x="504" y="664"/>
      <point x="581" y="651" type="curve"/>
      <point x="581" y="731" type="line"/>
      <point x="517" y="743"/>
      <point x="448" y="751"/>
      <point x="399" y="751" type="curve" smooth="yes"/>
      <point x="172" y="751"/>
      <point x="54" y="620"/>
      <point x="54" y="368" type="curve" smooth="yes"/>
      <point x="54" y="120"/>
      <point x="172" y="-9"/>
    </contour>
  </outline>
</glyph>
<glyph name="E" format="1">
  <advance width="654"/>
  <unicode hex="0045"/>
  <outline>
    <contour>
      <point x="568" y="16" type="move" name="ogonek"/>
    </contour>
    <contour>
      <point x="347" y="798" type="move" name="topUC"/>
    </contour>
    <contour>
      <point x="357" y="-33" type="move" name="bottom"/>
    </contour>
    <contour>
      <point x="94" y="0" type="line"/>
      <point x="601" y="0" type="line"/>
      <point x="601" y="77" type="line"/>
      <point x="188" y="77" type="line"/>
      <point x="188" y="663" type="line"/>
      <point x="592" y="663" type="line"/>
      <point x="592" y="740" type="line"/>
      <point x="94" y="740" type="line"/>
    </contour>
    <contour>
      <point x="138" y="337" type="line"/>
      <point x="568" y="337" type="line"/>
      <point x="568" y="414" type="line"/>
      <point x="138" y="414" type="line"/>
    </contour>
  </outline>
</glyph>
<glyph name="H" format="1">
  <advance width="815"/>
  <unicode hex="0048"/>
  <outline>
    <contour>
      <point x="402" y="798" type="move" name="topUC"/>
    </contour>
    <contour>
      <point x="416" y="-33" type="move" name="bottom"/>
    </contour>
    <contour>
      <point x="94" y="0" type="line"/>
      <point x="188" y="0" type="line"/>
      <point x="188" y="342" type="line"/>
      <point x="627" y="342" type="line"/>
      <point x="627" y="0" type="line"/>
      <point x="721" y="0" type="line"/>
      <point x="721" y="740" type="line"/>
      <point x="627" y="740" type="line"/>
      <point x="627" y="418" type="line"/>
      <point x="188" y="418" type="line"/>
      <point x="188" y="740" type="line"/>
      <point x="94" y="740" type="line"/>
    </contour>
  </outline>
</glyph>
<glyph name="K" format="1">
  <advance width="704"/>
  <unicode hex="004B"/>
  <outline>
    <contour>
      <point x="365" y="-33" type="move" name="bottom"/>
    </contour>
    <contour>
      <point x="94" y="0" type="line"/>
      <point x="188" y="0" type="line"/>
      <point x="188" y="338" type="line"/>
      <point x="358" y="338" type="line"/>
      <point x="591" y="0" type="line"/>
      <point x="698" y="0" type="line"/>
      <point x="450" y="354" type="line"/>
      <point x="413" y="379" type="line"/>
      <point x="413" y="386" type="line"/>
      <point x="447" y="411" type="line"/>
      <point x="681" y="740" type="line"/>
      <point x="574" y="740" type="line"/>
      <point x="348" y="415" type="line"/>
      <point x="188" y="415" type="line"/>
      <point x="188" y="740" type="line"/>
      <point x="94" y="740" type="line"/>
    </contour>
  </outline>
</glyph>
<glyph name="L" format="1">
  <advance width="569"/>
  <unicode hex="004C"/>
  <outline>
    <contour>
      <point x="144" y="798" type="move" name="topUC"/>
    </contour>
    <contour>
      <point x="477" y="370" type="move" name="periodcentered"/>
    </contour>
    <contour>
      <point x="477" y="720" type="move" name="caronalt"/>
    </contour>
    <contour>
      <point x="321" y="-33" type="move" name="bottom"/>
    </contour>
    <contour>
      <point x="94" y="0" type="line"/>
      <point x="555" y="0" type="line"/>
      <point x="555" y="76" type="line"/>
      <point x="188" y="76" type="line"/>
      <point x="188" y="740" type="line"/>
      <point x="94" y="740" type="line"/>
    </contour>
  </outline>
</glyph>
<glyph name="M" format="1">
  <advance width="976"/>
  <unicode hex="004D"/>
  <outline>
    <contour>
      <point x="94" y="0" type="line"/>
      <point x="180" y="0" type="line"/>
      <point x="180" y="629" type="line"/>
      <point x="186" y="629" type="line"/>
      <point x="285" y="387" type="line"/>
      <point x="446" y="29" type="line"/>
      <point x="530" y="29" type="line"/>
      <point x="691" y="387" type="line"/>
      <point x="789" y="629" type="line"/>
      <point x="796" y="629" type="line"/>
      <point x="796" y="0" type="line"/>
      <point x="882" y="0" type="line"/>
      <point x="882" y="740" type="line"/>
      <point x="752" y="740" type="line"/>
      <point x="563" y="308" type="line"/>
      <point x="491" y="130" type="line"/>
      <point x="484" y="130" type="line"/>
      <point x="412" y="308" type="line"/>
      <point x="223" y="740" type="line"/>
      <point x="94" y="740" type="line"/>
    </contour>
  </outline>
</glyph>
<glyph name="N" format="1">
  <advance width="823"/>
  <unicode hex="004E"/>
  <outline>
    <contour>
      <point x="415" y="798" type="move" name="topUC"/>
    </contour>
    <contour>
      <point x="419" y="-33" type="move" name="bottom"/>
    </contour>
    <contour>
      <point x="94" y="0" type="line"/>
      <point x="179" y="0" type="line"/>
      <point x="179" y="601" type="line"/>
      <point x="185" y="601" type="line"/>
      <point x="247" y="514" type="line"/>
      <point x="650" y="0" type="line"/>
      <point x="730" y="0" type="line"/>
      <point x="730" y="740" type="line"/>
      <point x="645" y="740" type="line"/>
      <point x="645" y="137" type="line"/>
      <point x="638" y="137" type="line"/>
      <point x="575" y="227" type="line"/>
      <point x="173" y="740" type="line"/>
      <point x="94" y="740" type="line"/>
    </contour>
  </outline>
</glyph>
<glyph name="O" format="1">
  <advance width="792"/>
  <unicode hex="004F"/>
  <outline>
    <contour>
      <point x="452" y="38" type="move" name="ogonek"/>
    </contour>
    <contour>
      <point x="396" y="798" type="move" name="topUC"/>
    </contour>
    <contour>
      <point x="375" y="-33" type="move" name="bottom"/>
    </contour>
    <contour>
      <point x="396" y="-10" type="curve" smooth="yes"/>
      <point x="612" y="-10"/>
      <point x="738" y="123"/>
      <point x="738" y="369" type="curve" smooth="yes"/>
      <point x="738" y="616"/>
      <point x="612" y="750"/>
      <point x="396" y="750" type="curve" smooth="yes"/>
      <point x="179" y="750"/>
      <point x="54" y="616"/>
      <point x="54" y="369" type="curve" smooth="yes"/>
      <point x="54" y="122"/>
      <point x="179" y="-10"/>
    </contour>
    <contour>
      <point x="396" y="69" type="curve" smooth="yes"/>
      <point x="233" y="69"/>
      <point x="150" y="169"/>
      <point x="150" y="369" type="curve" smooth="yes"/>
      <point x="150" y="571"/>
      <point x="233" y="671"/>
      <point x="396" y="671" type="curve" smooth="yes"/>
      <point x="558" y="671"/>
      <point x="642" y="570"/>
      <point x="642" y="369" type="curve" smooth="yes"/>
      <point x="642" y="170"/>
      <point x="559" y="69"/>
    </contour>
  </outline>
</glyph>
<glyph name="Q" format="1">
  <advance width="789"/>
  <unicode hex="0051"/>
  <outline>
    <contour>
      <point x="706" y="-124" type="curve"/>
      <point x="719" y="-41" type="line"/>
      <point x="619" y="-34"/>
      <point x="551" y="-23"/>
      <point x="411" y="6" type="curve"/>
      <point x="411" y="13" type="line"/>
      <point x="616" y="5"/>
      <point x="737" y="137"/>
      <point x="737" y="369" type="curve" smooth="yes"/>
      <point x="737" y="610"/>
      <point x="611" y="750"/>
      <point x="394" y="750" type="curve" smooth="yes"/>
      <point x="177" y="750"/>
      <point x="51" y="610"/>
      <point x="51" y="369" type="curve" smooth="yes"/>
      <point x="51" y="77"/>
      <point x="202" y="-40"/>
    </contour>
    <contour>
      <point x="394" y="69" type="curve" smooth="yes"/>
      <point x="233" y="69"/>
      <point x="147" y="174"/>
      <point x="147" y="369" type="curve" smooth="yes"/>
      <point x="147" y="566"/>
      <point x="233" y="671"/>
      <point x="394" y="671" type="curve" smooth="yes"/>
      <point x="556" y="671"/>
      <point x="641" y="567"/>
      <point x="641" y="369" type="curve" smooth="yes"/>
      <point x="641" y="174"/>
      <point x="555" y="69"/>
    </contour>
  </outline>
</glyph>
<glyph name="U" format="1">
  <advance width="797"/>
  <unicode hex="0055"/>
  <outline>
    <contour>
      <point x="463" y="27" type="move" name="ogonek"/>
    </contour>
    <contour>
      <point x="397" y="798" type="move" name="topUC"/>
    </contour>
    <contour>
      <point x="395" y="-33" type="move" name="bottom"/>
    </contour>
    <contour>
      <point x="399" y="-10" type="curve" smooth="yes"/>
      <point x="619" y="-10"/>
      <point x="712" y="83"/>
      <point x="712" y="303" type="curve" smooth="yes"/>
      <point x="712" y="740" type="line"/>
      <point x="617" y="740" type="line"/>
      <point x="617" y="304" type="line" smooth="yes"/>
      <point x="617" y="135"/>
      <point x="543" y="69"/>
      <point x="399" y="69" type="curve" smooth="yes"/>
      <point x="254" y="69"/>
      <point x="180" y="135"/>
      <point x="180" y="304" type="curve" smooth="yes"/>
      <point x="180" y="740" type="line"/>
      <point x="86" y="740" type="line"/>
      <point x="86" y="303" type="line" smooth="yes"/>
      <point x="86" y="83"/>
      <point x="178" y="-10"/>
    </contour>
  </outline>
</glyph>
<glyph name="V" format="1">
  <advance width="718"/>
  <unicode hex="0056"/>
  <outline>
    <contour>
      <point x="296" y="0" type="line"/>
      <point x="423" y="0" type="line"/>
      <point x="710" y="740" type="line"/>
      <point x="611" y="740" type="line"/>
      <point x="418" y="239" type="line"/>
      <point x="364" y="92" type="line"/>
      <point x="355" y="92" type="line"/>
      <point x="301" y="239" type="line"/>
      <point x="109" y="740" type="line"/>
      <point x="9" y="740" type="line"/>
    </contour>
  </outline>
</glyph>
<glyph name="W" format="1">
  <advance width="1064"/>
  <unicode hex="0057"/>
  <outline>
    <contour>
      <point x="533" y="798" type="move" name="topUC"/>
    </contour>
    <contour>
      <point x="230" y="0" type="line"/>
      <point x="359" y="0" type="line"/>
      <point x="497" y="476" type="line"/>
      <point x="529" y="617" type="line"/>
      <point x="535" y="617" type="line"/>
      <point x="567" y="477" type="line"/>
      <point x="706" y="0" type="line"/>
      <point x="834" y="0" type="line"/>
      <point x="1044" y="740" type="line"/>
      <point x="945" y="740" type="line"/>
      <point x="809" y="240" type="line"/>
      <point x="772" y="94" type="line"/>
      <point x="765" y="94" type="line"/>
      <point x="725" y="240" type="line"/>
      <point x="581" y="740" type="line"/>
      <point x="483" y="740" type="line"/>
      <point x="338" y="240" type="line"/>
      <point x="299" y="94" type="line"/>
      <point x="292" y="94" type="line"/>
      <point x="255" y="240" type="line"/>
      <point x="119" y="740" type="line"/>
      <point x="21" y="740" type="line"/>
    </contour>
  </outline>
</glyph>
<glyph name="X" format="1">
  <advance width="708"/>
  <unicode hex="0058"/>
  <outline>
    <contour>
      <point x="3" y="0" type="line"/>
      <point x="112" y="0" type="line"/>
      <point x="335" y="297" type="line"/>
      <point x="349" y="323" type="line"/>
      <point x="359" y="323" type="line"/>
      <point x="374" y="297" type="line"/>
      <point x="598" y="0" type="line"/>
      <point x="706" y="0" type="line"/>
      <point x="412" y="378" type="line"/>
      <point x="688" y="740" type="line"/>
      <point x="580" y="740" type="line"/>
      <point x="375" y="468" type="line"/>
      <point x="359" y="439" type="line"/>
      <point x="349" y="439" type="line"/>
      <point x="332" y="468" type="line"/>
      <point x="129" y="740" type="line"/>
      <point x="21" y="740" type="line"/>
      <point x="293" y="384" type="line"/>
    </contour>
  </outline>
</glyph>
<glyph name="backslash" format="1">
  <advance width="421"/>
  <unicode hex="005C"/>
  <outline>
    <contour>
      <point x="306" y="-120" type="line"/>
      <point x="388" y="-120" type="line"/>
      <point x="114" y="740" type="line"/>
      <point x="32" y="740" type="line"/>
    </contour>
  </outline>
</glyph>
<glyph name="bracketright" format="1">
  <advance width="333"/>
  <unicode hex="005D"/>
  <outline>
    <contour>
      <point x="241" y="-160" type="line"/>
      <point x="241" y="868" type="line"/>
      <point x="34" y="868" type="line"/>
      <point x="34" y="801" type="line"/>
      <point x="165" y="801" type="line"/>
      <point x="165" y="-93" type="line"/>
      <point x="34" y="-93" type="line"/>
      <point x="34" y="-160" type="line"/>
    </contour>
  </outline>
</glyph>
<glyph name="c" format="1">
  <advance width="506"/>
  <unicode hex="0063"/>
  <outline>
    <contour>
      <point x="297" y="622" type="move" name="top"/>
    </contour>
    <contour>
      <point x="300" y="-33" type="move" name="bottom"/>
    </contour>
    <contour>
      <point x="319" y="-9" type="curve" smooth="yes"/>
      <point x="370" y="-9"/>
      <point x="427" y="-3"/>
      <point x="460" y="6" type="curve"/>
      <point x="460" y="82" type="line"/>
      <point x="414" y="73"/>
      <point x="378" y="70"/>
      <point x="327" y="70" type="curve" smooth="yes"/>
      <point x="198" y="70"/>
      <point x="143" y="130"/>
      <point x="143" y="270" type="curve" smooth="yes"/>
      <point x="143" y="405"/>
      <point x="203" y="470"/>
      <point x="329" y="470" type="curve" smooth="yes"/>
      <point x="372" y="470"/>
      <point x="418" y="465"/>
      <point x="460" y="456" type="curve"/>
      <point x="460" y="534" type="line"/>
      <point x="421" y="543"/>
      <point x="365" y="549"/>
      <point x="319" y="549" type="curve" smooth="yes"/>
      <point x="140" y="549"/>
      <point x="50" y="455"/>
      <point x="50" y="269" type="curve" smooth="yes"/>
      <point x="50" y="84"/>
      <point x="140" y="-9"/>
    </contour>
  </outline>
</glyph>
<glyph name="d" format="1">
  <advance width="644"/>
  <unicode hex="0064"/>
  <outline>
    <contour>
      <point x="649" y="768" type="move" name="caronalt"/>
    </contour>
    <contour>
      <point x="310" y="-33" type="move" name="bottom"/>
    </contour>
    <contour>
      <point x="290" y="-10" type="curve" smooth="yes"/>
      <point x="371" y="-10"/>
      <point x="430" y="17"/>
      <point x="469" y="70" type="curve"/>
      <point x="476" y="70" type="line"/>
      <point x="484" y="0" type="line"/>
      <point x="564" y="0" type="line"/>
      <point x="564" y="808" type="line"/>
      <point x="472" y="808" type="line"/>
      <point x="472" y="540" type="line"/>
      <point x="435" y="543"/>
      <point x="385" y="550"/>
      <point x="331" y="550" type="curve" smooth="yes"/>
      <point x="164" y="550"/>
      <point x="50" y="460"/>
      <point x="50" y="266" type="curve" smooth="yes"/>
      <point x="50" y="76"/>
      <point x="135" y="-10"/>
    </contour>
    <contour>
      <point x="311" y="64" type="curve" smooth="yes"/>
      <point x="195" y="64"/>
      <point x="144" y="120"/>
      <point x="144" y="270" type="curve" smooth="yes"/>
      <point x="144" y="422"/>
      <point x="206" y="479"/>
      <point x="329" y="479" type="curve" smooth="yes"/>
      <point x="384" y="479"/>
      <point x="436" y="473"/>
      <point x="472" y="468" type="curve"/>
      <point x="472" y="186" type="line" smooth="yes"/>
      <point x="471" y="110"/>
      <point x="397" y="64"/>
    </contour>
  </outline>
</glyph>
<glyph name="g" format="1">
  <advance width="644"/>
  <unicode hex="0067"/>
  <outline>
    <contour>
      <point x="333" y="622" type="move" name="top"/>
    </contour>
    <contour>
      <point x="283" y="-219" type="curve" smooth="yes"/>
      <point x="428" y="-219"/>
      <point x="565" y="-168"/>
      <point x="565" y="50" type="curve" smooth="yes"/>
      <point x="565" y="519" type="line"/>
      <point x="476" y="543"/>
      <point x="396" y="550"/>
      <point x="331" y="550" type="curve" smooth="yes"/>
      <point x="164" y="550"/>
      <point x="50" y="462"/>
      <point x="50" y="270" type="curve" smooth="yes"/>
      <point x="50" y="85"/>
      <point x="135" y="1"/>
      <point x="290" y="1" type="curve" smooth="yes"/>
      <point x="371" y="1"/>
      <point x="432" y="29"/>
      <point x="471" y="84" type="curve"/>
      <point x="477" y="84" type="line"/>
      <point x="477" y="44" type="line" smooth="yes"/>
      <point x="477" y="-105"/>
      <point x="387" y="-147"/>
      <point x="270" y="-147" type="curve" smooth="yes"/>
      <point x="209" y="-147"/>
      <point x="143" y="-136"/>
      <point x="93" y="-124" type="curve"/>
      <point x="87" y="-196" type="line"/>
      <point x="139" y="-210"/>
      <point x="215" y="-219"/>
    </contour>
    <contour>
      <point x="311" y="74" type="curve" smooth="yes"/>
      <point x="195" y="74"/>
      <point x="144" y="129"/>
      <point x="144" y="275" type="curve" smooth="yes"/>
      <point x="144" y="423"/>
      <point x="207" y="479"/>
      <point x="329" y="479" type="curve" smooth="yes"/>
      <point x="384" y="479"/>
      <point x="436" y="473"/>
      <point x="472" y="468" type="curve"/>
      <point x="472" y="199" type="line" smooth="yes"/>
      <point x="472" y="121"/>
      <point x="399" y="74"/>
    </contour>
  </outline>
</glyph>
<glyph name="h" format="1">
  <advance width="647"/>
  <unicode hex="0068"/>
  <outline>
    <contour>
      <point x="184" y="803" type="move" name="top"/>
    </contour>
    <contour>
      <point x="324" y="-33" type="move" name="bottom"/>
    </contour>
    <contour>
      <point x="80" y="0" type="line"/>
      <point x="172" y="0" type="line"/>
      <point x="172" y="413" type="line"/>
      <point x="255" y="450"/>
      <point x="331" y="474"/>
      <point x="384" y="474" type="curve" smooth="yes"/>
      <point x="447" y="474"/>
      <point x="478" y="444"/>
      <point x="478" y="367" type="curve" smooth="yes"/>
      <point x="478" y="0" type="line"/>
      <point x="571" y="0" type="line"/>
      <point x="571" y="400" type="line" smooth="yes"/>
      <point x="571" y="500"/>
      <point x="515" y="550"/>
      <point x="419" y="550" type="curve" smooth="yes"/>
      <point x="354" y="550"/>
      <point x="284" y="526"/>
      <point x="165" y="473" type="curve"/>
      <point x="172" y="464" type="line"/>
      <point x="172" y="808" type="line"/>
      <point x="80" y="808" type="line"/>
    </contour>
  </outline>
</glyph>
<glyph name="i" format="1">
  <advance width="255"/>
  <unicode hex="0069"/>
  <outline>
    <contour>
      <point x="139" y="16" type="move" name="ogonek"/>
    </contour>
    <contour>
      <point x="127" y="-33" type="move" name="bottom"/>
    </contour>
    <contour>
      <point x="127" y="649" type="curve" smooth="yes"/>
      <point x="167" y="649"/>
      <point x="185" y="668"/>
      <point x="185" y="704" type="curve" smooth="yes"/>
      <point x="185" y="741"/>
      <point x="167" y="760"/>
      <point x="127" y="760" type="curve" smooth="yes"/>
      <point x="88" y="760"/>
      <point x="71" y="742"/>
      <point x="71" y="704" type="curve" smooth="yes"/>
      <point x="71" y="666"/>
      <point x="88" y="649"/>
    </contour>
    <contour>
      <point x="81" y="0" type="line"/>
      <point x="174" y="0" type="line"/>
      <point x="174" y="540" type="line"/>
      <point x="81" y="540" type="line"/>
    </contour>
  </outline>
</glyph>
<glyph name="j" format="1">
  <advance width="252"/>
  <unicode hex="006A"/>
  <outline>
    <contour>
      <point x="123" y="649" type="curve" smooth="yes"/>
      <point x="162" y="649"/>
      <point x="180" y="668"/>
      <point x="180" y="704" type="curve" smooth="yes"/>
      <point x="180" y="741"/>
      <point x="162" y="760"/>
      <point x="123" y="760" type="curve" smooth="yes"/>
      <point x="83" y="760"/>
      <point x="66" y="742"/>
      <point x="66" y="704" type="curve" smooth="yes"/>
      <point x="66" y="666"/>
      <point x="83" y="649"/>
    </contour>
    <contour>
      <point x="82" y="-220" type="line"/>
      <point x="137" y="-129"/>
      <point x="168" y="-26"/>
      <point x="172" y="86" type="curve" smooth="yes"/>
      <point x="172" y="540" type="line"/>
      <point x="80" y="540" type="line"/>
      <point x="81" y="479"/>
      <point x="81" y="155"/>
      <point x="81" y="134" type="curve" smooth="yes"/>
      <point x="81" y="-13"/>
      <point x="61" y="-100"/>
      <point x="14" y="-200" type="curve"/>
    </contour>
  </outline>
</glyph>
<glyph name="k" format="1">
  <advance width="587"/>
  <unicode hex="006B"/>
  <outline>
    <contour>
      <point x="323" y="-33" type="move" name="bottom"/>
    </contour>
    <contour>
      <point x="80" y="0" type="line"/>
      <point x="172" y="0" type="line"/>
      <point x="172" y="246" type="line"/>
      <point x="272" y="246" type="line"/>
      <point x="482" y="0" type="line"/>
      <point x="587" y="0" type="line"/>
      <point x="359" y="266" type="line"/>
      <point x="339" y="275" type="line"/>
      <point x="339" y="279" type="line"/>
      <point x="358" y="287" type="line"/>
      <point x="571" y="540" type="line"/>
      <point x="465" y="540" type="line"/>
      <point x="274" y="309" type="line"/>
      <point x="172" y="309" type="line"/>
      <point x="172" y="808" type="line"/>
      <point x="80" y="808" type="line"/>
    </contour>
  </outline>
</glyph>
<glyph name="o" format="1">
  <advance width="630"/>
  <unicode hex="006F"/>
  <outline>
    <contour>
      <point x="314" y="622" type="move" name="top"/>
    </contour>
    <contour>
      <point x="370" y="28" type="move" name="ogonek"/>
    </contour>
    <contour>
      <point x="315" y="-33" type="move" name="bottom"/>
    </contour>
    <contour>
      <point x="315" y="-10" type="curve" smooth="yes"/>
      <point x="486" y="-10"/>
      <point x="580" y="90"/>
      <point x="580" y="270" type="curve" smooth="yes"/>
      <point x="580" y="450"/>
      <point x="486" y="550"/>
      <point x="315" y="550" type="curve" smooth="yes"/>
      <point x="144" y="550"/>
      <point x="49" y="450"/>
      <point x="49" y="270" type="curve" smooth="yes"/>
      <point x="49" y="90"/>
      <point x="144" y="-10"/>
    </contour>
    <contour>
      <point x="315" y="65" type="curve" smooth="yes"/>
      <point x="198" y="65"/>
      <point x="144" y="129"/>
      <point x="144" y="270" type="curve" smooth="yes"/>
      <point x="144" y="411"/>
      <point x="198" y="474"/>
      <point x="315" y="474" type="curve" smooth="yes"/>
      <point x="433" y="474"/>
      <point x="486" y="411"/>
      <point x="486" y="270" type="curve" smooth="yes"/>
      <point x="486" y="129"/>
      <point x="433" y="65"/>
    </contour>
  </outline>
</glyph>
<glyph name="p" format="1">
  <advance width="646"/>
  <unicode hex="0070"/>
  <outline>
    <contour>
      <point x="80" y="-220" type="line"/>
      <point x="173" y="-220" type="line"/>
      <point x="173" y="-1" type="line"/>
      <point x="209" y="-4"/>
      <point x="260" y="-10"/>
      <point x="314" y="-10" type="curve" smooth="yes"/>
      <point x="481" y="-10"/>
      <point x="595" y="80"/>
      <point x="595" y="274" type="curve" smooth="yes"/>
      <point x="595" y="464"/>
      <point x="510" y="550"/>
      <point x="354" y="550" type="curve" smooth="yes"/>
      <point x="275" y="550"/>
      <point x="214" y="524"/>
      <point x="175" y="473" type="curve"/>
      <point x="168" y="473" type="line"/>
      <point x="160" y="540" type="line"/>
      <point x="80" y="540" type="line"/>
    </contour>
    <contour>
      <point x="316" y="61" type="curve" smooth="yes"/>
      <point x="261" y="61"/>
      <point x="208" y="67"/>
      <point x="173" y="72" type="curve"/>
      <point x="173" y="355" type="line" smooth="yes"/>
      <point x="173" y="430"/>
      <point x="246" y="476"/>
      <point x="334" y="476" type="curve" smooth="yes"/>
      <point x="450" y="476"/>
      <point x="501" y="420"/>
      <point x="501" y="270" type="curve" smooth="yes"/>
      <point x="501" y="118"/>
      <point x="438" y="61"/>
    </contour>
  </outline>
</glyph>
<glyph name="q" format="1">
  <advance width="644"/>
  <unicode hex="0071"/>
  <outline>
    <contour>
      <point x="476" y="-220" type="line"/>
      <point x="565" y="-220" type="line"/>
      <point x="565" y="530" type="line"/>
      <point x="511" y="539"/>
      <point x="413" y="550"/>
      <point x="331" y="550" type="curve" smooth="yes"/>
      <point x="154" y="550"/>
      <point x="50" y="450"/>
      <point x="50" y="266" type="curve" smooth="yes"/>
      <point x="50" y="82"/>
      <point x="130" y="-10"/>
      <point x="290" y="-10" type="curve" smooth="yes"/>
      <point x="368" y="-10"/>
      <point x="433" y="17"/>
      <point x="476" y="71" type="curve"/>
    </contour>
    <contour>
      <point x="311" y="64" type="curve" smooth="yes"/>
      <point x="191" y="64"/>
      <point x="144" y="124"/>
      <point x="144" y="270" type="curve" smooth="yes"/>
      <point x="144" y="416"/>
      <point x="201" y="479"/>
      <point x="329" y="479" type="curve" smooth="yes"/>
      <point x="372" y="479"/>
      <point x="420" y="475"/>
      <point x="472" y="468" type="curve"/>
      <point x="472" y="189" type="line" smooth="yes"/>
      <point x="472" y="116"/>
      <point x="405" y="64"/>
    </contour>
  </outline>
</glyph>
<glyph name="r" format="1">
  <advance width="418"/>
  <unicode hex="0072"/>
  <outline>
    <contour>
      <point x="240" y="622" type="move" name="top"/>
    </contour>
    <contour>
      <point x="126" y="-33" type="move" name="bottom"/>
    </contour>
    <contour>
      <point x="80" y="0" type="line"/>
      <point x="173" y="0" type="line"/>
      <point x="173" y="397" type="line"/>
      <point x="241" y="430"/>
      <point x="313" y="457"/>
      <point x="374" y="464" type="curve"/>
      <point x="405" y="464" type="line"/>
      <point x="405" y="549" type="line"/>
      <point x="373" y="549" type="line"/>
      <point x="318" y="542"/>
      <point x="257" y="510"/>
      <point x="167" y="463" type="curve"/>
      <point x="163" y="463" type="line"/>
      <point x="157" y="540" type="line"/>
      <point x="80" y="540" type="line"/>
    </contour>
  </outline>
</glyph>
<glyph name="t" format="1">
  <advance width="422"/>
  <unicode hex="0074"/>
  <outline>
    <contour>
      <point x="391" y="666" type="move" name="caronalt"/>
    </contour>
    <contour>
      <point x="253" y="-33" type="move" name="bottom"/>
    </contour>
    <contour>
      <point x="296" y="-10" type="curve" smooth="yes"/>
      <point x="331" y="-10"/>
      <point x="369" y="-5"/>
      <point x="402" y="4" type="curve"/>
      <point x="402" y="78" type="line"/>
      <point x="373" y="69"/>
      <point x="347" y="65"/>
      <point x="325" y="65" type="curve" smooth="yes"/>
      <point x="258" y="65"/>
      <point x="228" y="97"/>
      <point x="228" y="166" type="curve" smooth="yes"/>
      <point x="228" y="459" type="line"/>
      <point x="395" y="459" type="line"/>
      <point x="395" y="540" type="line"/>
      <point x="227" y="540" type="line"/>
      <point x="227" y="684" type="line"/>
      <point x="154" y="675" type="line"/>
      <point x="140" y="540" type="line"/>
      <point x="18" y="540" type="line"/>
      <point x="18" y="459" type="line"/>
      <point x="135" y="459" type="line"/>
      <point x="135" y="146" type="line" smooth="yes"/>
      <point x="135" y="44"/>
      <point x="191" y="-10"/>
    </contour>
  </outline>
</glyph>
<glyph name="u" format="1">
  <advance width="647"/>
  <unicode hex="0075"/>
  <outline>
    <contour>
      <point x="316" y="622" type="move" name="top"/>
    </contour>
    <contour>
      <point x="467" y="16" type="move" name="ogonek"/>
    </contour>
    <contour>
      <point x="309" y="-33" type="move" name="bottom"/>
    </contour>
    <contour>
      <point x="217" y="-10" type="curve" smooth="yes"/>
      <point x="310" y="-10"/>
      <point x="354" y="14"/>
      <point x="480" y="69" type="curve"/>
      <point x="484" y="69" type="line"/>
      <point x="490" y="0" type="line"/>
      <point x="567" y="0" type="line"/>
      <point x="567" y="540" type="line"/>
      <point x="474" y="540" type="line"/>
      <point x="474" y="134" type="line"/>
      <point x="409" y="106"/>
      <point x="326" y="68"/>
      <point x="256" y="68" type="curve" smooth="yes"/>
      <point x="194" y="68"/>
      <point x="169" y="98"/>
      <point x="169" y="171" type="curve" smooth="yes"/>
      <point x="169" y="540" type="line"/>
      <point x="76" y="540" type="line"/>
      <point x="76" y="140" type="line" smooth="yes"/>
      <point x="76" y="43"/>
      <point x="124" y="-10"/>
    </contour>
  </outline>
</glyph>
<glyph name="v" format="1">
  <advance width="589"/>
  <unicode hex="0076"/>
  <outline>
    <contour>
      <point x="233" y="0" type="line"/>
      <point x="355" y="0" type="line"/>
      <point x="569" y="526" type="line"/>
      <point x="569" y="540" type="line"/>
      <point x="475" y="540" type="line"/>
      <point x="328" y="163" type="line"/>
      <point x="301" y="71" type="line"/>
      <point x="289" y="71" type="line"/>
      <point x="262" y="163" type="line"/>
      <point x="117" y="540" type="line"/>
      <point x="21" y="540" type="line"/>
      <point x="21" y="526" type="line"/>
    </contour>
  </outline>
</glyph>
<glyph name="braceleft" format="1">
  <advance width="367"/>
  <unicode hex="007B"/>
  <outline>
    <contour>
      <point x="38" y="316" type="line"/>
      <point x="85" y="316"/>
      <point x="112" y="282"/>
      <point x="112" y="214" type="curve" smooth="yes"/>
      <point x="112" y="-33" type="line" smooth="yes"/>
      <point x="112" y="-125"/>
      <point x="143" y="-160"/>
      <point x="223" y="-160" type="curve" smooth="yes"/>
      <point x="248" y="-160"/>
      <point x="317" y="-157"/>
      <point x="329" y="-155" type="curve"/>
      <point x="329" y="-93" type="line"/>
      <point x="235" y="-93" type="line" smooth="yes"/>
      <point x="203" y="-93"/>
      <point x="190" y="-80"/>
      <point x="190" y="-51" type="curve" smooth="yes"/>
      <point x="190" y="234" type="line" smooth="yes"/>
      <point x="190" y="296"/>
      <point x="160" y="347"/>
      <point x="110" y="354" type="curve"/>
      <point x="160" y="363"/>
      <point x="190" y="415"/>
      <point x="190" y="477" type="curve" smooth="yes"/>
      <point x="190" y="759" type="line" smooth="yes"/>
      <point x="190" y="788"/>
      <point x="203" y="801"/>
      <point x="235" y="801" type="curve" smooth="yes"/>
      <point x="329" y="801" type="line"/>
      <point x="329" y="863" type="line"/>
      <point x="317" y="865"/>
      <point x="246" y="868"/>
      <point x="221" y="868" type="curve" smooth="yes"/>
      <point x="141" y="868"/>
      <point x="112" y="833"/>
      <point x="112" y="741" type="curve" smooth="yes"/>
      <point x="112" y="497" type="line" smooth="yes"/>
      <point x="112" y="429"/>
      <point x="85" y="394"/>
      <point x="38" y="394" type="curve"/>
    </contour>
  </outline>
</glyph>
<glyph name="braceright" format="1">
  <advance width="367"/>
  <unicode hex="007D"/>
  <outline>
    <contour>
      <point x="329" y="394" type="line"/>
      <point x="282" y="394"/>
      <point x="256" y="429"/>
      <point x="256" y="497" type="curve" smooth="yes"/>
      <point x="256" y="741" type="line" smooth="yes"/>
      <point x="256" y="833"/>
      <point x="226" y="868"/>
      <point x="146" y="868" type="curve" smooth="yes"/>
      <point x="121" y="868"/>
      <point x="50" y="865"/>
      <point x="38" y="863" type="curve"/>
      <point x="38" y="801" type="line"/>
      <point x="133" y="801" type="line" smooth="yes"/>
      <point x="165" y="801"/>
      <point x="178" y="788"/>
      <point x="178" y="759" type="curve" smooth="yes"/>
      <point x="178" y="477" type="line" smooth="yes"/>
      <point x="178" y="415"/>
      <point x="207" y="363"/>
      <point x="257" y="354" type="curve"/>
      <point x="207" y="347"/>
      <point x="178" y="296"/>
      <point x="178" y="234" type="curve" smooth="yes"/>
      <point x="178" y="-51" type="line" smooth="yes"/>
      <point x="178" y="-80"/>
      <point x="165" y="-93"/>
      <point x="133" y="-93" type="curve" smooth="yes"/>
      <point x="38" y="-93" type="line"/>
      <point x="38" y="-155" type="line"/>
      <point x="50" y="-157"/>
      <point x="120" y="-160"/>
      <point x="145" y="-160" type="curve" smooth="yes"/>
      <point x="225" y="-160"/>
      <point x="256" y="-125"/>
      <point x="256" y="-33" type="curve" smooth="yes"/>
      <point x="256" y="214" type="line" smooth="yes"/>
      <point x="256" y="282"/>
      <point x="282" y="316"/>
      <point x="329" y="316" type="curve"/>
    </contour>
  </outline>
</glyph>
<glyph name="currency" format="1">
  <advance width="645"/>
  <unicode hex="00A4"/>
  <outline>
    <contour>
      <point x="121" y="370" type="curve" smooth="yes"/>
      <point x="121" y="260"/>
      <point x="201" y="187"/>
      <point x="323" y="187" type="curve" smooth="yes"/>
      <point x="442" y="187"/>
      <point x="523" y="260"/>
      <point x="523" y="370" type="curve" smooth="yes"/>
      <point x="523" y="479"/>
      <point x="442" y="552"/>
      <point x="322" y="552" type="curve" smooth="yes"/>
      <point x="201" y="552"/>
      <point x="121" y="479"/>
    </contour>
    <contour>
      <point x="185" y="370" type="curve" smooth="yes"/>
      <point x="185" y="450"/>
      <point x="240" y="496"/>
      <point x="323" y="496" type="curve" smooth="yes"/>
      <point x="408" y="496"/>
      <point x="459" y="447"/>
      <point x="459" y="370" type="curve" smooth="yes"/>
      <point x="459" y="288"/>
      <point x="405" y="243"/>
      <point x="323" y="243" type="curve" smooth="yes"/>
      <point x="240" y="243"/>
      <point x="185" y="289"/>
    </contour>
    <contour>
      <point x="63" y="584" type="line"/>
      <point x="118" y="531" type="line"/>
      <point x="197" y="471" type="line"/>
      <point x="221" y="494" type="line"/>
      <point x="162" y="574" type="line"/>
      <point x="108" y="629" type="line"/>
    </contour>
    <contour>
      <point x="108" y="111" type="line"/>
      <point x="162" y="166" type="line"/>
      <point x="219" y="242" type="line"/>
      <point x="194" y="266" type="line"/>
      <point x="118" y="209" type="line"/>
      <point x="63" y="156" type="line"/>
    </contour>
    <contour>
      <point x="582" y="156" type="line"/>
      <point x="527" y="209" type="line"/>
      <point x="450" y="266" type="line"/>
      <point x="426" y="242" type="line"/>
      <point x="483" y="166" type="line"/>
      <point x="537" y="111" type="line"/>
    </contour>
    <contour>
      <point x="537" y="629" type="line"/>
      <point x="483" y="574" type="line"/>
      <point x="429" y="502" type="line"/>
      <point x="450" y="474" type="line"/>
      <point x="527" y="531" type="line"/>
      <point x="582" y="584" type="line"/>
    </contour>
  </outline>
</glyph>
<glyph name="section" format="1">
  <advance width="535"/>
  <unicode hex="00A7"/>
  <outline>
    <contour>
      <point x="260" y="-11" type="curve" smooth="yes"/>
      <point x="398" y="-11"/>
      <point x="475" y="48"/>
      <point x="475" y="150" type="curve" smooth="yes"/>
      <point x="475" y="197"/>
      <point x="460" y="229"/>
      <point x="433" y="251" type="curve"/>
      <point x="461" y="278"/>
      <point x="475" y="314"/>
      <point x="475" y="358" type="curve" smooth="yes"/>
      <point x="475" y="467"/>
      <point x="397" y="499"/>
      <point x="298" y="516" type="curve" smooth="yes"/>
      <point x="218" y="530"/>
      <point x="160" y="543"/>
      <point x="160" y="608" type="curve" smooth="yes"/>
      <point x="160" y="662"/>
      <point x="203" y="690"/>
      <point x="287" y="690" type="curve" smooth="yes"/>
      <point x="329" y="690"/>
      <point x="378" y="683"/>
      <point x="450" y="667" type="curve"/>
      <point x="455" y="741" type="line"/>
      <point x="367" y="756"/>
      <point x="330" y="761"/>
      <point x="282" y="761" type="curve" smooth="yes"/>
      <point x="150" y="761"/>
      <point x="69" y="703"/>
      <point x="69" y="606" type="curve" smooth="yes"/>
      <point x="69" y="555"/>
      <point x="87" y="523"/>
      <point x="114" y="501" type="curve"/>
      <point x="86" y="476"/>
      <point x="69" y="441"/>
      <point x="69" y="398" type="curve" smooth="yes"/>
      <point x="69" y="269"/>
      <point x="175" y="254"/>
      <point x="263" y="239" type="curve" smooth="yes"/>
      <point x="333" y="227"/>
      <point x="385" y="209"/>
      <point x="385" y="145" type="curve" smooth="yes"/>
      <point x="385" y="88"/>
      <point x="341" y="57"/>
      <point x="256" y="57" type="curve" smooth="yes"/>
      <point x="199" y="57"/>
      <point x="136" y="65"/>
      <point x="62" y="82" type="curve"/>
      <point x="62" y="13" type="line"/>
      <point x="152" y="-4"/>
      <point x="209" y="-11"/>
    </contour>
    <contour>
      <point x="358" y="281" type="curve"/>
      <point x="338" y="291"/>
      <point x="305" y="299"/>
      <point x="283" y="304" type="curve" smooth="yes"/>
      <point x="215" y="319"/>
      <point x="160" y="335"/>
      <point x="160" y="404" type="curve" smooth="yes"/>
      <point x="160" y="434"/>
      <point x="171" y="456"/>
      <point x="193" y="472" type="curve"/>
      <point x="213" y="463"/>
      <point x="249" y="457"/>
      <point x="272" y="452" type="curve" smooth="yes"/>
      <point x="335" y="439"/>
      <point x="385" y="420"/>
      <point x="385" y="347" type="curve" smooth="yes"/>
      <point x="385" y="319"/>
      <point x="375" y="297"/>
    </contour>
  </outline>
</glyph>
<glyph name="ordfeminine" format="1">
  <advance width="467"/>
  <unicode hex="00AA"/>
  <outline>
    <contour>
      <point x="173" y="348" type="curve" smooth="yes"/>
      <point x="218" y="348"/>
      <point x="264" y="366"/>
      <point x="319" y="399" type="curve"/>
      <point x="323" y="399" type="line"/>
      <point x="329" y="352" type="line"/>
      <point x="396" y="352" type="line"/>
      <point x="396" y="622" type="line" smooth="yes"/>
      <point x="396" y="708"/>
      <point x="349" y="746"/>
      <point x="230" y="746" type="curve" smooth="yes"/>
      <point x="193" y="746"/>
      <point x="146" y="742"/>
      <point x="86" y="732" type="curve"/>
      <point x="94" y="673" type="line"/>
      <point x="150" y="681"/>
      <point x="188" y="683"/>
      <point x="215" y="683" type="curve" smooth="yes"/>
      <point x="295" y="683"/>
      <point x="318" y="666"/>
      <point x="318" y="605" type="curve" smooth="yes"/>
      <point x="318" y="442" type="line"/>
      <point x="262" y="418"/>
      <point x="228" y="408"/>
      <point x="196" y="408" type="curve" smooth="yes"/>
      <point x="152" y="408"/>
      <point x="128" y="427"/>
      <point x="128" y="462" type="curve" smooth="yes"/>
      <point x="128" y="503"/>
      <point x="160" y="520"/>
      <point x="263" y="526" type="curve" smooth="yes"/>
      <point x="344" y="531" type="line"/>
      <point x="338" y="582" type="line"/>
      <point x="214" y="573" type="line" smooth="yes"/>
      <point x="106" y="566"/>
      <point x="48" y="523"/>
      <point x="48" y="456" type="curve" smooth="yes"/>
      <point x="48" y="392"/>
      <point x="99" y="348"/>
    </contour>
  </outline>
</glyph>
<glyph name="degree" format="1">
  <advance width="490"/>
  <unicode hex="00B0"/>
  <outline>
    <contour>
      <point x="245" y="377" type="curve" smooth="yes"/>
      <point x="357" y="377"/>
      <point x="443" y="458"/>
      <point x="443" y="561" type="curve" smooth="yes"/>
      <point x="443" y="664"/>
      <point x="357" y="744"/>
      <point x="245" y="744" type="curve" smooth="yes"/>
      <point x="133" y="744"/>
      <point x="46" y="664"/>
      <point x="46" y="561" type="curve" smooth="yes"/>
      <point x="46" y="458"/>
      <point x="133" y="377"/>
    </contour>
    <contour>
      <point x="245" y="435" type="curve" smooth="yes"/>
      <point x="167" y="435"/>
      <point x="113" y="489"/>
      <point x="113" y="561" type="curve" smooth="yes"/>
      <point x="113" y="633"/>
      <point x="167" y="687"/>
      <point x="245" y="687" type="curve" smooth="yes"/>
      <point x="323" y="687"/>
      <point x="377" y="633"/>
      <point x="377" y="561" type="curve" smooth="yes"/>
      <point x="377" y="489"/>
      <point x="323" y="435"/>
    </contour>
  </outline>
</glyph>
<glyph name="plusminus" format="1">
  <advance width="545"/>
  <unicode hex="00B1"/>
  <outline>
    <contour>
      <point x="76" y="396" type="line"/>
      <point x="467" y="396" type="line"/>
      <point x="467" y="460" type="line"/>
      <point x="76" y="460" type="line"/>
    </contour>
    <contour>
      <point x="77" y="89" type="line"/>
      <point x="468" y="89" type="line"/>
      <point x="468" y="153" type="line"/>
      <point x="77" y="153" type="line"/>
    </contour>
    <contour>
      <point x="240" y="230" type="line"/>
      <point x="304" y="230" type="line"/>
      <point x="304" y="629" type="line"/>
      <point x="240" y="629" type="line"/>
    </contour>
  </outline>
</glyph>
<glyph name="threesuperior" format="1">
  <advance width="441"/>
  <unicode hex="00B3"/>
  <outline>
    <contour>
      <point x="186" y="292" type="curve" smooth="yes"/>
      <point x="321" y="292"/>
      <point x="394" y="349"/>
      <point x="394" y="452" type="curve" smooth="yes"/>
      <point x="394" y="517"/>
      <point x="364" y="562"/>
      <point x="309" y="581" type="curve"/>
      <point x="356" y="601"/>
      <point x="382" y="643"/>
      <point x="382" y="699" type="curve" smooth="yes"/>
      <point x="382" y="799"/>
      <point x="312" y="854"/>
      <point x="182" y="854" type="curve" smooth="yes"/>
      <point x="141" y="854"/>
      <point x="85" y="849"/>
      <point x="49" y="841" type="curve"/>
      <point x="49" y="771" type="line"/>
      <point x="55" y="771" type="line"/>
      <point x="102" y="778"/>
      <point x="147" y="782"/>
      <point x="173" y="782" type="curve" smooth="yes"/>
      <point x="261" y="782"/>
      <point x="299" y="752"/>
      <point x="299" y="693" type="curve" smooth="yes"/>
      <point x="299" y="635"/>
      <point x="261" y="606"/>
      <point x="178" y="606" type="curve" smooth="yes"/>
      <point x="115" y="606" type="line"/>
      <point x="115" y="547" type="line"/>
      <point x="179" y="547" type="line" smooth="yes"/>
      <point x="273" y="547"/>
      <point x="314" y="519"/>
      <point x="314" y="463" type="curve" smooth="yes"/>
      <point x="314" y="399"/>
      <point x="269" y="365"/>
      <point x="169" y="365" type="curve" smooth="yes"/>
      <point x="138" y="365"/>
      <point x="82" y="370"/>
      <point x="55" y="375" type="curve"/>
      <point x="49" y="375" type="line"/>
      <point x="49" y="304" type="line"/>
      <point x="85" y="297"/>
      <point x="139" y="292"/>
    </contour>
  </outline>
</glyph>
<glyph name="acute" format="1">
  <advance width="260"/>
  <unicode hex="00B4"/>
  <outline>
    <contour>
      <point x="83" y="622" type="move" name="_top"/>
    </contour>
    <contour>
      <point x="115" y="609" type="line"/>
      <point x="215" y="801" type="line"/>
      <point x="119" y="801" type="line"/>
      <point x="49" y="616" type="line"/>
    </contour>
  </outline>
</glyph>
<glyph name="paragraph" format="1">
  <advance width="639"/>
  <unicode hex="00B6"/>
  <outline>
    <contour>
      <point x="416" y="0" type="line"/>
      <point x="364" y="0" type="line"/>
      <point x="364" y="266" type="line"/>
      <point x="343" y="265"/>
      <point x="319" y="265"/>
      <point x="300" y="265" type="curve" smooth="yes"/>
      <point x="142" y="265"/>
      <point x="41" y="326"/>
      <point x="41" y="505" type="curve" smooth="yes"/>
      <point x="41" y="684"/>
      <point x="141" y="745"/>
      <point x="299" y="745" type="curve" smooth="yes"/>
      <point x="336" y="745"/>
      <point x="374" y="741"/>
      <point x="416" y="735" type="curve"/>
    </contour>
    <contour>
      <point x="536" y="0" type="line"/>
      <point x="474" y="0" type="line"/>
      <point x="474" y="735" type="line"/>
      <point x="536" y="735" type="line"/>
    </contour>
  </outline>
</glyph>
<glyph name="periodcentered" format="1">
  <advance width="253"/>
  <unicode hex="00B7"/>
  <outline>
    <contour>
      <point x="126" y="370" type="move" name="_periodcentered"/>
    </contour>
    <contour>
      <point x="126" y="312" type="curve" smooth="yes"/>
      <point x="165" y="312"/>
      <point x="186" y="330"/>
      <point x="186" y="370" type="curve" smooth="yes"/>
      <point x="186" y="411"/>
      <point x="165" y="429"/>
      <point x="126" y="429" type="curve" smooth="yes"/>
      <point x="86" y="429"/>
      <point x="66" y="411"/>
      <point x="66" y="370" type="curve" smooth="yes"/>
      <point x="66" y="329"/>
      <point x="86" y="312"/>
    </contour>
  </outline>
</glyph>
<glyph name="cedilla" format="1">
  <advance width="325"/>
  <unicode hex="00B8"/>
  <outline>
    <contour>
      <point x="186" y="-33" type="move" name="_bottom"/>
    </contour>
    <contour>
      <point x="134" y="-220" type="curve" smooth="yes"/>
      <point x="212" y="-220"/>
      <point x="258" y="-178"/>
      <point x="258" y="-106" type="curve" smooth="yes"/>
      <point x="258" y="-71"/>
      <point x="247" y="-47"/>
      <point x="200" y="23" type="curve"/>
      <point x="132" y="23" type="line"/>
      <point x="175" y="-38"/>
      <point x="188" y="-66"/>
      <point x="188" y="-99" type="curve" smooth="yes"/>
      <point x="188" y="-141"/>
      <point x="167" y="-157"/>
      <point x="112" y="-157" type="curve" smooth="yes"/>
      <point x="84" y="-157"/>
      <point x="59" y="-153"/>
      <point x="39" y="-146" type="curve"/>
      <point x="39" y="-208" type="line"/>
      <point x="70" y="-215"/>
      <point x="107" y="-220"/>
    </contour>
  </outline>
</glyph>
<glyph name="onesuperior" format="1">
  <advance width="345"/>
  <unicode hex="00B9"/>
  <outline>
    <contour>
      <point x="181" y="300" type="line"/>
      <point x="261" y="300" type="line"/>
      <point x="261" y="846" type="line"/>
      <point x="202" y="846" type="line"/>
      <point x="23" y="752" type="line"/>
      <point x="23" y="742" type="line"/>
      <point x="33" y="697" type="line"/>
      <point x="40" y="697" type="line"/>
      <point x="181" y="757" type="line"/>
    </contour>
  </outline>
</glyph>
<glyph name="Oslash" format="1">
  <advance width="792"/>
  <unicode hex="00D8"/>
  <outline>
    <contour>
      <point x="396" y="798" type="move" name="topUC"/>
    </contour>
    <contour>
      <point x="396" y="-10" type="curve" smooth="yes"/>
      <point x="613" y="-10"/>
      <point x="738" y="123"/>
      <point x="738" y="369" type="curve" smooth="yes"/>
      <point x="738" y="616"/>
      <point x="613" y="750"/>
      <point x="396" y="750" type="curve" smooth="yes"/>
      <point x="179" y="750"/>
      <point x="54" y="616"/>
      <point x="54" y="369" type="curve" smooth="yes"/>
      <point x="54" y="122"/>
      <point x="180" y="-10"/>
    </contour>
    <contour>
      <point x="396" y="69" type="curve" smooth="yes"/>
      <point x="234" y="69"/>
      <point x="150" y="169"/>
      <point x="150" y="369" type="curve" smooth="yes"/>
      <point x="150" y="571"/>
      <point x="234" y="671"/>
      <point x="396" y="671" type="curve" smooth="yes"/>
      <point x="558" y="671"/>
      <point x="643" y="570"/>
      <point x="643" y="369" type="curve" smooth="yes"/>
      <point x="643" y="170"/>
      <point x="559" y="69"/>
    </contour>
    <contour>
      <point x="44" y="0" type="line"/>
      <point x="123" y="0" type="line"/>
      <point x="745" y="740" type="line"/>
      <point x="666" y="740" type="line"/>
    </contour>
  </outline>
</glyph>
<glyph name="germandbls" format="1">
  <advance width="700"/>
  <unicode hex="00DF"/>
  <outline>
    <contour>
      <point x="452" y="-11" type="curve" smooth="yes"/>
      <point x="589" y="-11"/>
      <point x="667" y="48"/>
      <point x="667" y="150" type="curve" smooth="yes"/>
      <point x="667" y="259"/>
      <point x="588" y="291"/>
      <point x="490" y="308" type="curve" smooth="yes"/>
      <point x="409" y="322"/>
      <point x="351" y="335"/>
      <point x="351" y="399" type="curve" smooth="yes"/>
      <point x="351" y="453"/>
      <point x="395" y="482"/>
      <point x="478" y="482" type="curve"/>
      <point x="563" y="482" type="line"/>
      <point x="565" y="553" type="line"/>
      <point x="473" y="553" type="line"/>
      <point x="341" y="553"/>
      <point x="261" y="495"/>
      <point x="261" y="398" type="curve" smooth="yes"/>
      <point x="261" y="269"/>
      <point x="366" y="254"/>
      <point x="454" y="239" type="curve" smooth="yes"/>
      <point x="524" y="227"/>
      <point x="576" y="209"/>
      <point x="576" y="145" type="curve" smooth="yes"/>
      <point x="576" y="88"/>
      <point x="533" y="57"/>
      <point x="448" y="57" type="curve" smooth="yes"/>
      <point x="391" y="57"/>
      <point x="329" y="65"/>
      <point x="254" y="82" type="curve"/>
      <point x="254" y="13" type="line"/>
      <point x="343" y="-4"/>
      <point x="400" y="-11"/>
    </contour>
    <contour>
      <point x="80" y="0" type="line"/>
      <point x="173" y="0" type="line"/>
      <point x="173" y="586" type="line" smooth="yes"/>
      <point x="173" y="692"/>
      <point x="226" y="734"/>
      <point x="337" y="734" type="curve" smooth="yes"/>
      <point x="447" y="734"/>
      <point x="500" y="691"/>
      <point x="500" y="586" type="curve" smooth="yes"/>
      <point x="500" y="482" type="line"/>
      <point x="594" y="482" type="line"/>
      <point x="594" y="586" type="line" smooth="yes"/>
      <point x="594" y="741"/>
      <point x="506" y="811"/>
      <point x="336" y="811" type="curve" smooth="yes"/>
      <point x="167" y="811"/>
      <point x="80" y="744"/>
      <point x="80" y="586" type="curve" smooth="yes"/>
    </contour>
  </outline>
</glyph>
<glyph name="ae" format="1">
  <advance width="924"/>
  <unicode hex="00E6"/>
  <outline>
    <contour>
      <point x="472" y="622" type="move" name="top"/>
    </contour>
    <contour>
      <point x="662" y="-11" type="curve" smooth="yes"/>
      <point x="723" y="-11"/>
      <point x="798" y="1"/>
      <point x="857" y="21" type="curve"/>
      <point x="852" y="91" type="line"/>
      <point x="794" y="73"/>
      <point x="729" y="64"/>
      <point x="672" y="64" type="curve" smooth="yes"/>
      <point x="552" y="64"/>
      <point x="494" y="118"/>
      <point x="489" y="239" type="curve"/>
      <point x="869" y="239" type="line"/>
      <point x="873" y="254"/>
      <point x="875" y="277"/>
      <point x="875" y="308" type="curve" smooth="yes"/>
      <point x="875" y="463"/>
      <point x="798" y="547"/>
      <point x="657" y="547" type="curve" smooth="yes"/>
      <point x="565" y="547"/>
      <point x="499" y="512"/>
      <point x="461" y="450" type="curve"/>
      <point x="455" y="450" type="line"/>
      <point x="432" y="513"/>
      <point x="372" y="545"/>
      <point x="271" y="545" type="curve" smooth="yes"/>
      <point x="208" y="545"/>
      <point x="151" y="540"/>
      <point x="75" y="526" type="curve"/>
      <point x="83" y="456" type="line"/>
      <point x="150" y="469"/>
      <point x="201" y="474"/>
      <point x="251" y="474" type="curve" smooth="yes"/>
      <point x="360" y="474"/>
      <point x="395" y="446"/>
      <point x="395" y="357" type="curve" smooth="yes"/>
      <point x="395" y="316" type="line"/>
      <point x="254" y="305" type="line" smooth="yes"/>
      <point x="108" y="292"/>
      <point x="44" y="241"/>
      <point x="44" y="137" type="curve" smooth="yes"/>
      <point x="44" y="44"/>
      <point x="94" y="-5"/>
      <point x="192" y="-5" type="curve" smooth="yes"/>
      <point x="258" y="-5"/>
      <point x="333" y="19"/>
      <point x="443" y="87" type="curve"/>
      <point x="448" y="86" type="line"/>
      <point x="488" y="23"/>
      <point x="560" y="-11"/>
    </contour>
    <contour>
      <point x="227" y="64" type="curve" smooth="yes"/>
      <point x="166" y="64"/>
      <point x="138" y="89"/>
      <point x="138" y="145" type="curve" smooth="yes"/>
      <point x="138" y="215"/>
      <point x="174" y="243"/>
      <point x="282" y="253" type="curve" smooth="yes"/>
      <point x="395" y="263" type="line"/>
      <point x="395" y="124" type="line"/>
      <point x="336" y="84"/>
      <point x="276" y="64"/>
    </contour>
    <contour>
      <point x="489" y="294" type="line"/>
      <point x="495" y="417"/>
      <point x="549" y="477"/>
      <point x="654" y="477" type="curve" smooth="yes"/>
      <point x="748" y="477"/>
      <point x="787" y="425"/>
      <point x="790" y="294" type="curve"/>
    </contour>
  </outline>
</glyph>
<glyph name="oslash" format="1">
  <advance width="636"/>
  <unicode hex="00F8"/>
  <outline>
    <contour>
      <point x="325" y="622" type="move" name="top"/>
    </contour>
    <contour>
      <point x="318" y="-10" type="curve" smooth="yes"/>
      <point x="493" y="-10"/>
      <point x="584" y="93"/>
      <point x="584" y="270" type="curve" smooth="yes"/>
      <point x="584" y="447"/>
      <point x="493" y="550"/>
      <point x="318" y="550" type="curve" smooth="yes"/>
      <point x="143" y="550"/>
      <point x="53" y="446"/>
      <point x="53" y="270" type="curve" smooth="yes"/>
      <point x="53" y="94"/>
      <point x="143" y="-10"/>
    </contour>
    <contour>
      <point x="318" y="65" type="curve" smooth="yes"/>
      <point x="193" y="65"/>
      <point x="147" y="133"/>
      <point x="147" y="270" type="curve" smooth="yes"/>
      <point x="147" y="407"/>
      <point x="193" y="474"/>
      <point x="318" y="474" type="curve" smooth="yes"/>
      <point x="443" y="474"/>
      <point x="490" y="407"/>
      <point x="490" y="270" type="curve" smooth="yes"/>
      <point x="490" y="133"/>
      <point x="443" y="65"/>
    </contour>
    <contour>
      <point x="26" y="0" type="line"/>
      <point x="106" y="0" type="line"/>
      <point x="611" y="540" type="line"/>
      <point x="530" y="540" type="line"/>
    </contour>
  </outline>
</glyph>
<glyph name="gcommaaccent" format="1">
  <advance width="644"/>
  <unicode hex="0123"/>
  <outline>
    <contour>
      <point x="377" y="790" type="line"/>
      <point x="308" y="640" type="line"/>
      <point x="406" y="640" type="line"/>
      <point x="453" y="790" type="line"/>
    </contour>
    <component base="g"/>
  </outline>
</glyph>
<glyph name="Hbar" format="1">
  <advance width="826"/>
  <unicode hex="0126"/>
  <outline>
    <contour>
      <point x="9" y="545" type="line"/>
      <point x="817" y="545" type="line"/>
      <point x="817" y="600" type="line"/>
      <point x="9" y="600" type="line"/>
    </contour>
    <component base="H" xOffset="5"/>
  </outline>
</glyph>
<glyph name="hbar" format="1">
  <advance width="647"/>
  <unicode hex="0127"/>
  <outline>
    <contour>
      <point x="-19" y="644" type="line"/>
      <point x="356" y="644" type="line"/>
      <point x="356" y="704" type="line"/>
      <point x="-19" y="704" type="line"/>
    </contour>
    <component base="h"/>
  </outline>
</glyph>
<glyph name="ibreve" format="1">
  <advance width="255"/>
  <unicode hex="012D"/>
  <outline>
    <contour>
      <point x="129" y="618" type="curve" smooth="yes"/>
      <point x="251" y="618"/>
      <point x="301" y="680"/>
      <point x="301" y="775" type="curve"/>
      <point x="245" y="775" type="line"/>
      <point x="245" y="699"/>
      <point x="206" y="670"/>
      <point x="129" y="670" type="curve" smooth="yes"/>
      <point x="52" y="670"/>
      <point x="13" y="699"/>
      <point x="13" y="775" type="curve"/>
      <point x="-44" y="775" type="line"/>
      <point x="-44" y="680"/>
      <point x="8" y="618"/>
    </contour>
    <component base="dotlessi"/>
  </outline>
</glyph>
<glyph name="dotlessi" format="1">
  <advance width="255"/>
  <unicode hex="0131"/>
  <outline>
    <contour>
      <point x="128" y="622" type="move" name="top"/>
    </contour>
    <contour>
      <point x="81" y="0" type="line"/>
      <point x="174" y="0" type="line"/>
      <point x="174" y="540" type="line"/>
      <point x="81" y="540" type="line"/>
    </contour>
  </outline>
</glyph>
<glyph name="jcircumflex" format="1">
  <advance width="251"/>
  <unicode hex="0135"/>
  <outline>
    <contour>
      <point x="-45" y="634" type="line"/>
      <point x="125" y="709" type="line"/>
      <point x="295" y="634" type="line"/>
      <point x="295" y="707" type="line"/>
      <point x="124" y="782" type="line"/>
      <point x="-45" y="707" type="line"/>
    </contour>
    <component base="dotlessj"/>
  </outline>
</glyph>
<glyph name="kgreenlandic" format="1">
  <advance width="593"/>
  <unicode hex="0138"/>
  <outline>
    <contour>
      <point x="80" y="0" type="line"/>
      <point x="173" y="0" type="line"/>
      <point x="173" y="246" type="line"/>
      <point x="309" y="246" type="line"/>
      <point x="484" y="0" type="line"/>
      <point x="588" y="0" type="line"/>
      <point x="394" y="266" type="line"/>
      <point x="374" y="275" type="line"/>
      <point x="374" y="279" type="line"/>
      <point x="393" y="287" type="line"/>
      <point x="571" y="540" type="line"/>
      <point x="467" y="540" type="line"/>
      <point x="311" y="309" type="line"/>
      <point x="173" y="309" type="line"/>
      <point x="173" y="540" type="line"/>
      <point x="80" y="540" type="line"/>
    </contour>
  </outline>
</glyph>
<glyph name="lslash" format="1">
  <advance width="331"/>
  <unicode hex="0142"/>
  <outline>
    <contour>
      <point x="26" y="263" type="line"/>
      <point x="314" y="421" type="line"/>
      <point x="314" y="497" type="line"/>
      <point x="26" y="340" type="line"/>
    </contour>
    <component base="l" xOffset="40"/>
  </outline>
</glyph>
<glyph name="tcaron" format="1">
  <advance width="414"/>
  <unicode hex="0165"/>
  <outline>
    <contour>
      <point x="296" y="-10" type="curve" smooth="yes"/>
      <point x="331" y="-10"/>
      <point x="369" y="-5"/>
      <point x="402" y="4" type="curve"/>
      <point x="402" y="78" type="line"/>
      <point x="373" y="69"/>
      <point x="347" y="65"/>
      <point x="325" y="65" type="curve" smooth="yes"/>
      <point x="258" y="65"/>
      <point x="228" y="97"/>
      <point x="228" y="166" type="curve" smooth="yes"/>
      <point x="228" y="459" type="line"/>
      <point x="346" y="459" type="line"/>
      <point x="346" y="540" type="line"/>
      <point x="227" y="540" type="line"/>
      <point x="227" y="684" type="line"/>
      <point x="154" y="675" type="line"/>
      <point x="140" y="540" type="line"/>
      <point x="18" y="540" type="line"/>
      <point x="18" y="459" type="line"/>
      <point x="135" y="459" type="line"/>
      <point x="135" y="146" type="line" smooth="yes"/>
      <point x="135" y="44"/>
      <point x="191" y="-10"/>
    </contour>
    <component base="caron.alt" xOffset="257"/>
  </outline>
</glyph>
<glyph name="Schwa" format="1">
  <advance width="728"/>
  <unicode hex="018F"/>
  <outline>
    <contour>
      <point x="582" y="375" type="curve" smooth="yes"/>
      <point x="582" y="162"/>
      <point x="511" y="68"/>
      <point x="351" y="68" type="curve" smooth="yes"/>
      <point x="190" y="68"/>
      <point x="124" y="180"/>
      <point x="141" y="370" type="curve"/>
      <point x="115" y="346" type="line"/>
      <point x="628" y="346" type="line"/>
      <point x="628" y="416" type="line"/>
      <point x="55" y="416" type="line"/>
      <point x="51" y="389"/>
      <point x="49" y="360"/>
      <point x="49" y="329" type="curve" smooth="yes"/>
      <point x="49" y="111"/>
      <point x="162" y="-10"/>
      <point x="352" y="-10" type="curve" smooth="yes"/>
      <point x="560" y="-10"/>
      <point x="673" y="133"/>
      <point x="673" y="383" type="curve" smooth="yes"/>
      <point x="673" y="629"/>
      <point x="563" y="750"/>
      <point x="344" y="750" type="curve" smooth="yes"/>
      <point x="263" y="750"/>
      <point x="144" y="733"/>
      <point x="77" y="708" type="curve"/>
      <point x="82" y="629" type="line"/>
      <point x="183" y="655"/>
      <point x="269" y="666"/>
      <point x="339" y="666" type="curve" smooth="yes"/>
      <point x="515" y="666"/>
      <point x="582" y="586"/>
    </contour>
  </outline>
</glyph>
<glyph name="florin" format="1">
  <advance width="443"/>
  <unicode hex="0192"/>
  <outline>
    <contour>
      <point x="161" y="-220" type="line"/>
      <point x="253" y="-179" type="line"/>
      <point x="253" y="459" type="line"/>
      <point x="411" y="459" type="line"/>
      <point x="411" y="540" type="line"/>
      <point x="253" y="540" type="line"/>
      <point x="253" y="589" type="line" smooth="yes"/>
      <point x="256" y="714"/>
      <point x="287" y="737"/>
      <point x="438" y="746" type="curve"/>
      <point x="433" y="814" type="line"/>
      <point x="218" y="808"/>
      <point x="162" y="760"/>
      <point x="162" y="563" type="curve" smooth="yes"/>
      <point x="162" y="540" type="line"/>
      <point x="31" y="540" type="line"/>
      <point x="31" y="459" type="line"/>
      <point x="161" y="459" type="line"/>
    </contour>
  </outline>
</glyph>
<glyph name="Aringacute" format="1">
  <advance width="725"/>
  <unicode hex="01FA"/>
  <outline>
    <contour>
      <point x="8" y="0" type="line"/>
      <point x="101" y="0" type="line"/>
      <point x="185" y="217" type="line"/>
      <point x="540" y="217" type="line"/>
      <point x="624" y="0" type="line"/>
      <point x="717" y="0" type="line"/>
      <point x="717" y="7" type="line"/>
      <point x="463" y="667" type="line"/>
      <point x="492" y="687"/>
      <point x="511" y="719"/>
      <point x="511" y="756" type="curve" smooth="yes"/>
      <point x="511" y="811"/>
      <point x="472" y="855"/>
      <point x="414" y="870" type="curve"/>
      <point x="488" y="981" type="line"/>
      <point x="391" y="981" type="line"/>
      <point x="330" y="875" type="line"/>
      <point x="260" y="864"/>
      <point x="212" y="818"/>
      <point x="212" y="756" type="curve" smooth="yes"/>
      <point x="212" y="718"/>
      <point x="231" y="687"/>
      <point x="262" y="668" type="curve"/>
      <point x="8" y="7" type="line"/>
    </contour>
    <contour>
      <point x="362" y="689" type="curve" smooth="yes"/>
      <point x="310" y="689"/>
      <point x="277" y="715"/>
      <point x="277" y="756" type="curve" smooth="yes"/>
      <point x="277" y="798"/>
      <point x="310" y="824"/>
      <point x="362" y="824" type="curve" smooth="yes"/>
      <point x="413" y="824"/>
      <point x="447" y="798"/>
      <point x="447" y="756" type="curve" smooth="yes"/>
      <point x="447" y="715"/>
      <point x="413" y="689"/>
    </contour>
    <contour>
      <point x="212" y="297" type="line"/>
      <point x="304" y="539" type="line"/>
      <point x="340" y="631" type="line"/>
      <point x="384" y="631" type="line"/>
      <point x="419" y="539" type="line"/>
      <point x="512" y="297" type="line"/>
    </contour>
  </outline>
</glyph>
<glyph name="schwa" format="1">
  <advance width="575"/>
  <unicode hex="0259"/>
  <outline>
    <contour>
      <point x="260" y="549" type="curve" smooth="yes"/>
      <point x="199" y="549"/>
      <point x="124" y="536"/>
      <point x="67" y="517" type="curve"/>
      <point x="72" y="447" type="line"/>
      <point x="143" y="466"/>
      <point x="197" y="473"/>
      <point x="251" y="473" type="curve" smooth="yes"/>
      <point x="384" y="473"/>
      <point x="435" y="416"/>
      <point x="435" y="274" type="curve" smooth="yes"/>
      <point x="435" y="131"/>
      <point x="385" y="64"/>
      <point x="269" y="64" type="curve" smooth="yes"/>
      <point x="168" y="64"/>
      <point x="133" y="118"/>
      <point x="133" y="263" type="curve"/>
      <point x="108" y="242" type="line"/>
      <point x="486" y="242" type="line"/>
      <point x="486" y="304" type="line"/>
      <point x="54" y="304" type="line"/>
      <point x="51" y="288"/>
      <point x="49" y="270"/>
      <point x="49" y="240" type="curve" smooth="yes"/>
      <point x="49" y="75"/>
      <point x="118" y="-9"/>
      <point x="265" y="-9" type="curve" smooth="yes"/>
      <point x="434" y="-9"/>
      <point x="525" y="91"/>
      <point x="525" y="278" type="curve" smooth="yes"/>
      <point x="525" y="456"/>
      <point x="434" y="549"/>
    </contour>
  </outline>
</glyph>
<glyph name="caron" format="1">
  <advance width="451"/>
  <unicode hex="02C7"/>
  <outline>
    <contour>
      <point x="224" y="622" type="move" name="_top"/>
    </contour>
    <contour>
      <point x="48" y="691" type="line"/>
      <point x="224" y="616" type="line"/>
      <point x="401" y="691" type="line"/>
      <point x="401" y="764" type="line"/>
      <point x="224" y="689" type="line"/>
      <point x="48" y="764" type="line"/>
    </contour>
  </outline>
</glyph>
<glyph name="ogonek" format="1">
  <advance width="313"/>
  <unicode hex="02DB"/>
  <outline>
    <contour>
      <point x="221" y="16" type="move" name="_ogonek"/>
    </contour>
    <contour>
      <point x="171" y="-220" type="curve" smooth="yes"/>
      <point x="200" y="-220"/>
      <point x="229" y="-216"/>
      <point x="249" y="-208" type="curve"/>
      <point x="249" y="-153" type="line"/>
      <point x="223" y="-160"/>
      <point x="191" y="-164"/>
      <point x="171" y="-164" type="curve" smooth="yes"/>
      <point x="140" y="-164"/>
      <point x="126" y="-154"/>
      <point x="126" y="-132" type="curve" smooth="yes"/>
      <point x="126" y="-96"/>
      <point x="163" y="-61"/>
      <point x="250" y="-18" type="curve"/>
      <point x="250" y="0" type="line"/>
      <point x="173" y="0" type="line"/>
      <point x="91" y="-49"/>
      <point x="60" y="-87"/>
      <point x="60" y="-137" type="curve" smooth="yes"/>
      <point x="60" y="-193"/>
      <point x="96" y="-220"/>
    </contour>
  </outline>
</glyph>
<glyph name="tilde" format="1">
  <advance width="533"/>
  <unicode hex="02DC"/>
  <outline>
    <contour>
      <point x="261" y="622" type="move" name="_top"/>
    </contour>
    <contour>
      <point x="65" y="653" type="line"/>
      <point x="98" y="680"/>
      <point x="128" y="690"/>
      <point x="160" y="690" type="curve" smooth="yes"/>
      <point x="219" y="690"/>
      <point x="278" y="649"/>
      <point x="340" y="649" type="curve" smooth="yes"/>
      <point x="389" y="649"/>
      <point x="441" y="677"/>
      <point x="481" y="727" type="curve"/>
      <point x="457" y="755" type="line"/>
      <point x="422" y="729"/>
      <point x="391" y="718"/>
      <point x="357" y="718" type="curve" smooth="yes"/>
      <point x="293" y="718"/>
      <point x="244" y="759"/>
      <point x="175" y="759" type="curve" smooth="yes"/>
      <point x="130" y="759"/>
      <point x="82" y="734"/>
      <point x="41" y="681" type="curve"/>
    </contour>
  </outline>
</glyph>
<glyph name="hungarumlaut" format="1">
  <advance width="453"/>
  <unicode hex="02DD"/>
  <outline>
    <contour>
      <point x="184" y="622" type="move" name="_top"/>
    </contour>
    <contour>
      <point x="118" y="616" type="line"/>
      <point x="220" y="808" type="line"/>
      <point x="121" y="808" type="line"/>
      <point x="51" y="626" type="line"/>
    </contour>
    <contour>
      <point x="314" y="616" type="line"/>
      <point x="415" y="808" type="line"/>
      <point x="317" y="808" type="line"/>
      <point x="247" y="626" type="line"/>
    </contour>
  </outline>
</glyph>
<glyph name="uni030F" format="1">
  <advance width="462"/>
  <unicode hex="030F"/>
  <outline>
    <contour>
      <point x="267" y="622" type="move" name="_top"/>
    </contour>
    <contour>
      <point x="206" y="626" type="line"/>
      <point x="136" y="808" type="line"/>
      <point x="37" y="808" type="line"/>
      <point x="139" y="616" type="line"/>
    </contour>
    <contour>
      <point x="402" y="626" type="line"/>
      <point x="332" y="808" type="line"/>
      <point x="233" y="808" type="line"/>
      <point x="335" y="616" type="line"/>
    </contour>
  </outline>
</glyph>
<glyph name="uni0311" format="1">
  <advance width="509"/>
  <unicode hex="0311"/>
  <outline>
    <contour>
      <point x="249" y="622" type="move" name="_top"/>
    </contour>
    <contour>
      <point x="55" y="628" type="curve"/>
      <point x="124" y="628" type="line"/>
      <point x="124" y="704"/>
      <point x="166" y="733"/>
      <point x="249" y="733" type="curve" smooth="yes"/>
      <point x="332" y="733"/>
      <point x="374" y="704"/>
      <point x="374" y="628" type="curve"/>
      <point x="443" y="628" type="line"/>
      <point x="443" y="723"/>
      <point x="387" y="785"/>
      <point x="249" y="785" type="curve" smooth="yes"/>
      <point x="111" y="785"/>
      <point x="55" y="723"/>
    </contour>
  </outline>
</glyph>
<glyph name="endash" format="1">
  <advance width="652"/>
  <unicode hex="2013"/>
  <outline>
    <contour>
      <point x="71" y="242" type="line"/>
      <point x="581" y="242" type="line"/>
      <point x="581" y="318" type="line"/>
      <point x="71" y="318" type="line"/>
    </contour>
  </outline>
</glyph>
<glyph name="emdash" format="1">
  <advance width="823"/>
  <unicode hex="2014"/>
  <outline>
    <contour>
      <point x="71" y="242" type="line"/>
      <point x="752" y="242" type="line"/>
      <point x="752" y="318" type="line"/>
      <point x="71" y="318" type="line"/>
    </contour>
  </outline>
</glyph>
<glyph name="dagger" format="1">
  <advance width="567"/>
  <unicode hex="2020"/>
  <outline>
    <contour>
      <point x="261" y="65" type="line"/>
      <point x="307" y="65" type="line"/>
      <point x="324" y="265" type="line"/>
      <point x="324" y="345" type="line"/>
      <point x="307" y="514" type="line"/>
      <point x="472" y="502" type="line"/>
      <point x="533" y="502" type="line"/>
      <point x="533" y="572" type="line"/>
      <point x="472" y="572" type="line"/>
      <point x="307" y="560" type="line"/>
      <point x="324" y="729" type="line"/>
      <point x="324" y="808" type="line"/>
      <point x="242" y="808" type="line"/>
      <point x="242" y="729" type="line"/>
      <point x="260" y="560" type="line"/>
      <point x="95" y="572" type="line"/>
      <point x="34" y="572" type="line"/>
      <point x="34" y="502" type="line"/>
      <point x="95" y="502" type="line"/>
      <point x="260" y="514" type="line"/>
      <point x="243" y="345" type="line"/>
      <point x="243" y="265" type="line"/>
    </contour>
  </outline>
</glyph>
<glyph name="guilsinglleft" format="1">
  <advance width="388"/>
  <unicode hex="2039"/>
  <outline>
    <contour>
      <point x="242" y="30" type="line"/>
      <point x="341" y="30" type="line"/>
      <point x="133" y="268" type="line"/>
      <point x="133" y="272" type="line"/>
      <point x="341" y="510" type="line"/>
      <point x="242" y="510" type="line"/>
      <point x="34" y="272" type="line"/>
      <point x="34" y="268" type="line"/>
    </contour>
  </outline>
</glyph>
<glyph name="zerosuperior" format="1">
  <advance width="546"/>
  <unicode hex="2070"/>
  <outline>
    <contour>
      <point x="273" y="293" type="curve"/>
      <point x="419" y="293"/>
      <point x="499" y="387"/>
      <point x="499" y="573" type="curve" smooth="yes"/>
      <point x="499" y="758"/>
      <point x="419" y="854"/>
      <point x="273" y="854" type="curve" smooth="yes"/>
      <point x="127" y="854"/>
      <point x="47" y="758"/>
      <point x="47" y="573" type="curve" smooth="yes"/>
      <point x="47" y="387"/>
      <point x="127" y="293"/>
    </contour>
    <contour>
      <point x="273" y="364" type="curve" smooth="yes"/>
      <point x="176" y="364"/>
      <point x="128" y="431"/>
      <point x="128" y="573" type="curve" smooth="yes"/>
      <point x="128" y="714"/>
      <point x="176" y="782"/>
      <point x="273" y="782" type="curve" smooth="yes"/>
      <point x="369" y="782"/>
      <point x="418" y="714"/>
      <point x="418" y="573" type="curve" smooth="yes"/>
      <point x="418" y="431"/>
      <point x="369" y="364"/>
    </contour>
  </outline>
</glyph>
<glyph name="fivesuperior" format="1">
  <advance width="448"/>
  <unicode hex="2075"/>
  <outline>
    <contour>
      <point x="179" y="292" type="curve" smooth="yes"/>
      <point x="312" y="292"/>
      <point x="408" y="336"/>
      <point x="408" y="464" type="curve" smooth="yes"/>
      <point x="408" y="582"/>
      <point x="330" y="622"/>
      <point x="134" y="624" type="curve"/>
      <point x="144" y="776" type="line"/>
      <point x="382" y="776" type="line"/>
      <point x="382" y="846" type="line"/>
      <point x="81" y="846" type="line"/>
      <point x="59" y="574" type="line"/>
      <point x="71" y="564" type="line"/>
      <point x="147" y="562" type="line" smooth="yes"/>
      <point x="270" y="560"/>
      <point x="324" y="535"/>
      <point x="324" y="465" type="curve" smooth="yes"/>
      <point x="324" y="389"/>
      <point x="273" y="362"/>
      <point x="170" y="362" type="curve" smooth="yes"/>
      <point x="136" y="362"/>
      <point x="101" y="366"/>
      <point x="63" y="373" type="curve"/>
      <point x="45" y="373" type="line"/>
      <point x="45" y="304" type="line"/>
      <point x="90" y="297"/>
      <point x="138" y="292"/>
    </contour>
  </outline>
</glyph>
<glyph name="sevensuperior" format="1">
  <advance width="404"/>
  <unicode hex="2077"/>
  <outline>
    <contour>
      <point x="154" y="287" type="line"/>
      <point x="99" y="298" type="line"/>
      <point x="94" y="317" type="line"/>
      <point x="316" y="807" type="line"/>
      <point x="322" y="771" type="line"/>
      <point x="29" y="771" type="line"/>
      <point x="25" y="829" type="line"/>
      <point x="33" y="839" type="line"/>
      <point x="367" y="839" type="line"/>
      <point x="382" y="803" type="line"/>
      <point x="382" y="776" type="line"/>
      <point x="175" y="298" type="line"/>
    </contour>
  </outline>
</glyph>
<glyph name="eightsuperior" format="1">
  <advance width="513"/>
  <unicode hex="2078"/>
  <outline>
    <contour>
      <point x="258" y="296" type="curve" smooth="yes"/>
      <point x="390" y="296"/>
      <point x="468" y="347"/>
      <point x="468" y="448" type="curve" smooth="yes"/>
      <point x="468" y="517"/>
      <point x="426" y="554"/>
      <point x="371" y="579" type="curve"/>
      <point x="409" y="601"/>
      <point x="448" y="639"/>
      <point x="448" y="708" type="curve" smooth="yes"/>
      <point x="448" y="806"/>
      <point x="371" y="854"/>
      <point x="258" y="854" type="curve" smooth="yes"/>
      <point x="141" y="854"/>
      <point x="62" y="806"/>
      <point x="62" y="708" type="curve" smooth="yes"/>
      <point x="62" y="648"/>
      <point x="92" y="611"/>
      <point x="136" y="587" type="curve"/>
      <point x="92" y="565"/>
      <point x="46" y="523"/>
      <point x="46" y="446" type="curve" smooth="yes"/>
      <point x="46" y="343"/>
      <point x="124" y="296"/>
    </contour>
    <contour>
      <point x="258" y="359" type="curve" smooth="yes"/>
      <point x="179" y="359"/>
      <point x="128" y="389"/>
      <point x="128" y="453" type="curve" smooth="yes"/>
      <point x="128" y="522"/>
      <point x="188" y="550"/>
      <point x="212" y="561" type="curve"/>
      <point x="223" y="557"/>
      <point x="239" y="553"/>
      <point x="250" y="549" type="curve" smooth="yes"/>
      <point x="326" y="529"/>
      <point x="386" y="510"/>
      <point x="386" y="450" type="curve" smooth="yes"/>
      <point x="386" y="389"/>
      <point x="336" y="359"/>
    </contour>
    <contour>
      <point x="290" y="600" type="curve"/>
      <point x="286" y="601"/>
      <point x="277" y="603"/>
      <point x="273" y="605" type="curve" smooth="yes"/>
      <point x="204" y="623"/>
      <point x="144" y="643"/>
      <point x="144" y="707" type="curve" smooth="yes"/>
      <point x="144" y="764"/>
      <point x="192" y="791"/>
      <point x="258" y="791" type="curve" smooth="yes"/>
      <point x="320" y="791"/>
      <point x="366" y="764"/>
      <point x="366" y="706" type="curve" smooth="yes"/>
      <point x="366" y="643"/>
      <point x="312" y="611"/>
    </contour>
  </outline>
</glyph>
<glyph name="ninesuperior" format="1">
  <advance width="513"/>
  <unicode hex="2079"/>
  <outline>
    <contour>
      <point x="187" y="293" type="curve" smooth="yes"/>
      <point x="367" y="293"/>
      <point x="466" y="404"/>
      <point x="466" y="604" type="curve" smooth="yes"/>
      <point x="466" y="768"/>
      <point x="391" y="854"/>
      <point x="246" y="854" type="curve" smooth="yes"/>
      <point x="120" y="854"/>
      <point x="38" y="781"/>
      <point x="38" y="668" type="curve" smooth="yes"/>
      <point x="38" y="568"/>
      <point x="113" y="505"/>
      <point x="230" y="505" type="curve" smooth="yes"/>
      <point x="280" y="505"/>
      <point x="338" y="524"/>
      <point x="384" y="557" type="curve"/>
      <point x="369" y="431"/>
      <point x="301" y="360"/>
      <point x="185" y="360" type="curve" smooth="yes"/>
      <point x="156" y="360"/>
      <point x="131" y="364"/>
      <point x="83" y="373" type="curve"/>
      <point x="74" y="306" type="line"/>
      <point x="119" y="297"/>
      <point x="154" y="293"/>
    </contour>
    <contour>
      <point x="247" y="567" type="curve" smooth="yes"/>
      <point x="166" y="567"/>
      <point x="121" y="604"/>
      <point x="121" y="669" type="curve" smooth="yes"/>
      <point x="121" y="742"/>
      <point x="169" y="788"/>
      <point x="246" y="788" type="curve" smooth="yes"/>
      <point x="336" y="788"/>
      <point x="382" y="732"/>
      <point x="384" y="617" type="curve"/>
      <point x="345" y="587"/>
      <point x="291" y="567"/>
    </contour>
  </outline>
</glyph>
<glyph name="zeroinferior" format="1">
  <advance width="546"/>
  <unicode hex="2080"/>
  <outline>
    <contour>
      <point x="273" y="-107" type="curve"/>
      <point x="419" y="-107"/>
      <point x="499" y="-13"/>
      <point x="499" y="173" type="curve" smooth="yes"/>
      <point x="499" y="358"/>
      <point x="419" y="454"/>
      <point x="273" y="454" type="curve" smooth="yes"/>
      <point x="127" y="454"/>
      <point x="47" y="358"/>
      <point x="47" y="173" type="curve" smooth="yes"/>
      <point x="47" y="-13"/>
      <point x="127" y="-107"/>
    </contour>
    <contour>
      <point x="273" y="-36" type="curve" smooth="yes"/>
      <point x="176" y="-36"/>
      <point x="128" y="31"/>
      <point x="128" y="173" type="curve" smooth="yes"/>
      <point x="128" y="314"/>
      <point x="176" y="382"/>
      <point x="273" y="382" type="curve" smooth="yes"/>
      <point x="369" y="382"/>
      <point x="418" y="314"/>
      <point x="418" y="173" type="curve" smooth="yes"/>
      <point x="418" y="31"/>
      <point x="369" y="-36"/>
    </contour>
  </outline>
</glyph>
<glyph name="threeinferior" format="1">
  <advance width="441"/>
  <unicode hex="2083"/>
  <outline>
    <contour>
      <point x="186" y="-108" type="curve" smooth="yes"/>
      <point x="321" y="-108"/>
      <point x="394" y="-51"/>
      <point x="394" y="52" type="curve" smooth="yes"/>
      <point x="394" y="117"/>
      <point x="364" y="162"/>
      <point x="309" y="181" type="curve"/>
      <point x="356" y="201"/>
      <point x="382" y="243"/>
      <point x="382" y="299" type="curve" smooth="yes"/>
      <point x="382" y="399"/>
      <point x="312" y="454"/>
      <point x="182" y="454" type="curve" smooth="yes"/>
      <point x="141" y="454"/>
      <point x="85" y="449"/>
      <point x="49" y="441" type="curve"/>
      <point x="49" y="371" type="line"/>
      <point x="55" y="371" type="line"/>
      <point x="102" y="378"/>
      <point x="147" y="382"/>
      <point x="173" y="382" type="curve" smooth="yes"/>
      <point x="261" y="382"/>
      <point x="299" y="352"/>
      <point x="299" y="293" type="curve" smooth="yes"/>
      <point x="299" y="235"/>
      <point x="261" y="206"/>
      <point x="178" y="206" type="curve" smooth="yes"/>
      <point x="115" y="206" type="line"/>
      <point x="115" y="147" type="line"/>
      <point x="179" y="147" type="line" smooth="yes"/>
      <point x="273" y="147"/>
      <point x="314" y="119"/>
      <point x="314" y="63" type="curve" smooth="yes"/>
      <point x="314" y="-2"/>
      <point x="269" y="-35"/>
      <point x="169" y="-35" type="curve" smooth="yes"/>
      <point x="138" y="-35"/>
      <point x="82" y="-30"/>
      <point x="55" y="-25" type="curve"/>
      <point x="49" y="-25" type="line"/>
      <point x="49" y="-96" type="line"/>
      <point x="85" y="-103"/>
      <point x="139" y="-108"/>
    </contour>
  </outline>
</glyph>
<glyph name="fourinferior" format="1">
  <advance width="498"/>
  <unicode hex="2084"/>
  <outline>
    <contour>
      <point x="299" y="-100" type="line"/>
      <point x="379" y="-100" type="line"/>
      <point x="379" y="24" type="line"/>
      <point x="471" y="24" type="line"/>
      <point x="471" y="91" type="line"/>
      <point x="379" y="91" type="line"/>
      <point x="379" y="265" type="line"/>
      <point x="322" y="265" type="line"/>
      <point x="302" y="91" type="line"/>
      <point x="112" y="91" type="line"/>
      <point x="292" y="428" type="line"/>
      <point x="287" y="444" type="line"/>
      <point x="222" y="453" type="line"/>
      <point x="213" y="452" type="line"/>
      <point x="22" y="75" type="line"/>
      <point x="38" y="24" type="line"/>
      <point x="299" y="24" type="line"/>
    </contour>
  </outline>
</glyph>
<glyph name="colonmonetary" format="1">
  <advance width="636"/>
  <unicode hex="20A1"/>
  <outline>
    <contour>
      <point x="201" y="-52" type="line"/>
      <point x="263" y="-52" type="line"/>
      <point x="531" y="808" type="line"/>
      <point x="469" y="808" type="line"/>
    </contour>
    <component base="C" xOffset="1"/>
  </outline>
</glyph>
<glyph name="franc" format="1">
  <advance width="693"/>
  <unicode hex="20A3"/>
  <outline>
    <contour>
      <point x="149" y="0" type="line"/>
      <point x="244" y="0" type="line"/>
      <point x="244" y="663" type="line"/>
      <point x="648" y="663" type="line"/>
      <point x="648" y="740" type="line"/>
      <point x="149" y="740" type="line"/>
    </contour>
    <contour>
      <point x="35" y="125" type="line"/>
      <point x="372" y="125" type="line"/>
      <point x="372" y="189" type="line"/>
      <point x="35" y="189" type="line"/>
    </contour>
    <contour>
      <point x="199" y="337" type="line"/>
      <point x="610" y="337" type="line"/>
      <point x="610" y="414" type="line"/>
      <point x="199" y="414" type="line"/>
    </contour>
  </outline>
</glyph>
<glyph name="lira" format="1">
  <advance width="690"/>
  <unicode hex="20A4"/>
  <outline>
    <contour>
      <point x="63" y="0" type="line"/>
      <point x="625" y="0" type="line"/>
      <point x="625" y="83" type="line"/>
      <point x="324" y="83" type="line"/>
      <point x="324" y="521" type="line" smooth="yes"/>
      <point x="324" y="624"/>
      <point x="363" y="665"/>
      <point x="474" y="665" type="curve" smooth="yes"/>
      <point x="516" y="665"/>
      <point x="569" y="657"/>
      <point x="630" y="641" type="curve"/>
      <point x="638" y="718" type="line"/>
      <point x="571" y="738"/>
      <point x="517" y="746"/>
      <point x="465" y="746" type="curve" smooth="yes"/>
      <point x="300" y="746"/>
      <point x="229" y="673"/>
      <point x="229" y="521" type="curve" smooth="yes"/>
      <point x="229" y="83" type="line"/>
      <point x="63" y="83" type="line"/>
    </contour>
    <contour>
      <point x="63" y="257" type="line"/>
      <point x="537" y="257" type="line"/>
      <point x="543" y="314" type="line"/>
      <point x="63" y="314" type="line"/>
    </contour>
    <contour>
      <point x="63" y="419" type="line"/>
      <point x="545" y="419" type="line"/>
      <point x="551" y="476" type="line"/>
      <point x="63" y="476" type="line"/>
    </contour>
  </outline>
</glyph>
<glyph name="uni20A6" format="1">
  <advance width="910"/>
  <unicode hex="20A6"/>
  <outline>
    <contour>
      <point x="53" y="243" type="line"/>
      <point x="859" y="243" type="line"/>
      <point x="859" y="298" type="line"/>
      <point x="53" y="298" type="line"/>
    </contour>
    <contour>
      <point x="53" y="440" type="line"/>
      <point x="859" y="440" type="line"/>
      <point x="859" y="495" type="line"/>
      <point x="53" y="495" type="line"/>
    </contour>
    <component base="N" xOffset="41"/>
  </outline>
</glyph>
<glyph name="uni20A9" format="1">
  <advance width="1139"/>
  <unicode hex="20A9"/>
  <outline>
    <contour>
      <point x="58" y="241" type="line"/>
      <point x="1080" y="241" type="line"/>
      <point x="1080" y="296" type="line"/>
      <point x="58" y="296" type="line"/>
    </contour>
    <contour>
      <point x="58" y="437" type="line"/>
      <point x="1080" y="437" type="line"/>
      <point x="1080" y="492" type="line"/>
      <point x="58" y="492" type="line"/>
    </contour>
    <component base="W" xOffset="40"/>
  </outline>
</glyph>
<glyph name="Euro" format="1">
  <advance width="672"/>
  <unicode hex="20AC"/>
  <outline>
    <contour>
      <point x="521" y="-10" type="curve" smooth="yes"/>
      <point x="562" y="-10"/>
      <point x="594" y="-8"/>
      <point x="614" y="-3" type="curve"/>
      <point x="614" y="79" type="line"/>
      <point x="582" y="74"/>
      <point x="553" y="72"/>
      <point x="530" y="72" type="curve" smooth="yes"/>
      <point x="301" y="72"/>
      <point x="227" y="153"/>
      <point x="227" y="370" type="curve" smooth="yes"/>
      <point x="227" y="594"/>
      <point x="298" y="667"/>
      <point x="533" y="667" type="curve" smooth="yes"/>
      <point x="559" y="667"/>
      <point x="585" y="664"/>
      <point x="597" y="662" type="curve"/>
      <point x="628" y="741" type="line"/>
      <point x="600" y="744"/>
      <point x="567" y="749"/>
      <point x="514" y="749" type="curve" smooth="yes"/>
      <point x="242" y="749"/>
      <point x="132" y="636"/>
      <point x="132" y="369" type="curve" smooth="yes"/>
      <point x="132" y="109"/>
      <point x="246" y="-8"/>
    </contour>
    <contour>
      <point x="46" y="256" type="line"/>
      <point x="485" y="256" type="line"/>
      <point x="502" y="316" type="line"/>
      <point x="46" y="316" type="line"/>
    </contour>
    <contour>
      <point x="46" y="424" type="line"/>
      <point x="524" y="424" type="line"/>
      <point x="541" y="484" type="line"/>
      <point x="46" y="484" type="line"/>
    </contour>
  </outline>
</glyph>
<glyph name="uni20BA" format="1">
  <advance width="713"/>
  <unicode hex="20BA"/>
  <outline>
    <contour>
      <point x="51" y="416" type="line"/>
      <point x="539" y="516" type="line"/>
      <point x="539" y="577" type="line"/>
      <point x="51" y="477" type="line"/>
    </contour>
    <contour>
      <point x="51" y="247" type="line"/>
      <point x="539" y="347" type="line"/>
      <point x="539" y="408" type="line"/>
      <point x="51" y="308" type="line"/>
    </contour>
    <contour>
      <point x="215" y="0" type="line"/>
      <point x="455" y="0" type="line" smooth="yes"/>
      <point x="601" y="0"/>
      <point x="675" y="86"/>
      <point x="675" y="270" type="curve"/>
      <point x="572" y="270" type="line"/>
      <point x="572" y="147"/>
      <point x="543" y="86"/>
      <point x="455" y="86" type="curve" smooth="yes"/>
      <point x="318" y="86" type="line"/>
      <point x="318" y="740" type="line"/>
      <point x="215" y="740" type="line"/>
    </contour>
  </outline>
</glyph>
<glyph name="uni2113" format="1">
  <advance width="449"/>
  <unicode hex="2113"/>
  <outline>
    <contour>
      <point x="248" y="-1" type="curve" smooth="yes"/>
      <point x="308" y="-1"/>
      <point x="342" y="57"/>
      <point x="355" y="88" type="curve"/>
      <point x="322" y="101" type="line"/>
      <point x="309" y="68"/>
      <point x="285" y="37"/>
      <point x="262" y="37" type="curve" smooth="yes"/>
      <point x="233" y="37"/>
      <point x="218" y="95"/>
      <point x="218" y="185" type="curve" smooth="yes"/>
      <point x="218" y="219"/>
      <point x="219" y="250"/>
      <point x="222" y="279" type="curve"/>
      <point x="348" y="411"/>
      <point x="431" y="550"/>
      <point x="431" y="666" type="curve" smooth="yes"/>
      <point x="431" y="740"/>
      <point x="410" y="783"/>
      <point x="364" y="783" type="curve" smooth="yes"/>
      <point x="263" y="783"/>
      <point x="197" y="581"/>
      <point x="170" y="278" type="curve"/>
      <point x="123" y="232"/>
      <point x="77" y="193"/>
      <point x="32" y="158" type="curve"/>
      <point x="54" y="130" type="line"/>
      <point x="90" y="157"/>
      <point x="128" y="190"/>
      <point x="166" y="225" type="curve"/>
      <point x="165" y="212"/>
      <point x="165" y="197"/>
      <point x="165" y="175" type="curve" smooth="yes"/>
      <point x="165" y="59"/>
      <point x="192" y="-1"/>
    </contour>
    <contour>
      <point x="228" y="341" type="curve"/>
      <point x="252" y="570"/>
      <point x="298" y="714"/>
      <point x="353" y="741" type="curve"/>
      <point x="370" y="736"/>
      <point x="378" y="701"/>
      <point x="378" y="648" type="curve" smooth="yes"/>
      <point x="378" y="561"/>
      <point x="322" y="450"/>
    </contour>
  </outline>
</glyph>
<glyph name="servicemark" format="1">
  <advance width="978"/>
  <unicode hex="2120"/>
  <outline>
    <contour>
      <point x="214" y="312" type="curve" smooth="yes"/>
      <point x="319" y="312"/>
      <point x="375" y="354"/>
      <point x="375" y="431" type="curve" smooth="yes"/>
      <point x="375" y="517"/>
      <point x="314" y="543"/>
      <point x="236" y="560" type="curve" smooth="yes"/>
      <point x="169" y="576"/>
      <point x="146" y="594"/>
      <point x="146" y="628" type="curve" smooth="yes"/>
      <point x="146" y="666"/>
      <point x="181" y="689"/>
      <point x="237" y="689" type="curve" smooth="yes"/>
      <point x="268" y="689"/>
      <point x="313" y="682"/>
      <point x="353" y="672" type="curve"/>
      <point x="353" y="730" type="line"/>
      <point x="303" y="741"/>
      <point x="265" y="746"/>
      <point x="232" y="746" type="curve" smooth="yes"/>
      <point x="138" y="746"/>
      <point x="77" y="700"/>
      <point x="77" y="627" type="curve" smooth="yes"/>
      <point x="77" y="560"/>
      <point x="115" y="526"/>
      <point x="215" y="503" type="curve" smooth="yes"/>
      <point x="265" y="490"/>
      <point x="307" y="477"/>
      <point x="307" y="428" type="curve" smooth="yes"/>
      <point x="307" y="389"/>
      <point x="273" y="369"/>
      <point x="211" y="369" type="curve" smooth="yes"/>
      <point x="176" y="369"/>
      <point x="125" y="375"/>
      <point x="70" y="387" type="curve"/>
      <point x="70" y="329" type="line"/>
      <point x="119" y="318"/>
      <point x="175" y="312"/>
    </contour>
    <contour>
      <point x="453" y="320" type="line"/>
      <point x="515" y="320" type="line"/>
      <point x="515" y="645" type="line"/>
      <point x="648" y="336" type="line"/>
      <point x="704" y="336" type="line"/>
      <point x="837" y="645" type="line"/>
      <point x="837" y="320" type="line"/>
      <point x="899" y="320" type="line"/>
      <point x="899" y="740" type="line"/>
      <point x="817" y="740" type="line"/>
      <point x="675" y="414" type="line"/>
      <point x="535" y="740" type="line"/>
      <point x="453" y="740" type="line"/>
    </contour>
  </outline>
</glyph>
<glyph name="arrowleft" format="1">
  <advance width="735"/>
  <unicode hex="2190"/>
  <outline>
    <contour>
      <point x="316" y="107" type="line"/>
      <point x="366" y="156" type="line"/>
      <point x="137" y="372" type="line"/>
      <point x="682" y="368" type="line"/>
      <point x="682" y="442" type="line"/>
      <point x="137" y="438" type="line"/>
      <point x="366" y="654" type="line"/>
      <point x="316" y="703" type="line"/>
      <point x="31" y="416" type="line"/>
      <point x="31" y="394" type="line"/>
    </contour>
  </outline>
</glyph>
<glyph name="arrowdown" format="1">
  <advance width="652"/>
  <unicode hex="2193"/>
  <outline>
    <contour>
      <point x="315" y="75" type="line"/>
      <point x="337" y="75" type="line"/>
      <point x="624" y="360" type="line"/>
      <point x="575" y="410" type="line"/>
      <point x="359" y="181" type="line"/>
      <point x="363" y="726" type="line"/>
      <point x="289" y="726" type="line"/>
      <point x="293" y="181" type="line"/>
      <point x="78" y="410" type="line"/>
      <point x="28" y="360" type="line"/>
    </contour>
  </outline>
</glyph>
<glyph name="partialdiff" format="1">
  <advance width="603"/>
  <unicode hex="2202"/>
  <outline>
    <contour>
      <point x="295" y="-4" type="curve" smooth="yes"/>
      <point x="442" y="-4"/>
      <point x="538" y="116"/>
      <point x="538" y="331" type="curve" smooth="yes"/>
      <point x="538" y="595"/>
      <point x="440" y="747"/>
      <point x="273" y="747" type="curve" smooth="yes"/>
      <point x="208" y="747"/>
      <point x="124" y="713"/>
      <point x="80" y="670" type="curve"/>
      <point x="109" y="621" type="line"/>
      <point x="149" y="653"/>
      <point x="219" y="679"/>
      <point x="268" y="679" type="curve" smooth="yes"/>
      <point x="368" y="679"/>
      <point x="432" y="590"/>
      <point x="447" y="428" type="curve"/>
      <point x="400" y="470"/>
      <point x="345" y="497"/>
      <point x="281" y="497" type="curve" smooth="yes"/>
      <point x="143" y="497"/>
      <point x="50" y="397"/>
      <point x="50" y="259" type="curve" smooth="yes"/>
      <point x="50" y="112"/>
      <point x="142" y="-4"/>
    </contour>
    <contour>
      <point x="294" y="70" type="curve" smooth="yes"/>
      <point x="196" y="70"/>
      <point x="137" y="151"/>
      <point x="137" y="259" type="curve" smooth="yes"/>
      <point x="137" y="361"/>
      <point x="205" y="431"/>
      <point x="297" y="431" type="curve" smooth="yes"/>
      <point x="359" y="431"/>
      <point x="409" y="404"/>
      <point x="451" y="362" type="curve"/>
      <point x="451" y="353"/>
      <point x="451" y="332"/>
      <point x="451" y="324" type="curve" smooth="yes"/>
      <point x="451" y="150"/>
      <point x="393" y="70"/>
    </contour>
  </outline>
</glyph>
<glyph name="product" format="1">
  <advance width="793"/>
  <unicode hex="220F"/>
  <outline>
    <contour>
      <point x="101" y="-107" type="line"/>
      <point x="193" y="-107" type="line"/>
      <point x="193" y="665" type="line"/>
      <point x="600" y="665" type="line"/>
      <point x="600" y="-107" type="line"/>
      <point x="692" y="-107" type="line"/>
      <point x="692" y="740" type="line"/>
      <point x="101" y="740" type="line"/>
    </contour>
  </outline>
</glyph>
<glyph name="summation" format="1">
  <advance width="620"/>
  <unicode hex="2211"/>
  <outline>
    <contour>
      <point x="40" y="-101" type="line"/>
      <point x="571" y="-101" type="line"/>
      <point x="571" y="-26" type="line"/>
      <point x="152" y="-26" type="line"/>
      <point x="405" y="319" type="line"/>
      <point x="152" y="664" type="line"/>
      <point x="571" y="664" type="line"/>
      <point x="571" y="740" type="line"/>
      <point x="40" y="740" type="line"/>
      <point x="40" y="684" type="line"/>
      <point x="312" y="319" type="line"/>
      <point x="40" y="-46" type="line"/>
    </contour>
  </outline>
</glyph>
<glyph name="minus" format="1">
  <advance width="544"/>
  <unicode hex="2212"/>
  <outline>
    <contour>
      <point x="74" y="338" type="line"/>
      <point x="471" y="338" type="line"/>
      <point x="471" y="402" type="line"/>
      <point x="74" y="402" type="line"/>
    </contour>
  </outline>
</glyph>
<glyph name="infinity" format="1">
  <advance width="917"/>
  <unicode hex="221E"/>
  <outline>
    <contour>
      <point x="246" y="137" type="curve" smooth="yes"/>
      <point x="341" y="137"/>
      <point x="396" y="197"/>
      <point x="458" y="264" type="curve"/>
      <point x="539" y="169"/>
      <point x="596" y="137"/>
      <point x="672" y="137" type="curve" smooth="yes"/>
      <point x="782" y="137"/>
      <point x="862" y="211"/>
      <point x="862" y="313" type="curve" smooth="yes"/>
      <point x="862" y="411"/>
      <point x="781" y="483"/>
      <point x="672" y="483" type="curve" smooth="yes"/>
      <point x="587" y="483"/>
      <point x="518" y="437"/>
      <point x="458" y="368" type="curve"/>
      <point x="400" y="442"/>
      <point x="325" y="483"/>
      <point x="246" y="483" type="curve" smooth="yes"/>
      <point x="137" y="483"/>
      <point x="56" y="410"/>
      <point x="56" y="314" type="curve" smooth="yes"/>
      <point x="56" y="210"/>
      <point x="134" y="137"/>
    </contour>
    <contour>
      <point x="253" y="198" type="curve" smooth="yes"/>
      <point x="183" y="198"/>
      <point x="133" y="246"/>
      <point x="133" y="314" type="curve" smooth="yes"/>
      <point x="133" y="377"/>
      <point x="183" y="423"/>
      <point x="252" y="423" type="curve" smooth="yes"/>
      <point x="314" y="423"/>
      <point x="371" y="387"/>
      <point x="422" y="315" type="curve"/>
      <point x="350" y="228"/>
      <point x="306" y="198"/>
    </contour>
    <contour>
      <point x="666" y="198" type="curve" smooth="yes"/>
      <point x="611" y="198"/>
      <point x="568" y="227"/>
      <point x="495" y="314" type="curve"/>
      <point x="543" y="385"/>
      <point x="602" y="423"/>
      <point x="664" y="423" type="curve" smooth="yes"/>
      <point x="732" y="423"/>
      <point x="784" y="375"/>
      <point x="784" y="313" type="curve" smooth="yes"/>
      <point x="784" y="244"/>
      <point x="736" y="198"/>
    </contour>
  </outline>
</glyph>
<glyph name="integral" format="1">
  <advance width="337"/>
  <unicode hex="222B"/>
  <outline>
    <contour>
      <point x="102" y="-203" type="curve" smooth="yes"/>
      <point x="179" y="-203"/>
      <point x="236" y="-172"/>
      <point x="236" y="-87" type="curve" smooth="yes"/>
      <point x="236" y="-83"/>
      <point x="235" y="-76"/>
      <point x="235" y="-72" type="curve"/>
      <point x="183" y="622" type="line"/>
      <point x="183" y="627"/>
      <point x="183" y="632"/>
      <point x="183" y="636" type="curve" smooth="yes"/>
      <point x="183" y="688"/>
      <point x="210" y="706"/>
      <point x="247" y="706" type="curve" smooth="yes"/>
      <point x="264" y="706"/>
      <point x="280" y="703"/>
      <point x="306" y="696" type="curve"/>
      <point x="307" y="701"/>
      <point x="314" y="742"/>
      <point x="316" y="750" type="curve"/>
      <point x="278" y="760"/>
      <point x="248" y="764"/>
      <point x="219" y="764" type="curve" smooth="yes"/>
      <point x="149" y="764"/>
      <point x="105" y="724"/>
      <point x="105" y="640" type="curve" smooth="yes"/>
      <point x="105" y="633"/>
      <point x="105" y="626"/>
      <point x="106" y="620" type="curve"/>
      <point x="158" y="-64" type="line"/>
      <point x="158" y="-75" type="line" smooth="yes"/>
      <point x="158" y="-126"/>
      <point x="130" y="-141"/>
      <point x="89" y="-141" type="curve" smooth="yes"/>
      <point x="73" y="-141"/>
      <point x="57" y="-139"/>
      <point x="32" y="-135" type="curve"/>
      <point x="21" y="-190" type="line"/>
      <point x="48" y="-198"/>
      <point x="76" y="-203"/>
    </contour>
  </outline>
</glyph>
<glyph name="notequal" format="1">
  <advance width="488"/>
  <unicode hex="2260"/>
  <outline>
    <contour>
      <point x="274" y="593" type="line"/>
      <point x="149" y="125" type="line"/>
      <point x="210" y="109" type="line"/>
      <point x="336" y="577" type="line"/>
    </contour>
    <contour>
      <point x="49" y="215" type="line"/>
      <point x="437" y="215" type="line"/>
      <point x="437" y="281" type="line"/>
      <point x="49" y="281" type="line"/>
    </contour>
    <contour>
      <point x="49" y="430" type="line"/>
      <point x="437" y="430" type="line"/>
      <point x="437" y="495" type="line"/>
      <point x="49" y="495" type="line"/>
    </contour>
  </outline>
</glyph>
<glyph name="lessequal" format="1">
  <advance width="551"/>
  <unicode hex="2264"/>
  <outline>
    <contour>
      <point x="73" y="372" type="line"/>
      <point x="140" y="381" type="line"/>
      <point x="475" y="510" type="line"/>
      <point x="475" y="581" type="line"/>
      <point x="73" y="419" type="line"/>
    </contour>
    <contour>
      <point x="73" y="358" type="line"/>
      <point x="472" y="196" type="line"/>
      <point x="472" y="267" type="line"/>
      <point x="140" y="396" type="line"/>
      <point x="73" y="405" type="line"/>
    </contour>
    <contour>
      <point x="73" y="77" type="line"/>
      <point x="473" y="77" type="line"/>
      <point x="473" y="141" type="line"/>
      <point x="73" y="141" type="line"/>
    </contour>
  </outline>
</glyph>
<glyph name="greaterequal" format="1">
  <advance width="550"/>
  <unicode hex="2265"/>
  <outline>
    <contour>
      <point x="83" y="196" type="line"/>
      <point x="482" y="358" type="line"/>
      <point x="482" y="405" type="line"/>
      <point x="416" y="396" type="line"/>
      <point x="83" y="267" type="line"/>
    </contour>
    <contour>
      <point x="81" y="510" type="line"/>
      <point x="416" y="381" type="line"/>
      <point x="482" y="372" type="line"/>
      <point x="482" y="419" type="line"/>
      <point x="81" y="581" type="line"/>
    </contour>
    <contour>
      <point x="73" y="77" type="line"/>
      <point x="473" y="77" type="line"/>
      <point x="473" y="141" type="line"/>
      <point x="73" y="141" type="line"/>
    </contour>
  </outline>
</glyph>
<glyph name="lozenge" format="1">
  <advance width="594"/>
  <unicode hex="25CA"/>
  <outline>
    <contour>
      <point x="237" y="0" type="line"/>
      <point x="357" y="0" type="line"/>
      <point x="557" y="365" type="line"/>
      <point x="557" y="376" type="line"/>
      <point x="357" y="740" type="line"/>
      <point x="237" y="740" type="line"/>
      <point x="36" y="376" type="line"/>
      <point x="36" y="365" type="line"/>
    </contour>
    <contour>
      <point x="297" y="58" type="line"/>
      <point x="127" y="370" type="line"/>
      <point x="297" y="682" type="line"/>
      <point x="465" y="370" type="line"/>
    </contour>
  </outline>
</glyph>
<glyph name="commaaccent" format="1">
  <advance width="256"/>
  <unicode hex="F6C3"/>
  <outline>
    <contour>
      <point x="144" y="-33" type="move" name="_bottom"/>
    </contour>
    <contour>
      <point x="57" y="-220" type="line"/>
      <point x="133" y="-220" type="line"/>
      <point x="202" y="-70" type="line"/>
      <point x="105" y="-70" type="line"/>
    </contour>
  </outline>
</glyph>
<glyph name="A.sc" format="1">
  <advance width="655"/>
  <outline>
    <contour>
      <point x="518" y="0" type="move" name="ogonek"/>
    </contour>
    <contour>
      <point x="268" y="760" type="move" name="topUC"/>
    </contour>
    <contour>
      <point x="13" y="0" type="line"/>
      <point x="103" y="0" type="line"/>
      <point x="174" y="160" type="line"/>
      <point x="481" y="160" type="line"/>
      <point x="552" y="0" type="line"/>
      <point x="642" y="0" type="line"/>
      <point x="642" y="6" type="line"/>
      <point x="397" y="577" type="line"/>
      <point x="259" y="577" type="line"/>
      <point x="13" y="6" type="line"/>
    </contour>
    <contour>
      <point x="196" y="226" type="line"/>
      <point x="279" y="413" type="line"/>
      <point x="323" y="516" type="line"/>
      <point x="331" y="516" type="line"/>
      <point x="376" y="414" type="line"/>
      <point x="458" y="226" type="line"/>
    </contour>
  </outline>
</glyph>
<glyph name="Adieresis.sc" format="1">
  <advance width="655"/>
  <outline>
    <contour>
      <point x="202" y="639" type="curve" smooth="yes"/>
      <point x="240" y="639"/>
      <point x="259" y="655"/>
      <point x="259" y="692" type="curve" smooth="yes"/>
      <point x="259" y="728"/>
      <point x="240" y="745"/>
      <point x="202" y="745" type="curve" smooth="yes"/>
      <point x="165" y="745"/>
      <point x="147" y="728"/>
      <point x="147" y="692" type="curve" smooth="yes"/>
      <point x="147" y="655"/>
      <point x="165" y="639"/>
    </contour>
    <contour>
      <point x="453" y="639" type="curve" smooth="yes"/>
      <point x="490" y="639"/>
      <point x="509" y="655"/>
      <point x="509" y="692" type="curve" smooth="yes"/>
      <point x="509" y="728"/>
      <point x="490" y="745"/>
      <point x="453" y="745" type="curve" smooth="yes"/>
      <point x="415" y="745"/>
      <point x="397" y="728"/>
      <point x="397" y="692" type="curve" smooth="yes"/>
      <point x="397" y="655"/>
      <point x="415" y="639"/>
    </contour>
    <contour>
      <point x="13" y="0" type="line"/>
      <point x="103" y="0" type="line"/>
      <point x="174" y="160" type="line"/>
      <point x="481" y="160" type="line"/>
      <point x="552" y="0" type="line"/>
      <point x="642" y="0" type="line"/>
      <point x="642" y="6" type="line"/>
      <point x="397" y="577" type="line"/>
      <point x="259" y="577" type="line"/>
      <point x="13" y="6" type="line"/>
    </contour>
    <contour>
      <point x="197" y="229" type="line"/>
      <point x="279" y="413" type="line"/>
      <point x="323" y="516" type="line"/>
      <point x="331" y="516" type="line"/>
      <point x="376" y="414" type="line"/>
      <point x="458" y="229" type="line"/>
    </contour>
  </outline>
</glyph>
<glyph name="Amacron.sc" format="1">
  <advance width="655"/>
  <outline>
    <contour>
      <point x="13" y="0" type="line"/>
      <point x="103" y="0" type="line"/>
      <point x="174" y="160" type="line"/>
      <point x="481" y="160" type="line"/>
      <point x="552" y="0" type="line"/>
      <point x="642" y="0" type="line"/>
      <point x="642" y="6" type="line"/>
      <point x="397" y="577" type="line"/>
      <point x="259" y="577" type="line"/>
      <point x="13" y="6" type="line"/>
    </contour>
    <contour>
      <point x="197" y="229" type="line"/>
      <point x="279" y="413" type="line"/>
      <point x="323" y="516" type="line"/>
      <point x="331" y="516" type="line"/>
      <point x="376" y="414" type="line"/>
      <point x="458" y="229" type="line"/>
    </contour>
    <contour>
      <point x="172" y="657" type="line"/>
      <point x="485" y="657" type="line"/>
      <point x="485" y="720" type="line"/>
      <point x="172" y="720" type="line"/>
    </contour>
  </outline>
</glyph>
<glyph name="Aogonek.sc" format="1">
  <advance width="654"/>
  <outline>
    <contour>
      <point x="569" y="-170" type="curve" smooth="yes"/>
      <point x="593" y="-170"/>
      <point x="620" y="-166"/>
      <point x="641" y="-160" type="curve"/>
      <point x="641" y="-109" type="line"/>
      <point x="621" y="-115"/>
      <point x="590" y="-118"/>
      <point x="571" y="-118" type="curve" smooth="yes"/>
      <point x="547" y="-118"/>
      <point x="533" y="-113"/>
      <point x="533" y="-92" type="curve" smooth="yes"/>
      <point x="533" y="-63"/>
      <point x="563" y="-41"/>
      <point x="641" y="-10" type="curve"/>
      <point x="641" y="6" type="line"/>
      <point x="396" y="577" type="line"/>
      <point x="258" y="577" type="line"/>
      <point x="12" y="6" type="line"/>
      <point x="12" y="0" type="line"/>
      <point x="102" y="0" type="line"/>
      <point x="173" y="160" type="line"/>
      <point x="480" y="160" type="line"/>
      <point x="550" y="0" type="line"/>
      <point x="561" y="0" type="line"/>
      <point x="495" y="-36"/>
      <point x="470" y="-67"/>
      <point x="470" y="-104" type="curve" smooth="yes"/>
      <point x="470" y="-147"/>
      <point x="503" y="-170"/>
    </contour>
    <contour>
      <point x="195" y="229" type="line"/>
      <point x="278" y="415" type="line"/>
      <point x="322" y="516" type="line"/>
      <point x="330" y="516" type="line"/>
      <point x="375" y="416" type="line"/>
      <point x="456" y="229" type="line"/>
    </contour>
  </outline>
</glyph>
<glyph name="Aring.sc" format="1">
  <advance width="655"/>
  <outline>
    <contour>
      <point x="13" y="0" type="line"/>
      <point x="103" y="0" type="line"/>
      <point x="174" y="160" type="line"/>
      <point x="481" y="160" type="line"/>
      <point x="552" y="0" type="line"/>
      <point x="642" y="0" type="line"/>
      <point x="642" y="6" type="line"/>
      <point x="397" y="577" type="line"/>
      <point x="259" y="577" type="line"/>
      <point x="13" y="6" type="line"/>
    </contour>
    <contour>
      <point x="197" y="229" type="line"/>
      <point x="279" y="413" type="line"/>
      <point x="323" y="516" type="line"/>
      <point x="331" y="516" type="line"/>
      <point x="376" y="414" type="line"/>
      <point x="458" y="229" type="line"/>
    </contour>
    <contour>
      <point x="330" y="624" type="curve" smooth="yes"/>
      <point x="394" y="624"/>
      <point x="442" y="659"/>
      <point x="442" y="710" type="curve" smooth="yes"/>
      <point x="442" y="760"/>
      <point x="394" y="798"/>
      <point x="330" y="798" type="curve" smooth="yes"/>
      <point x="265" y="798"/>
      <point x="216" y="760"/>
      <point x="216" y="710" type="curve" smooth="yes"/>
      <point x="216" y="659"/>
      <point x="265" y="624"/>
    </contour>
    <contour>
      <point x="330" y="662" type="curve" smooth="yes"/>
      <point x="285" y="662"/>
      <point x="262" y="679"/>
      <point x="262" y="710" type="curve" smooth="yes"/>
      <point x="262" y="741"/>
      <point x="285" y="759"/>
      <point x="330" y="759" type="curve" smooth="yes"/>
      <point x="374" y="759"/>
      <point x="396" y="741"/>
      <point x="396" y="710" type="curve" smooth="yes"/>
      <point x="396" y="679"/>
      <point x="374" y="662"/>
    </contour>
  </outline>
</glyph>
<glyph name="Atilde.sc" format="1">
  <advance width="655"/>
  <outline>
    <contour>
      <point x="13" y="0" type="line"/>
      <point x="103" y="0" type="line"/>
      <point x="174" y="160" type="line"/>
      <point x="481" y="160" type="line"/>
      <point x="552" y="0" type="line"/>
      <point x="642" y="0" type="line"/>
      <point x="642" y="6" type="line"/>
      <point x="397" y="577" type="line"/>
      <point x="259" y="577" type="line"/>
      <point x="13" y="6" type="line"/>
    </contour>
    <contour>
      <point x="197" y="229" type="line"/>
      <point x="279" y="413" type="line"/>
      <point x="323" y="516" type="line"/>
      <point x="331" y="516" type="line"/>
      <point x="376" y="414" type="line"/>
      <point x="458" y="229" type="line"/>
    </contour>
    <contour>
      <point x="161" y="652" type="line"/>
      <point x="191" y="674"/>
      <point x="218" y="681"/>
      <point x="246" y="681" type="curve" smooth="yes"/>
      <point x="298" y="681"/>
      <point x="352" y="650"/>
      <point x="407" y="650" type="curve" smooth="yes"/>
      <point x="450" y="650"/>
      <point x="497" y="674"/>
      <point x="533" y="719" type="curve"/>
      <point x="513" y="742" type="line"/>
      <point x="481" y="722"/>
      <point x="453" y="714"/>
      <point x="424" y="714" type="curve" smooth="yes"/>
      <point x="368" y="714"/>
      <point x="322" y="745"/>
      <point x="262" y="745" type="curve" smooth="yes"/>
      <point x="221" y="745"/>
      <point x="177" y="722"/>
      <point x="141" y="676" type="curve"/>
    </contour>
  </outline>
</glyph>
<glyph name="Ccaron.sc" format="1">
  <advance width="564"/>
  <outline>
    <contour>
      <point x="360" y="-8" type="curve" smooth="yes"/>
      <point x="403" y="-8"/>
      <point x="473" y="0"/>
      <point x="519" y="10" type="curve"/>
      <point x="519" y="85" type="line"/>
      <point x="483" y="77"/>
      <point x="401" y="69"/>
      <point x="360" y="69" type="curve" smooth="yes"/>
      <point x="213" y="69"/>
      <point x="147" y="137"/>
      <point x="147" y="288" type="curve" smooth="yes"/>
      <point x="147" y="441"/>
      <point x="216" y="510"/>
      <point x="366" y="510" type="curve" smooth="yes"/>
      <point x="403" y="510"/>
      <point x="448" y="505"/>
      <point x="519" y="495" type="curve"/>
      <point x="519" y="571" type="line"/>
      <point x="460" y="581"/>
      <point x="400" y="586"/>
      <point x="358" y="586" type="curve" smooth="yes"/>
      <point x="158" y="586"/>
      <point x="54" y="484"/>
      <point x="54" y="287" type="curve" smooth="yes"/>
      <point x="54" y="93"/>
      <point x="157" y="-8"/>
    </contour>
    <contour>
      <point x="167" y="692" type="line"/>
      <point x="324" y="633" type="line"/>
      <point x="483" y="692" type="line"/>
      <point x="483" y="758" type="line"/>
      <point x="325" y="699" type="line"/>
      <point x="167" y="758" type="line"/>
    </contour>
  </outline>
</glyph>
<glyph name="Ccircumflex.sc" format="1">
  <advance width="564"/>
  <outline>
    <contour>
      <point x="360" y="-8" type="curve" smooth="yes"/>
      <point x="403" y="-8"/>
      <point x="473" y="0"/>
      <point x="519" y="10" type="curve"/>
      <point x="519" y="85" type="line"/>
      <point x="483" y="77"/>
      <point x="401" y="69"/>
      <point x="360" y="69" type="curve" smooth="yes"/>
      <point x="213" y="69"/>
      <point x="147" y="137"/>
      <point x="147" y="288" type="curve" smooth="yes"/>
      <point x="147" y="441"/>
      <point x="216" y="510"/>
      <point x="366" y="510" type="curve" smooth="yes"/>
      <point x="403" y="510"/>
      <point x="448" y="505"/>
      <point x="519" y="495" type="curve"/>
      <point x="519" y="571" type="line"/>
      <point x="460" y="581"/>
      <point x="400" y="586"/>
      <point x="358" y="586" type="curve" smooth="yes"/>
      <point x="158" y="586"/>
      <point x="54" y="484"/>
      <point x="54" y="287" type="curve" smooth="yes"/>
      <point x="54" y="93"/>
      <point x="157" y="-8"/>
    </contour>
    <contour>
      <point x="166" y="632" type="line"/>
      <point x="325" y="691" type="line"/>
      <point x="483" y="632" type="line"/>
      <point x="483" y="698" type="line"/>
      <point x="324" y="758" type="line"/>
      <point x="166" y="698" type="line"/>
    </contour>
  </outline>
</glyph>
<glyph name="Cdotaccent.sc" format="1">
  <advance width="564"/>
  <outline>
    <contour>
      <point x="360" y="-8" type="curve" smooth="yes"/>
      <point x="403" y="-8"/>
      <point x="473" y="0"/>
      <point x="519" y="10" type="curve"/>
      <point x="519" y="85" type="line"/>
      <point x="483" y="77"/>
      <point x="401" y="69"/>
      <point x="360" y="69" type="curve" smooth="yes"/>
      <point x="213" y="69"/>
      <point x="147" y="137"/>
      <point x="147" y="288" type="curve" smooth="yes"/>
      <point x="147" y="441"/>
      <point x="216" y="510"/>
      <point x="366" y="510" type="curve" smooth="yes"/>
      <point x="403" y="510"/>
      <point x="448" y="505"/>
      <point x="519" y="495" type="curve"/>
      <point x="519" y="571" type="line"/>
      <point x="460" y="581"/>
      <point x="400" y="586"/>
      <point x="358" y="586" type="curve" smooth="yes"/>
      <point x="158" y="586"/>
      <point x="54" y="484"/>
      <point x="54" y="287" type="curve" smooth="yes"/>
      <point x="54" y="93"/>
      <point x="157" y="-8"/>
    </contour>
    <contour>
      <point x="334" y="636" type="curve" smooth="yes"/>
      <point x="371" y="636"/>
      <point x="390" y="653"/>
      <point x="390" y="689" type="curve" smooth="yes"/>
      <point x="390" y="725"/>
      <point x="371" y="742"/>
      <point x="334" y="742" type="curve" smooth="yes"/>
      <point x="296" y="742"/>
      <point x="278" y="726"/>
      <point x="278" y="689" type="curve" smooth="yes"/>
      <point x="278" y="651"/>
      <point x="296" y="636"/>
    </contour>
  </outline>
</glyph>
<glyph name="D.sc" format="1">
  <advance width="700"/>
  <outline>
    <contour>
      <point x="269" y="760" type="move" name="topUC"/>
    </contour>
    <contour>
      <point x="274" y="0" type="move" name="bottom"/>
    </contour>
    <contour>
      <point x="291" y="-7" type="curve" smooth="yes"/>
      <point x="536" y="-7"/>
      <point x="647" y="86"/>
      <point x="647" y="288" type="curve" smooth="yes"/>
      <point x="647" y="491"/>
      <point x="535" y="584"/>
      <point x="291" y="584" type="curve" smooth="yes"/>
      <point x="241" y="584"/>
      <point x="151" y="581"/>
      <point x="88" y="576" type="curve"/>
      <point x="88" y="6" type="line"/>
      <point x="123" y="-2"/>
      <point x="206" y="-7"/>
    </contour>
    <contour>
      <point x="304" y="67" type="curve" smooth="yes"/>
      <point x="257" y="67"/>
      <point x="225" y="69"/>
      <point x="179" y="75" type="curve"/>
      <point x="179" y="504" type="line"/>
      <point x="218" y="506"/>
      <point x="270" y="509"/>
      <point x="301" y="509" type="curve" smooth="yes"/>
      <point x="479" y="509"/>
      <point x="555" y="443"/>
      <point x="555" y="288" type="curve" smooth="yes"/>
      <point x="555" y="133"/>
      <point x="480" y="67"/>
    </contour>
  </outline>
</glyph>
<glyph name="Dcroat.sc" format="1">
  <advance width="714"/>
  <outline>
    <contour>
      <point x="16" y="253" type="line"/>
      <point x="101" y="253" type="line"/>
      <point x="101" y="6" type="line"/>
      <point x="130" y="-2"/>
      <point x="206" y="-7"/>
      <point x="286" y="-7" type="curve" smooth="yes"/>
      <point x="548" y="-7"/>
      <point x="660" y="82"/>
      <point x="660" y="288" type="curve" smooth="yes"/>
      <point x="660" y="492"/>
      <point x="549" y="584"/>
      <point x="303" y="584" type="curve" smooth="yes"/>
      <point x="256" y="584"/>
      <point x="166" y="581"/>
      <point x="101" y="576" type="curve"/>
      <point x="101" y="325" type="line"/>
      <point x="16" y="325" type="line"/>
    </contour>
    <contour>
      <point x="317" y="67" type="curve" smooth="yes"/>
      <point x="271" y="67"/>
      <point x="238" y="69"/>
      <point x="192" y="75" type="curve"/>
      <point x="192" y="253" type="line"/>
      <point x="356" y="253" type="line"/>
      <point x="356" y="325" type="line"/>
      <point x="192" y="325" type="line"/>
      <point x="192" y="504" type="line"/>
      <point x="232" y="507"/>
      <point x="283" y="509"/>
      <point x="314" y="509" type="curve" smooth="yes"/>
      <point x="492" y="509"/>
      <point x="567" y="444"/>
      <point x="567" y="288" type="curve" smooth="yes"/>
      <point x="567" y="132"/>
      <point x="493" y="67"/>
    </contour>
  </outline>
</glyph>
<glyph name="E.sc" format="1">
  <advance width="594"/>
  <outline>
    <contour>
      <point x="468" y="0" type="move" name="ogonek"/>
    </contour>
    <contour>
      <point x="277" y="760" type="move" name="topUC"/>
    </contour>
    <contour>
      <point x="297" y="0" type="move" name="bottom"/>
    </contour>
    <contour>
      <point x="89" y="0" type="line"/>
      <point x="540" y="0" type="line"/>
      <point x="540" y="70" type="line"/>
      <point x="180" y="70" type="line"/>
      <point x="180" y="262" type="line"/>
      <point x="511" y="262" type="line"/>
      <point x="511" y="325" type="line"/>
      <point x="180" y="325" type="line"/>
      <point x="180" y="507" type="line"/>
      <point x="533" y="507" type="line"/>
      <point x="533" y="577" type="line"/>
      <point x="89" y="577" type="line"/>
    </contour>
  </outline>
</glyph>
<glyph name="Ecircumflex.sc" format="1">
  <advance width="593"/>
  <outline>
    <contour>
      <point x="89" y="0" type="line"/>
      <point x="540" y="0" type="line"/>
      <point x="540" y="70" type="line"/>
      <point x="180" y="70" type="line"/>
      <point x="180" y="262" type="line"/>
      <point x="511" y="262" type="line"/>
      <point x="511" y="325" type="line"/>
      <point x="180" y="325" type="line"/>
      <point x="180" y="507" type="line"/>
      <point x="533" y="507" type="line"/>
      <point x="533" y="577" type="line"/>
      <point x="89" y="577" type="line"/>
    </contour>
    <contour>
      <point x="161" y="632" type="line"/>
      <point x="319" y="691" type="line"/>
      <point x="477" y="632" type="line"/>
      <point x="477" y="698" type="line"/>
      <point x="318" y="758" type="line"/>
      <point x="161" y="698" type="line"/>
    </contour>
  </outline>
</glyph>
<glyph name="Egrave.sc" format="1">
  <advance width="593"/>
  <outline>
    <contour>
      <point x="89" y="0" type="line"/>
      <point x="540" y="0" type="line"/>
      <point x="540" y="70" type="line"/>
      <point x="180" y="70" type="line"/>
      <point x="180" y="262" type="line"/>
      <point x="511" y="262" type="line"/>
      <point x="511" y="325" type="line"/>
      <point x="180" y="325" type="line"/>
      <point x="180" y="507" type="line"/>
      <point x="533" y="507" type="line"/>
      <point x="533" y="577" type="line"/>
      <point x="89" y="577" type="line"/>
    </contour>
    <contour>
      <point x="291" y="629" type="line"/>
      <point x="359" y="639" type="line"/>
      <point x="296" y="751" type="line"/>
      <point x="203" y="751" type="line"/>
    </contour>
  </outline>
</glyph>
<glyph name="Einvertedbreve.sc" format="1">
  <advance width="593"/>
  <outline>
    <contour>
      <point x="140" y="638" type="curve"/>
      <point x="205" y="638" type="line"/>
      <point x="205" y="684"/>
      <point x="239" y="711"/>
      <point x="312" y="711" type="curve" smooth="yes"/>
      <point x="386" y="711"/>
      <point x="420" y="684"/>
      <point x="420" y="638" type="curve"/>
      <point x="485" y="638" type="line"/>
      <point x="485" y="711"/>
      <point x="431" y="762"/>
      <point x="312" y="762" type="curve" smooth="yes"/>
      <point x="193" y="762"/>
      <point x="140" y="709"/>
    </contour>
    <contour>
      <point x="89" y="0" type="line"/>
      <point x="540" y="0" type="line"/>
      <point x="540" y="70" type="line"/>
      <point x="180" y="70" type="line"/>
      <point x="180" y="262" type="line"/>
      <point x="511" y="262" type="line"/>
      <point x="511" y="325" type="line"/>
      <point x="180" y="325" type="line"/>
      <point x="180" y="507" type="line"/>
      <point x="533" y="507" type="line"/>
      <point x="533" y="577" type="line"/>
      <point x="89" y="577" type="line"/>
    </contour>
  </outline>
</glyph>
<glyph name="Emacron.sc" format="1">
  <advance width="593"/>
  <outline>
    <contour>
      <point x="89" y="0" type="line"/>
      <point x="540" y="0" type="line"/>
      <point x="540" y="70" type="line"/>
      <point x="180" y="70" type="line"/>
      <point x="180" y="262" type="line"/>
      <point x="511" y="262" type="line"/>
      <point x="511" y="325" type="line"/>
      <point x="180" y="325" type="line"/>
      <point x="180" y="507" type="line"/>
      <point x="533" y="507" type="line"/>
      <point x="533" y="577" type="line"/>
      <point x="89" y="577" type="line"/>
    </contour>
    <contour>
      <point x="158" y="657" type="line"/>
      <point x="471" y="657" type="line"/>
      <point x="471" y="720" type="line"/>
      <point x="158" y="720" type="line"/>
    </contour>
  </outline>
</glyph>
<glyph name="Eng.sc" format="1">
  <advance width="731"/>
  <outline>
    <contour>
      <point x="558" y="-155" type="line"/>
      <point x="608" y="-85"/>
      <point x="643" y="9"/>
      <point x="643" y="78" type="curve" smooth="yes"/>
      <point x="643" y="577" type="line"/>
      <point x="560" y="577" type="line"/>
      <point x="560" y="126" type="line"/>
      <point x="555" y="126" type="line"/>
      <point x="497" y="196" type="line"/>
      <point x="161" y="577" type="line"/>
      <point x="89" y="577" type="line"/>
      <point x="89" y="0" type="line"/>
      <point x="171" y="0" type="line"/>
      <point x="171" y="450" type="line"/>
      <point x="177" y="450" type="line"/>
      <point x="234" y="380" type="line"/>
      <point x="555" y="16" type="line"/>
      <point x="549" y="-23"/>
      <point x="527" y="-78"/>
      <point x="495" y="-135" type="curve"/>
    </contour>
  </outline>
</glyph>
<glyph name="Eogonek.sc" format="1">
  <advance width="593"/>
  <outline>
    <contour>
      <point x="468" y="-172" type="curve" smooth="yes"/>
      <point x="493" y="-172"/>
      <point x="519" y="-169"/>
      <point x="539" y="-162" type="curve"/>
      <point x="539" y="-112" type="line"/>
      <point x="520" y="-117"/>
      <point x="489" y="-121"/>
      <point x="470" y="-121" type="curve" smooth="yes"/>
      <point x="446" y="-121"/>
      <point x="431" y="-115"/>
      <point x="431" y="-95" type="curve" smooth="yes"/>
      <point x="431" y="-65"/>
      <point x="462" y="-43"/>
      <point x="540" y="-13" type="curve"/>
      <point x="540" y="70" type="line"/>
      <point x="180" y="70" type="line"/>
      <point x="180" y="262" type="line"/>
      <point x="511" y="262" type="line"/>
      <point x="511" y="325" type="line"/>
      <point x="180" y="325" type="line"/>
      <point x="180" y="507" type="line"/>
      <point x="533" y="507" type="line"/>
      <point x="533" y="577" type="line"/>
      <point x="89" y="577" type="line"/>
      <point x="89" y="0" type="line"/>
      <point x="463" y="0" type="line"/>
      <point x="392" y="-38"/>
      <point x="369" y="-65"/>
      <point x="369" y="-106" type="curve" smooth="yes"/>
      <point x="369" y="-150"/>
      <point x="399" y="-172"/>
    </contour>
  </outline>
</glyph>
<glyph name="Etilde.sc" format="1">
  <advance width="593"/>
  <outline>
    <contour>
      <point x="146" y="652" type="line"/>
      <point x="175" y="674"/>
      <point x="202" y="681"/>
      <point x="230" y="681" type="curve" smooth="yes"/>
      <point x="283" y="681"/>
      <point x="336" y="650"/>
      <point x="391" y="650" type="curve" smooth="yes"/>
      <point x="434" y="650"/>
      <point x="482" y="674"/>
      <point x="518" y="719" type="curve"/>
      <point x="497" y="742" type="line"/>
      <point x="466" y="722"/>
      <point x="438" y="714"/>
      <point x="409" y="714" type="curve" smooth="yes"/>
      <point x="352" y="714"/>
      <point x="306" y="745"/>
      <point x="246" y="745" type="curve" smooth="yes"/>
      <point x="205" y="745"/>
      <point x="162" y="722"/>
      <point x="125" y="676" type="curve"/>
    </contour>
    <contour>
      <point x="89" y="0" type="line"/>
      <point x="540" y="0" type="line"/>
      <point x="540" y="70" type="line"/>
      <point x="180" y="70" type="line"/>
      <point x="180" y="262" type="line"/>
      <point x="511" y="262" type="line"/>
      <point x="511" y="325" type="line"/>
      <point x="180" y="325" type="line"/>
      <point x="180" y="507" type="line"/>
      <point x="533" y="507" type="line"/>
      <point x="533" y="577" type="line"/>
      <point x="89" y="577" type="line"/>
    </contour>
  </outline>
</glyph>
<glyph name="F.sc" format="1">
  <advance width="570"/>
  <outline>
    <contour>
      <point x="89" y="0" type="line"/>
      <point x="180" y="0" type="line"/>
      <point x="180" y="250" type="line"/>
      <point x="499" y="250" type="line"/>
      <point x="499" y="315" type="line"/>
      <point x="180" y="315" type="line"/>
      <point x="180" y="505" type="line"/>
      <point x="533" y="505" type="line"/>
      <point x="533" y="577" type="line"/>
      <point x="89" y="577" type="line"/>
    </contour>
  </outline>
</glyph>
<glyph name="G.sc" format="1">
  <advance width="631"/>
  <outline>
    <contour>
      <point x="349" y="760" type="move" name="topUC"/>
    </contour>
    <contour>
      <point x="349" y="0" type="move" name="bottom"/>
    </contour>
    <contour>
      <point x="368" y="-8" type="curve" smooth="yes"/>
      <point x="421" y="-8"/>
      <point x="507" y="5"/>
      <point x="566" y="23" type="curve"/>
      <point x="566" y="293" type="line"/>
      <point x="480" y="293" type="line"/>
      <point x="480" y="81" type="line"/>
      <point x="453" y="74"/>
      <point x="395" y="69"/>
      <point x="369" y="69" type="curve" smooth="yes"/>
      <point x="214" y="69"/>
      <point x="147" y="138"/>
      <point x="147" y="288" type="curve" smooth="yes"/>
      <point x="147" y="439"/>
      <point x="218" y="510"/>
      <point x="383" y="510" type="curve" smooth="yes"/>
      <point x="432" y="510"/>
      <point x="478" y="505"/>
      <point x="558" y="491" type="curve"/>
      <point x="558" y="565" type="line"/>
      <point x="500" y="579"/>
      <point x="435" y="586"/>
      <point x="377" y="586" type="curve" smooth="yes"/>
      <point x="164" y="586"/>
      <point x="54" y="483"/>
      <point x="54" y="287" type="curve" smooth="yes"/>
      <point x="54" y="93"/>
      <point x="161" y="-8"/>
    </contour>
  </outline>
</glyph>
<glyph name="Gacute.sc" format="1">
  <advance width="631"/>
  <outline>
    <contour>
      <point x="368" y="-8" type="curve" smooth="yes"/>
      <point x="422" y="-8"/>
      <point x="508" y="5"/>
      <point x="566" y="23" type="curve"/>
      <point x="566" y="293" type="line"/>
      <point x="480" y="293" type="line"/>
      <point x="480" y="81" type="line"/>
      <point x="453" y="74"/>
      <point x="395" y="69"/>
      <point x="369" y="69" type="curve" smooth="yes"/>
      <point x="216" y="69"/>
      <point x="147" y="137"/>
      <point x="147" y="288" type="curve" smooth="yes"/>
      <point x="147" y="441"/>
      <point x="221" y="510"/>
      <point x="383" y="510" type="curve" smooth="yes"/>
      <point x="432" y="510"/>
      <point x="478" y="505"/>
      <point x="558" y="489" type="curve"/>
      <point x="558" y="565" type="line"/>
      <point x="500" y="579"/>
      <point x="436" y="586"/>
      <point x="377" y="586" type="curve" smooth="yes"/>
      <point x="164" y="586"/>
      <point x="54" y="484"/>
      <point x="54" y="287" type="curve" smooth="yes"/>
      <point x="54" y="92"/>
      <point x="161" y="-8"/>
    </contour>
    <contour>
      <point x="362" y="629" type="line"/>
      <point x="450" y="751" type="line"/>
      <point x="356" y="751" type="line"/>
      <point x="294" y="635" type="line"/>
    </contour>
  </outline>
</glyph>
<glyph name="Gbreve.sc" format="1">
  <advance width="631"/>
  <outline>
    <contour>
      <point x="368" y="-8" type="curve" smooth="yes"/>
      <point x="422" y="-8"/>
      <point x="508" y="5"/>
      <point x="566" y="23" type="curve"/>
      <point x="566" y="293" type="line"/>
      <point x="480" y="293" type="line"/>
      <point x="480" y="81" type="line"/>
      <point x="453" y="74"/>
      <point x="395" y="69"/>
      <point x="369" y="69" type="curve" smooth="yes"/>
      <point x="216" y="69"/>
      <point x="147" y="137"/>
      <point x="147" y="288" type="curve" smooth="yes"/>
      <point x="147" y="441"/>
      <point x="221" y="510"/>
      <point x="383" y="510" type="curve" smooth="yes"/>
      <point x="432" y="510"/>
      <point x="478" y="505"/>
      <point x="558" y="489" type="curve"/>
      <point x="558" y="565" type="line"/>
      <point x="500" y="579"/>
      <point x="436" y="586"/>
      <point x="377" y="586" type="curve" smooth="yes"/>
      <point x="164" y="586"/>
      <point x="54" y="484"/>
      <point x="54" y="287" type="curve" smooth="yes"/>
      <point x="54" y="92"/>
      <point x="161" y="-8"/>
    </contour>
    <contour>
      <point x="339" y="635" type="curve" smooth="yes"/>
      <point x="458" y="635"/>
      <point x="511" y="686"/>
      <point x="511" y="759" type="curve"/>
      <point x="446" y="759" type="line"/>
      <point x="446" y="712"/>
      <point x="412" y="685"/>
      <point x="339" y="685" type="curve" smooth="yes"/>
      <point x="266" y="685"/>
      <point x="231" y="712"/>
      <point x="231" y="759" type="curve"/>
      <point x="167" y="759" type="line"/>
      <point x="167" y="687"/>
      <point x="220" y="635"/>
    </contour>
  </outline>
</glyph>
<glyph name="Gcircumflex.sc" format="1">
  <advance width="631"/>
  <outline>
    <contour>
      <point x="368" y="-8" type="curve" smooth="yes"/>
      <point x="422" y="-8"/>
      <point x="508" y="5"/>
      <point x="566" y="23" type="curve"/>
      <point x="566" y="293" type="line"/>
      <point x="480" y="293" type="line"/>
      <point x="480" y="81" type="line"/>
      <point x="453" y="74"/>
      <point x="395" y="69"/>
      <point x="369" y="69" type="curve" smooth="yes"/>
      <point x="216" y="69"/>
      <point x="147" y="137"/>
      <point x="147" y="288" type="curve" smooth="yes"/>
      <point x="147" y="441"/>
      <point x="221" y="510"/>
      <point x="383" y="510" type="curve" smooth="yes"/>
      <point x="432" y="510"/>
      <point x="478" y="505"/>
      <point x="558" y="489" type="curve"/>
      <point x="558" y="565" type="line"/>
      <point x="500" y="579"/>
      <point x="436" y="586"/>
      <point x="377" y="586" type="curve" smooth="yes"/>
      <point x="164" y="586"/>
      <point x="54" y="484"/>
      <point x="54" y="287" type="curve" smooth="yes"/>
      <point x="54" y="92"/>
      <point x="161" y="-8"/>
    </contour>
    <contour>
      <point x="176" y="632" type="line"/>
      <point x="334" y="691" type="line"/>
      <point x="492" y="632" type="line"/>
      <point x="492" y="698" type="line"/>
      <point x="333" y="758" type="line"/>
      <point x="176" y="698" type="line"/>
    </contour>
  </outline>
</glyph>
<glyph name="H.sc" format="1">
  <advance width="736"/>
  <outline>
    <contour>
      <point x="308" y="760" type="move" name="topUC"/>
    </contour>
    <contour>
      <point x="328" y="0" type="move" name="bottom"/>
    </contour>
    <contour>
      <point x="89" y="0" type="line"/>
      <point x="180" y="0" type="line"/>
      <point x="180" y="261" type="line"/>
      <point x="556" y="261" type="line"/>
      <point x="556" y="0" type="line"/>
      <point x="647" y="0" type="line"/>
      <point x="647" y="577" type="line"/>
      <point x="556" y="577" type="line"/>
      <point x="556" y="332" type="line"/>
      <point x="180" y="332" type="line"/>
      <point x="180" y="577" type="line"/>
      <point x="89" y="577" type="line"/>
    </contour>
  </outline>
</glyph>
<glyph name="Hbar.sc" format="1">
  <advance width="745"/>
  <outline>
    <contour>
      <point x="17" y="424" type="line"/>
      <point x="94" y="424" type="line"/>
      <point x="94" y="0" type="line"/>
      <point x="184" y="0" type="line"/>
      <point x="184" y="255" type="line"/>
      <point x="561" y="255" type="line"/>
      <point x="561" y="0" type="line"/>
      <point x="651" y="0" type="line"/>
      <point x="651" y="424" type="line"/>
      <point x="729" y="424" type="line"/>
      <point x="729" y="473" type="line"/>
      <point x="651" y="473" type="line"/>
      <point x="651" y="577" type="line"/>
      <point x="561" y="577" type="line"/>
      <point x="561" y="473" type="line"/>
      <point x="184" y="473" type="line"/>
      <point x="184" y="577" type="line"/>
      <point x="94" y="577" type="line"/>
      <point x="94" y="473" type="line"/>
      <point x="17" y="473" type="line"/>
    </contour>
    <contour>
      <point x="184" y="326" type="line"/>
      <point x="184" y="424" type="line"/>
      <point x="561" y="424" type="line"/>
      <point x="561" y="326" type="line"/>
    </contour>
  </outline>
</glyph>
<glyph name="Hdotbelow.sc" format="1">
  <advance width="736"/>
  <outline>
    <contour>
      <point x="89" y="0" type="line"/>
      <point x="180" y="0" type="line"/>
      <point x="180" y="261" type="line"/>
      <point x="556" y="261" type="line"/>
      <point x="556" y="0" type="line"/>
      <point x="647" y="0" type="line"/>
      <point x="647" y="577" type="line"/>
      <point x="556" y="577" type="line"/>
      <point x="556" y="332" type="line"/>
      <point x="180" y="332" type="line"/>
      <point x="180" y="577" type="line"/>
      <point x="89" y="577" type="line"/>
    </contour>
    <contour>
      <point x="374" y="-149" type="curve" smooth="yes"/>
      <point x="407" y="-149"/>
      <point x="423" y="-135"/>
      <point x="423" y="-104" type="curve" smooth="yes"/>
      <point x="423" y="-72"/>
      <point x="407" y="-58"/>
      <point x="374" y="-58" type="curve" smooth="yes"/>
      <point x="342" y="-58"/>
      <point x="326" y="-72"/>
      <point x="326" y="-104" type="curve" smooth="yes"/>
      <point x="326" y="-135"/>
      <point x="342" y="-149"/>
    </contour>
  </outline>
</glyph>
<glyph name="Iacute.sc" format="1">
  <advance width="269"/>
  <outline>
    <contour>
      <point x="89" y="0" type="line"/>
      <point x="180" y="0" type="line"/>
      <point x="180" y="577" type="line"/>
      <point x="89" y="577" type="line"/>
    </contour>
    <contour>
      <point x="164" y="629" type="line"/>
      <point x="251" y="751" type="line"/>
      <point x="159" y="751" type="line"/>
      <point x="95" y="635" type="line"/>
    </contour>
  </outline>
</glyph>
<glyph name="Ibreve.sc" format="1">
  <advance width="269"/>
  <outline>
    <contour>
      <point x="89" y="0" type="line"/>
      <point x="180" y="0" type="line"/>
      <point x="180" y="577" type="line"/>
      <point x="89" y="577" type="line"/>
    </contour>
    <contour>
      <point x="134" y="635" type="curve" smooth="yes"/>
      <point x="253" y="635"/>
      <point x="306" y="686"/>
      <point x="306" y="759" type="curve"/>
      <point x="242" y="759" type="line"/>
      <point x="242" y="712"/>
      <point x="207" y="685"/>
      <point x="134" y="685" type="curve" smooth="yes"/>
      <point x="61" y="685"/>
      <point x="26" y="712"/>
      <point x="26" y="759" type="curve"/>
      <point x="-38" y="759" type="line"/>
      <point x="-38" y="687"/>
      <point x="15" y="635"/>
    </contour>
  </outline>
</glyph>
<glyph name="Icircumflex.sc" format="1">
  <advance width="269"/>
  <outline>
    <contour>
      <point x="89" y="0" type="line"/>
      <point x="180" y="0" type="line"/>
      <point x="180" y="577" type="line"/>
      <point x="89" y="577" type="line"/>
    </contour>
    <contour>
      <point x="-22" y="632" type="line"/>
      <point x="136" y="691" type="line"/>
      <point x="293" y="632" type="line"/>
      <point x="293" y="698" type="line"/>
      <point x="135" y="758" type="line"/>
      <point x="-22" y="698" type="line"/>
    </contour>
  </outline>
</glyph>
<glyph name="Idotbelow.sc" format="1">
  <advance width="269"/>
  <outline>
    <contour>
      <point x="89" y="0" type="line"/>
      <point x="180" y="0" type="line"/>
      <point x="180" y="577" type="line"/>
      <point x="89" y="577" type="line"/>
    </contour>
    <contour>
      <point x="135" y="-149" type="curve" smooth="yes"/>
      <point x="168" y="-149"/>
      <point x="184" y="-135"/>
      <point x="184" y="-104" type="curve" smooth="yes"/>
      <point x="184" y="-72"/>
      <point x="168" y="-58"/>
      <point x="135" y="-58" type="curve" smooth="yes"/>
      <point x="103" y="-58"/>
      <point x="87" y="-72"/>
      <point x="87" y="-104" type="curve" smooth="yes"/>
      <point x="87" y="-135"/>
      <point x="103" y="-149"/>
    </contour>
  </outline>
</glyph>
<glyph name="Iinvertedbreve.sc" format="1">
  <advance width="269"/>
  <outline>
    <contour>
      <point x="89" y="0" type="line"/>
      <point x="180" y="0" type="line"/>
      <point x="180" y="577" type="line"/>
      <point x="89" y="577" type="line"/>
    </contour>
    <contour>
      <point x="308" y="638" type="line"/>
      <point x="308" y="711"/>
      <point x="255" y="762"/>
      <point x="136" y="762" type="curve" smooth="yes"/>
      <point x="16" y="762"/>
      <point x="-37" y="709"/>
      <point x="-37" y="638" type="curve"/>
      <point x="28" y="638" type="line"/>
      <point x="28" y="684"/>
      <point x="63" y="711"/>
      <point x="136" y="711" type="curve" smooth="yes"/>
      <point x="209" y="711"/>
      <point x="243" y="684"/>
      <point x="243" y="638" type="curve"/>
    </contour>
  </outline>
</glyph>
<glyph name="Itilde.sc" format="1">
  <advance width="269"/>
  <outline>
    <contour>
      <point x="89" y="0" type="line"/>
      <point x="180" y="0" type="line"/>
      <point x="180" y="577" type="line"/>
      <point x="89" y="577" type="line"/>
    </contour>
    <contour>
      <point x="-33" y="652" type="line"/>
      <point x="-2" y="674"/>
      <point x="24" y="681"/>
      <point x="52" y="681" type="curve" smooth="yes"/>
      <point x="105" y="681"/>
      <point x="158" y="650"/>
      <point x="213" y="650" type="curve" smooth="yes"/>
      <point x="256" y="650"/>
      <point x="303" y="674"/>
      <point x="339" y="719" type="curve"/>
      <point x="319" y="742" type="line"/>
      <point x="288" y="722"/>
      <point x="261" y="714"/>
      <point x="231" y="714" type="curve" smooth="yes"/>
      <point x="174" y="714"/>
      <point x="128" y="745"/>
      <point x="68" y="745" type="curve" smooth="yes"/>
      <point x="27" y="745"/>
      <point x="-16" y="722"/>
      <point x="-53" y="676" type="curve"/>
    </contour>
  </outline>
</glyph>
<glyph name="J.sc" format="1">
  <advance width="268"/>
  <outline>
    <contour>
      <point x="122" y="760" type="move" name="topUC"/>
    </contour>
    <contour>
      <point x="86" y="-152" type="line"/>
      <point x="160" y="-32"/>
      <point x="182" y="36"/>
      <point x="182" y="142" type="curve" smooth="yes"/>
      <point x="182" y="577" type="line"/>
      <point x="91" y="577" type="line"/>
      <point x="91" y="147" type="line" smooth="yes"/>
      <point x="91" y="41"/>
      <point x="75" y="-26"/>
      <point x="24" y="-124" type="curve"/>
    </contour>
  </outline>
</glyph>
<glyph name="Jcircumflex.sc" format="1">
  <advance width="268"/>
  <outline>
    <contour>
      <point x="85" y="-152" type="line"/>
      <point x="159" y="-32"/>
      <point x="181" y="36"/>
      <point x="181" y="142" type="curve" smooth="yes"/>
      <point x="181" y="577" type="line"/>
      <point x="90" y="577" type="line"/>
      <point x="90" y="147" type="line" smooth="yes"/>
      <point x="90" y="41"/>
      <point x="74" y="-26"/>
      <point x="23" y="-124" type="curve"/>
    </contour>
    <contour>
      <point x="-20" y="632" type="line"/>
      <point x="138" y="691" type="line"/>
      <point x="296" y="632" type="line"/>
      <point x="296" y="698" type="line"/>
      <point x="137" y="758" type="line"/>
      <point x="-20" y="698" type="line"/>
    </contour>
  </outline>
</glyph>
<glyph name="K.sc" format="1">
  <advance width="638"/>
  <outline>
    <contour>
      <point x="286" y="0" type="move" name="bottom"/>
    </contour>
    <contour>
      <point x="89" y="0" type="line"/>
      <point x="180" y="0" type="line"/>
      <point x="180" y="257" type="line"/>
      <point x="325" y="257" type="line"/>
      <point x="522" y="0" type="line"/>
      <point x="626" y="0" type="line"/>
      <point x="413" y="277" type="line"/>
      <point x="380" y="297" type="line"/>
      <point x="380" y="303" type="line"/>
      <point x="411" y="322" type="line"/>
      <point x="611" y="577" type="line"/>
      <point x="508" y="577" type="line"/>
      <point x="316" y="328" type="line"/>
      <point x="180" y="328" type="line"/>
      <point x="180" y="577" type="line"/>
      <point x="89" y="577" type="line"/>
    </contour>
  </outline>
</glyph>
<glyph name="Lacute.sc" format="1">
  <advance width="520"/>
  <outline>
    <contour>
      <point x="89" y="0" type="line"/>
      <point x="501" y="0" type="line"/>
      <point x="501" y="72" type="line"/>
      <point x="180" y="72" type="line"/>
      <point x="180" y="577" type="line"/>
      <point x="89" y="577" type="line"/>
    </contour>
    <contour>
      <point x="167" y="629" type="line"/>
      <point x="255" y="751" type="line"/>
      <point x="162" y="751" type="line"/>
      <point x="99" y="635" type="line"/>
    </contour>
  </outline>
</glyph>
<glyph name="Lcommaaccent.sc" format="1">
  <advance width="519"/>
  <outline>
    <contour>
      <point x="89" y="0" type="line"/>
      <point x="500" y="0" type="line"/>
      <point x="500" y="72" type="line"/>
      <point x="180" y="72" type="line"/>
      <point x="180" y="577" type="line"/>
      <point x="89" y="577" type="line"/>
    </contour>
    <contour>
      <point x="204" y="-172" type="line"/>
      <point x="276" y="-172" type="line"/>
      <point x="338" y="-55" type="line"/>
      <point x="245" y="-55" type="line"/>
    </contour>
  </outline>
</glyph>
<glyph name="Ldot.sc" format="1">
  <advance width="526"/>
  <outline>
    <contour>
      <point x="89" y="0" type="line"/>
      <point x="500" y="0" type="line"/>
      <point x="500" y="72" type="line"/>
      <point x="180" y="72" type="line"/>
      <point x="180" y="577" type="line"/>
      <point x="89" y="577" type="line"/>
    </contour>
    <contour>
      <point x="428" y="247" type="curve" smooth="yes"/>
      <point x="465" y="247"/>
      <point x="484" y="264"/>
      <point x="484" y="300" type="curve" smooth="yes"/>
      <point x="484" y="337"/>
      <point x="465" y="353"/>
      <point x="428" y="353" type="curve" smooth="yes"/>
      <point x="391" y="353"/>
      <point x="372" y="337"/>
      <point x="372" y="300" type="curve" smooth="yes"/>
      <point x="372" y="263"/>
      <point x="391" y="247"/>
    </contour>
  </outline>
</glyph>
<glyph name="Nacute.sc" format="1">
  <advance width="732"/>
  <outline>
    <contour>
      <point x="89" y="0" type="line"/>
      <point x="171" y="0" type="line"/>
      <point x="171" y="450" type="line"/>
      <point x="177" y="450" type="line"/>
      <point x="234" y="380" type="line"/>
      <point x="570" y="0" type="line"/>
      <point x="643" y="0" type="line"/>
      <point x="643" y="577" type="line"/>
      <point x="560" y="577" type="line"/>
      <point x="560" y="126" type="line"/>
      <point x="555" y="126" type="line"/>
      <point x="497" y="196" type="line"/>
      <point x="161" y="577" type="line"/>
      <point x="89" y="577" type="line"/>
    </contour>
    <contour>
      <point x="385" y="629" type="line"/>
      <point x="473" y="751" type="line"/>
      <point x="380" y="751" type="line"/>
      <point x="317" y="635" type="line"/>
    </contour>
  </outline>
</glyph>
<glyph name="Ncommaaccent.sc" format="1">
  <advance width="732"/>
  <outline>
    <contour>
      <point x="89" y="0" type="line"/>
      <point x="171" y="0" type="line"/>
      <point x="171" y="450" type="line"/>
      <point x="177" y="450" type="line"/>
      <point x="234" y="380" type="line"/>
      <point x="570" y="0" type="line"/>
      <point x="643" y="0" type="line"/>
      <point x="643" y="577" type="line"/>
      <point x="560" y="577" type="line"/>
      <point x="560" y="126" type="line"/>
      <point x="555" y="126" type="line"/>
      <point x="497" y="196" type="line"/>
      <point x="161" y="577" type="line"/>
      <point x="89" y="577" type="line"/>
    </contour>
    <contour>
      <point x="289" y="-172" type="line"/>
      <point x="360" y="-172" type="line"/>
      <point x="423" y="-55" type="line"/>
      <point x="329" y="-55" type="line"/>
    </contour>
  </outline>
</glyph>
<glyph name="Ndotaccent.sc" format="1">
  <advance width="732"/>
  <outline>
    <contour>
      <point x="89" y="0" type="line"/>
      <point x="171" y="0" type="line"/>
      <point x="171" y="450" type="line"/>
      <point x="177" y="450" type="line"/>
      <point x="234" y="380" type="line"/>
      <point x="570" y="0" type="line"/>
      <point x="643" y="0" type="line"/>
      <point x="643" y="577" type="line"/>
      <point x="560" y="577" type="line"/>
      <point x="560" y="126" type="line"/>
      <point x="555" y="126" type="line"/>
      <point x="497" y="196" type="line"/>
      <point x="161" y="577" type="line"/>
      <point x="89" y="577" type="line"/>
    </contour>
    <contour>
      <point x="367" y="636" type="curve" smooth="yes"/>
      <point x="404" y="636"/>
      <point x="423" y="653"/>
      <point x="423" y="689" type="curve" smooth="yes"/>
      <point x="423" y="725"/>
      <point x="404" y="742"/>
      <point x="367" y="742" type="curve" smooth="yes"/>
      <point x="329" y="742"/>
      <point x="311" y="726"/>
      <point x="311" y="689" type="curve" smooth="yes"/>
      <point x="311" y="651"/>
      <point x="329" y="636"/>
    </contour>
  </outline>
</glyph>
<glyph name="Ntilde.sc" format="1">
  <advance width="732"/>
  <outline>
    <contour>
      <point x="199" y="652" type="line"/>
      <point x="229" y="674"/>
      <point x="255" y="681"/>
      <point x="284" y="681" type="curve" smooth="yes"/>
      <point x="336" y="681"/>
      <point x="390" y="650"/>
      <point x="445" y="650" type="curve" smooth="yes"/>
      <point x="488" y="650"/>
      <point x="535" y="674"/>
      <point x="571" y="719" type="curve"/>
      <point x="551" y="742" type="line"/>
      <point x="519" y="722"/>
      <point x="492" y="714"/>
      <point x="463" y="714" type="curve" smooth="yes"/>
      <point x="406" y="714"/>
      <point x="360" y="745"/>
      <point x="300" y="745" type="curve" smooth="yes"/>
      <point x="259" y="745"/>
      <point x="215" y="722"/>
      <point x="179" y="676" type="curve"/>
    </contour>
    <contour>
      <point x="89" y="0" type="line"/>
      <point x="171" y="0" type="line"/>
      <point x="171" y="450" type="line"/>
      <point x="177" y="450" type="line"/>
      <point x="234" y="380" type="line"/>
      <point x="570" y="0" type="line"/>
      <point x="643" y="0" type="line"/>
      <point x="643" y="577" type="line"/>
      <point x="560" y="577" type="line"/>
      <point x="560" y="126" type="line"/>
      <point x="555" y="126" type="line"/>
      <point x="497" y="196" type="line"/>
      <point x="161" y="577" type="line"/>
      <point x="89" y="577" type="line"/>
    </contour>
  </outline>
</glyph>
<glyph name="OE.sc" format="1">
  <advance width="947"/>
  <outline>
    <contour>
      <point x="359" y="-8" type="curve" smooth="yes"/>
      <point x="396" y="-8"/>
      <point x="428" y="-5"/>
      <point x="458" y="0" type="curve"/>
      <point x="893" y="0" type="line"/>
      <point x="893" y="70" type="line"/>
      <point x="549" y="70" type="line"/>
      <point x="549" y="262" type="line"/>
      <point x="864" y="262" type="line"/>
      <point x="864" y="325" type="line"/>
      <point x="549" y="325" type="line"/>
      <point x="549" y="507" type="line"/>
      <point x="886" y="507" type="line"/>
      <point x="886" y="577" type="line"/>
      <point x="458" y="577" type="line"/>
      <point x="427" y="583"/>
      <point x="398" y="585"/>
      <point x="359" y="585" type="curve" smooth="yes"/>
      <point x="166" y="585"/>
      <point x="54" y="480"/>
      <point x="54" y="288" type="curve" smooth="yes"/>
      <point x="54" y="95"/>
      <point x="166" y="-8"/>
    </contour>
    <contour>
      <point x="359" y="66" type="curve" smooth="yes"/>
      <point x="218" y="66"/>
      <point x="146" y="136"/>
      <point x="146" y="288" type="curve" smooth="yes"/>
      <point x="146" y="440"/>
      <point x="218" y="511"/>
      <point x="359" y="511" type="curve" smooth="yes"/>
      <point x="400" y="511"/>
      <point x="430" y="509"/>
      <point x="458" y="503" type="curve"/>
      <point x="458" y="74" type="line"/>
      <point x="430" y="68"/>
      <point x="399" y="66"/>
    </contour>
  </outline>
</glyph>
<glyph name="O.sc" format="1">
  <advance width="713"/>
  <outline>
    <contour>
      <point x="314" y="-10" type="move" name="ogonek"/>
    </contour>
    <contour>
      <point x="314" y="760" type="move" name="topUC"/>
    </contour>
    <contour>
      <point x="314" y="0" type="move" name="bottom"/>
    </contour>
    <contour>
      <point x="357" y="-8" type="curve" smooth="yes"/>
      <point x="548" y="-8"/>
      <point x="659" y="96"/>
      <point x="659" y="288" type="curve" smooth="yes"/>
      <point x="659" y="480"/>
      <point x="548" y="585"/>
      <point x="357" y="585" type="curve" smooth="yes"/>
      <point x="164" y="585"/>
      <point x="53" y="480"/>
      <point x="53" y="288" type="curve" smooth="yes"/>
      <point x="53" y="95"/>
      <point x="165" y="-8"/>
    </contour>
    <contour>
      <point x="357" y="66" type="curve" smooth="yes"/>
      <point x="213" y="66"/>
      <point x="146" y="139"/>
      <point x="146" y="288" type="curve" smooth="yes"/>
      <point x="146" y="437"/>
      <point x="214" y="511"/>
      <point x="357" y="511" type="curve" smooth="yes"/>
      <point x="499" y="511"/>
      <point x="568" y="437"/>
      <point x="568" y="288" type="curve" smooth="yes"/>
      <point x="568" y="140"/>
      <point x="500" y="66"/>
    </contour>
  </outline>
</glyph>
<glyph name="Oacute.sc" format="1">
  <advance width="713"/>
  <outline>
    <contour>
      <point x="357" y="-8" type="curve" smooth="yes"/>
      <point x="548" y="-8"/>
      <point x="660" y="96"/>
      <point x="660" y="288" type="curve" smooth="yes"/>
      <point x="660" y="480"/>
      <point x="548" y="585"/>
      <point x="357" y="585" type="curve" smooth="yes"/>
      <point x="165" y="585"/>
      <point x="54" y="480"/>
      <point x="54" y="288" type="curve" smooth="yes"/>
      <point x="54" y="95"/>
      <point x="165" y="-8"/>
    </contour>
    <contour>
      <point x="357" y="66" type="curve" smooth="yes"/>
      <point x="214" y="66"/>
      <point x="146" y="139"/>
      <point x="146" y="288" type="curve" smooth="yes"/>
      <point x="146" y="437"/>
      <point x="214" y="511"/>
      <point x="357" y="511" type="curve" smooth="yes"/>
      <point x="499" y="511"/>
      <point x="568" y="437"/>
      <point x="568" y="288" type="curve" smooth="yes"/>
      <point x="568" y="140"/>
      <point x="500" y="66"/>
    </contour>
    <contour>
      <point x="386" y="629" type="line"/>
      <point x="474" y="751" type="line"/>
      <point x="381" y="751" type="line"/>
      <point x="318" y="635" type="line"/>
    </contour>
  </outline>
</glyph>
<glyph name="Ocircumflex.sc" format="1">
  <advance width="713"/>
  <outline>
    <contour>
      <point x="357" y="-8" type="curve" smooth="yes"/>
      <point x="548" y="-8"/>
      <point x="660" y="96"/>
      <point x="660" y="288" type="curve" smooth="yes"/>
      <point x="660" y="480"/>
      <point x="548" y="585"/>
      <point x="357" y="585" type="curve" smooth="yes"/>
      <point x="165" y="585"/>
      <point x="54" y="480"/>
      <point x="54" y="288" type="curve" smooth="yes"/>
      <point x="54" y="95"/>
      <point x="165" y="-8"/>
    </contour>
    <contour>
      <point x="357" y="66" type="curve" smooth="yes"/>
      <point x="214" y="66"/>
      <point x="146" y="139"/>
      <point x="146" y="288" type="curve" smooth="yes"/>
      <point x="146" y="437"/>
      <point x="214" y="511"/>
      <point x="357" y="511" type="curve" smooth="yes"/>
      <point x="499" y="511"/>
      <point x="568" y="437"/>
      <point x="568" y="288" type="curve" smooth="yes"/>
      <point x="568" y="140"/>
      <point x="500" y="66"/>
    </contour>
    <contour>
      <point x="198" y="632" type="line"/>
      <point x="356" y="691" type="line"/>
      <point x="514" y="632" type="line"/>
      <point x="514" y="698" type="line"/>
      <point x="355" y="758" type="line"/>
      <point x="198" y="698" type="line"/>
    </contour>
  </outline>
</glyph>
<glyph name="Odieresis.sc" format="1">
  <advance width="713"/>
  <outline>
    <contour>
      <point x="357" y="-8" type="curve" smooth="yes"/>
      <point x="548" y="-8"/>
      <point x="660" y="96"/>
      <point x="660" y="288" type="curve" smooth="yes"/>
      <point x="660" y="480"/>
      <point x="548" y="585"/>
      <point x="357" y="585" type="curve" smooth="yes"/>
      <point x="165" y="585"/>
      <point x="54" y="480"/>
      <point x="54" y="288" type="curve" smooth="yes"/>
      <point x="54" y="95"/>
      <point x="165" y="-8"/>
    </contour>
    <contour>
      <point x="357" y="66" type="curve" smooth="yes"/>
      <point x="214" y="66"/>
      <point x="146" y="139"/>
      <point x="146" y="288" type="curve" smooth="yes"/>
      <point x="146" y="437"/>
      <point x="214" y="511"/>
      <point x="357" y="511" type="curve" smooth="yes"/>
      <point x="499" y="511"/>
      <point x="568" y="437"/>
      <point x="568" y="288" type="curve" smooth="yes"/>
      <point x="568" y="140"/>
      <point x="500" y="66"/>
    </contour>
    <contour>
      <point x="228" y="639" type="curve" smooth="yes"/>
      <point x="264" y="639"/>
      <point x="284" y="654"/>
      <point x="284" y="692" type="curve" smooth="yes"/>
      <point x="284" y="729"/>
      <point x="263" y="745"/>
      <point x="228" y="745" type="curve" smooth="yes"/>
      <point x="191" y="745"/>
      <point x="172" y="729"/>
      <point x="172" y="692" type="curve" smooth="yes"/>
      <point x="172" y="654"/>
      <point x="191" y="639"/>
    </contour>
    <contour>
      <point x="478" y="639" type="curve" smooth="yes"/>
      <point x="515" y="639"/>
      <point x="534" y="654"/>
      <point x="534" y="692" type="curve" smooth="yes"/>
      <point x="534" y="729"/>
      <point x="514" y="745"/>
      <point x="478" y="745" type="curve" smooth="yes"/>
      <point x="442" y="745"/>
      <point x="423" y="729"/>
      <point x="423" y="692" type="curve" smooth="yes"/>
      <point x="423" y="654"/>
      <point x="441" y="639"/>
    </contour>
  </outline>
</glyph>
<glyph name="Odotbelow.sc" format="1">
  <advance width="713"/>
  <outline>
    <contour>
      <point x="357" y="-8" type="curve" smooth="yes"/>
      <point x="548" y="-8"/>
      <point x="659" y="96"/>
      <point x="659" y="288" type="curve" smooth="yes"/>
      <point x="659" y="480"/>
      <point x="548" y="585"/>
      <point x="357" y="585" type="curve" smooth="yes"/>
      <point x="164" y="585"/>
      <point x="53" y="480"/>
      <point x="53" y="288" type="curve" smooth="yes"/>
      <point x="53" y="96"/>
      <point x="165" y="-8"/>
    </contour>
    <contour>
      <point x="357" y="66" type="curve" smooth="yes"/>
      <point x="216" y="66"/>
      <point x="146" y="137"/>
      <point x="146" y="288" type="curve" smooth="yes"/>
      <point x="146" y="440"/>
      <point x="217" y="511"/>
      <point x="357" y="511" type="curve" smooth="yes"/>
      <point x="496" y="511"/>
      <point x="568" y="439"/>
      <point x="568" y="288" type="curve" smooth="yes"/>
      <point x="568" y="137"/>
      <point x="497" y="66"/>
    </contour>
    <contour>
      <point x="358" y="-149" type="curve" smooth="yes"/>
      <point x="391" y="-149"/>
      <point x="407" y="-135"/>
      <point x="407" y="-104" type="curve" smooth="yes"/>
      <point x="407" y="-72"/>
      <point x="391" y="-58"/>
      <point x="358" y="-58" type="curve" smooth="yes"/>
      <point x="326" y="-58"/>
      <point x="310" y="-72"/>
      <point x="310" y="-104" type="curve" smooth="yes"/>
      <point x="310" y="-135"/>
      <point x="326" y="-149"/>
    </contour>
  </outline>
</glyph>
<glyph name="Ograve.sc" format="1">
  <advance width="713"/>
  <outline>
    <contour>
      <point x="357" y="-8" type="curve" smooth="yes"/>
      <point x="548" y="-8"/>
      <point x="659" y="96"/>
      <point x="659" y="288" type="curve" smooth="yes"/>
      <point x="659" y="480"/>
      <point x="548" y="585"/>
      <point x="357" y="585" type="curve" smooth="yes"/>
      <point x="164" y="585"/>
      <point x="53" y="480"/>
      <point x="53" y="288" type="curve" smooth="yes"/>
      <point x="53" y="96"/>
      <point x="165" y="-8"/>
    </contour>
    <contour>
      <point x="357" y="66" type="curve" smooth="yes"/>
      <point x="216" y="66"/>
      <point x="146" y="137"/>
      <point x="146" y="288" type="curve" smooth="yes"/>
      <point x="146" y="440"/>
      <point x="217" y="511"/>
      <point x="357" y="511" type="curve" smooth="yes"/>
      <point x="496" y="511"/>
      <point x="568" y="439"/>
      <point x="568" y="288" type="curve" smooth="yes"/>
      <point x="568" y="137"/>
      <point x="497" y="66"/>
    </contour>
    <contour>
      <point x="387" y="639" type="line"/>
      <point x="324" y="751" type="line"/>
      <point x="231" y="751" type="line"/>
      <point x="319" y="629" type="line"/>
    </contour>
  </outline>
</glyph>
<glyph name="Omacron.sc" format="1">
  <advance width="713"/>
  <outline>
    <contour>
      <point x="357" y="-8" type="curve" smooth="yes"/>
      <point x="548" y="-8"/>
      <point x="659" y="96"/>
      <point x="659" y="288" type="curve" smooth="yes"/>
      <point x="659" y="480"/>
      <point x="548" y="585"/>
      <point x="357" y="585" type="curve" smooth="yes"/>
      <point x="164" y="585"/>
      <point x="53" y="480"/>
      <point x="53" y="288" type="curve" smooth="yes"/>
      <point x="53" y="96"/>
      <point x="165" y="-8"/>
    </contour>
    <contour>
      <point x="357" y="66" type="curve" smooth="yes"/>
      <point x="216" y="66"/>
      <point x="146" y="137"/>
      <point x="146" y="288" type="curve" smooth="yes"/>
      <point x="146" y="440"/>
      <point x="217" y="511"/>
      <point x="357" y="511" type="curve" smooth="yes"/>
      <point x="496" y="511"/>
      <point x="568" y="439"/>
      <point x="568" y="288" type="curve" smooth="yes"/>
      <point x="568" y="137"/>
      <point x="497" y="66"/>
    </contour>
    <contour>
      <point x="200" y="657" type="line"/>
      <point x="513" y="657" type="line"/>
      <point x="513" y="720" type="line"/>
      <point x="200" y="720" type="line"/>
    </contour>
  </outline>
</glyph>
<glyph name="Q.sc" format="1">
  <advance width="712"/>
  <outline>
    <contour>
      <point x="632" y="-106" type="curve"/>
      <point x="643" y="-28" type="line"/>
      <point x="558" y="-22"/>
      <point x="504" y="-14"/>
      <point x="374" y="10" type="curve"/>
      <point x="374" y="15" type="line"/>
      <point x="562" y="15"/>
      <point x="660" y="109"/>
      <point x="660" y="288" type="curve" smooth="yes"/>
      <point x="660" y="475"/>
      <point x="548" y="585"/>
      <point x="357" y="585" type="curve" smooth="yes"/>
      <point x="165" y="585"/>
      <point x="53" y="475"/>
      <point x="53" y="288" type="curve" smooth="yes"/>
      <point x="53" y="60"/>
      <point x="192" y="-36"/>
    </contour>
    <contour>
      <point x="357" y="67" type="curve" smooth="yes"/>
      <point x="217" y="67"/>
      <point x="145" y="143"/>
      <point x="145" y="288" type="curve" smooth="yes"/>
      <point x="145" y="434"/>
      <point x="218" y="511"/>
      <point x="357" y="511" type="curve" smooth="yes"/>
      <point x="497" y="511"/>
      <point x="568" y="434"/>
      <point x="568" y="288" type="curve" smooth="yes"/>
      <point x="568" y="144"/>
      <point x="497" y="67"/>
    </contour>
  </outline>
</glyph>
<glyph name="R.sc" format="1">
  <advance width="639"/>
  <outline>
    <contour>
      <point x="282" y="760" type="move" name="topUC"/>
    </contour>
    <contour>
      <point x="287" y="0" type="move" name="bottom"/>
    </contour>
    <contour>
      <point x="504" y="0" type="line"/>
      <point x="609" y="0" type="line"/>
      <point x="438" y="225" type="line"/>
      <point x="537" y="251"/>
      <point x="582" y="306"/>
      <point x="582" y="395" type="curve" smooth="yes"/>
      <point x="582" y="528"/>
      <point x="486" y="585"/>
      <point x="263" y="585" type="curve" smooth="yes"/>
      <point x="209" y="585"/>
      <point x="151" y="581"/>
      <point x="88" y="573" type="curve"/>
      <point x="88" y="0" type="line"/>
      <point x="179" y="0" type="line"/>
      <point x="179" y="213" type="line"/>
      <point x="217" y="209"/>
      <point x="249" y="206"/>
      <point x="278" y="206" type="curve" smooth="yes"/>
      <point x="305" y="206"/>
      <point x="330" y="207"/>
      <point x="353" y="210" type="curve"/>
    </contour>
    <contour>
      <point x="283" y="274" type="curve"/>
      <point x="244" y="274"/>
      <point x="192" y="277"/>
      <point x="179" y="281" type="curve"/>
      <point x="179" y="509" type="line"/>
      <point x="203" y="513"/>
      <point x="248" y="516"/>
      <point x="281" y="516" type="curve" smooth="yes"/>
      <point x="431" y="516"/>
      <point x="492" y="481"/>
      <point x="492" y="394" type="curve" smooth="yes"/>
      <point x="492" y="306"/>
      <point x="437" y="274"/>
    </contour>
  </outline>
</glyph>
<glyph name="Rdblgrave.sc" format="1">
  <advance width="639"/>
  <outline>
    <contour>
      <point x="88" y="0" type="line"/>
      <point x="179" y="0" type="line"/>
      <point x="179" y="213" type="line"/>
      <point x="217" y="209"/>
      <point x="249" y="206"/>
      <point x="278" y="206" type="curve" smooth="yes"/>
      <point x="305" y="206"/>
      <point x="330" y="207"/>
      <point x="353" y="210" type="curve"/>
      <point x="504" y="0" type="line"/>
      <point x="609" y="0" type="line"/>
      <point x="438" y="225" type="line"/>
      <point x="537" y="251"/>
      <point x="582" y="306"/>
      <point x="582" y="395" type="curve" smooth="yes"/>
      <point x="582" y="528"/>
      <point x="486" y="585"/>
      <point x="263" y="585" type="curve" smooth="yes"/>
      <point x="209" y="585"/>
      <point x="151" y="581"/>
      <point x="88" y="573" type="curve"/>
    </contour>
    <contour>
      <point x="283" y="274" type="curve"/>
      <point x="244" y="274"/>
      <point x="192" y="277"/>
      <point x="179" y="281" type="curve"/>
      <point x="179" y="509" type="line"/>
      <point x="203" y="513"/>
      <point x="248" y="516"/>
      <point x="281" y="516" type="curve" smooth="yes"/>
      <point x="431" y="516"/>
      <point x="492" y="481"/>
      <point x="492" y="394" type="curve" smooth="yes"/>
      <point x="492" y="306"/>
      <point x="437" y="274"/>
    </contour>
    <contour>
      <point x="216" y="624" type="line"/>
      <point x="284" y="634" type="line"/>
      <point x="220" y="746" type="line"/>
      <point x="128" y="746" type="line"/>
    </contour>
    <contour>
      <point x="364" y="624" type="line"/>
      <point x="432" y="634" type="line"/>
      <point x="369" y="746" type="line"/>
      <point x="277" y="746" type="line"/>
    </contour>
  </outline>
</glyph>
<glyph name="Tbar.sc" format="1">
  <advance width="587"/>
  <outline>
    <contour>
      <point x="122" y="267" type="line"/>
      <point x="248" y="267" type="line"/>
      <point x="248" y="0" type="line"/>
      <point x="339" y="0" type="line"/>
      <point x="339" y="267" type="line"/>
      <point x="468" y="267" type="line"/>
      <point x="468" y="324" type="line"/>
      <point x="339" y="324" type="line"/>
      <point x="339" y="505" type="line"/>
      <point x="560" y="505" type="line"/>
      <point x="560" y="577" type="line"/>
      <point x="26" y="577" type="line"/>
      <point x="26" y="505" type="line"/>
      <point x="248" y="505" type="line"/>
      <point x="248" y="324" type="line"/>
      <point x="122" y="324" type="line"/>
    </contour>
  </outline>
</glyph>
<glyph name="Tdotbelow.sc" format="1">
  <advance width="578"/>
  <outline>
    <contour>
      <point x="244" y="0" type="line"/>
      <point x="335" y="0" type="line"/>
      <point x="335" y="505" type="line"/>
      <point x="556" y="505" type="line"/>
      <point x="556" y="577" type="line"/>
      <point x="22" y="577" type="line"/>
      <point x="22" y="505" type="line"/>
      <point x="244" y="505" type="line"/>
    </contour>
    <contour>
      <point x="290" y="-149" type="curve" smooth="yes"/>
      <point x="323" y="-149"/>
      <point x="339" y="-135"/>
      <point x="339" y="-104" type="curve" smooth="yes"/>
      <point x="339" y="-72"/>
      <point x="323" y="-58"/>
      <point x="290" y="-58" type="curve" smooth="yes"/>
      <point x="257" y="-58"/>
      <point x="241" y="-72"/>
      <point x="241" y="-104" type="curve" smooth="yes"/>
      <point x="241" y="-135"/>
      <point x="257" y="-149"/>
    </contour>
  </outline>
</glyph>
<glyph name="Ubreve.sc" format="1">
  <advance width="719"/>
  <outline>
    <contour>
      <point x="360" y="-8" type="curve" smooth="yes"/>
      <point x="557" y="-8"/>
      <point x="638" y="66"/>
      <point x="638" y="239" type="curve" smooth="yes"/>
      <point x="638" y="578" type="line"/>
      <point x="547" y="578" type="line"/>
      <point x="547" y="237" type="line" smooth="yes"/>
      <point x="547" y="117"/>
      <point x="483" y="66"/>
      <point x="360" y="66" type="curve" smooth="yes"/>
      <point x="236" y="66"/>
      <point x="172" y="117"/>
      <point x="172" y="237" type="curve" smooth="yes"/>
      <point x="172" y="578" type="line"/>
      <point x="82" y="578" type="line"/>
      <point x="82" y="239" type="line" smooth="yes"/>
      <point x="82" y="66"/>
      <point x="162" y="-8"/>
    </contour>
    <contour>
      <point x="357" y="635" type="curve" smooth="yes"/>
      <point x="476" y="635"/>
      <point x="529" y="686"/>
      <point x="529" y="759" type="curve"/>
      <point x="464" y="759" type="line"/>
      <point x="464" y="712"/>
      <point x="430" y="685"/>
      <point x="357" y="685" type="curve" smooth="yes"/>
      <point x="285" y="685"/>
      <point x="250" y="712"/>
      <point x="250" y="759" type="curve"/>
      <point x="185" y="759" type="line"/>
      <point x="185" y="687"/>
      <point x="238" y="635"/>
    </contour>
  </outline>
</glyph>
<glyph name="Udblgrave.sc" format="1">
  <advance width="719"/>
  <outline>
    <contour>
      <point x="360" y="-8" type="curve" smooth="yes"/>
      <point x="557" y="-8"/>
      <point x="638" y="66"/>
      <point x="638" y="239" type="curve" smooth="yes"/>
      <point x="638" y="578" type="line"/>
      <point x="547" y="578" type="line"/>
      <point x="547" y="237" type="line" smooth="yes"/>
      <point x="547" y="117"/>
      <point x="483" y="66"/>
      <point x="360" y="66" type="curve" smooth="yes"/>
      <point x="236" y="66"/>
      <point x="172" y="117"/>
      <point x="172" y="237" type="curve" smooth="yes"/>
      <point x="172" y="578" type="line"/>
      <point x="82" y="578" type="line"/>
      <point x="82" y="239" type="line" smooth="yes"/>
      <point x="82" y="66"/>
      <point x="162" y="-8"/>
    </contour>
    <contour>
      <point x="316" y="634" type="line"/>
      <point x="253" y="746" type="line"/>
      <point x="160" y="746" type="line"/>
      <point x="249" y="624" type="line"/>
    </contour>
    <contour>
      <point x="464" y="634" type="line"/>
      <point x="402" y="746" type="line"/>
      <point x="309" y="746" type="line"/>
      <point x="397" y="624" type="line"/>
    </contour>
  </outline>
</glyph>
<glyph name="Udotbelow.sc" format="1">
  <advance width="719"/>
  <outline>
    <contour>
      <point x="360" y="-8" type="curve" smooth="yes"/>
      <point x="557" y="-8"/>
      <point x="638" y="66"/>
      <point x="638" y="239" type="curve" smooth="yes"/>
      <point x="638" y="578" type="line"/>
      <point x="547" y="578" type="line"/>
      <point x="547" y="237" type="line" smooth="yes"/>
      <point x="547" y="117"/>
      <point x="483" y="66"/>
      <point x="360" y="66" type="curve" smooth="yes"/>
      <point x="236" y="66"/>
      <point x="172" y="117"/>
      <point x="172" y="237" type="curve" smooth="yes"/>
      <point x="172" y="578" type="line"/>
      <point x="82" y="578" type="line"/>
      <point x="82" y="239" type="line" smooth="yes"/>
      <point x="82" y="66"/>
      <point x="162" y="-8"/>
    </contour>
    <contour>
      <point x="355" y="-149" type="curve" smooth="yes"/>
      <point x="388" y="-149"/>
      <point x="403" y="-135"/>
      <point x="403" y="-104" type="curve" smooth="yes"/>
      <point x="403" y="-72"/>
      <point x="388" y="-58"/>
      <point x="355" y="-58" type="curve" smooth="yes"/>
      <point x="322" y="-58"/>
      <point x="306" y="-72"/>
      <point x="306" y="-104" type="curve" smooth="yes"/>
      <point x="306" y="-135"/>
      <point x="322" y="-149"/>
    </contour>
  </outline>
</glyph>
<glyph name="Ugrave.sc" format="1">
  <advance width="719"/>
  <outline>
    <contour>
      <point x="360" y="-8" type="curve" smooth="yes"/>
      <point x="557" y="-8"/>
      <point x="638" y="66"/>
      <point x="638" y="239" type="curve" smooth="yes"/>
      <point x="638" y="578" type="line"/>
      <point x="547" y="578" type="line"/>
      <point x="547" y="237" type="line" smooth="yes"/>
      <point x="547" y="117"/>
      <point x="483" y="66"/>
      <point x="360" y="66" type="curve" smooth="yes"/>
      <point x="236" y="66"/>
      <point x="172" y="117"/>
      <point x="172" y="237" type="curve" smooth="yes"/>
      <point x="172" y="578" type="line"/>
      <point x="82" y="578" type="line"/>
      <point x="82" y="239" type="line" smooth="yes"/>
      <point x="82" y="66"/>
      <point x="162" y="-8"/>
    </contour>
    <contour>
      <point x="392" y="639" type="line"/>
      <point x="330" y="751" type="line"/>
      <point x="236" y="751" type="line"/>
      <point x="325" y="629" type="line"/>
    </contour>
  </outline>
</glyph>
